<svg width="115" height="115" viewBox="0 0 115 115" fill="none" xmlns="http://www.w3.org/2000/svg">
<path d="M52.7082 19.1666H19.1666C16.6249 19.1666 14.1874 20.1763 12.3901 21.9735C10.5929 23.7707 9.58325 26.2083 9.58325 28.75V95.8333C9.58325 98.3749 10.5929 100.813 12.3901 102.61C14.1874 104.407 16.6249 105.417 19.1666 105.417H86.2499C88.7916 105.417 91.2291 104.407 93.0263 102.61C94.8236 100.813 95.8332 98.3749 95.8332 95.8333V62.2916" stroke="white" stroke-width="2" stroke-linecap="round" stroke-linejoin="round"/>
<path d="M88.6458 11.9791C90.552 10.0729 93.1374 9.00195 95.8333 9.00195C98.5291 9.00195 101.115 10.0729 103.021 11.9791C104.927 13.8854 105.998 16.4708 105.998 19.1666C105.998 21.8624 104.927 24.4479 103.021 26.3541L57.4999 71.875L38.3333 76.6666L43.1249 57.5L88.6458 11.9791Z" stroke="white" stroke-width="2" stroke-linecap="round" stroke-linejoin="round"/>
</svg>
