<svg width="407" height="288" viewBox="0 0 407 288" fill="none" xmlns="http://www.w3.org/2000/svg">
<g clip-path="url(#clip0)">
<path opacity="0.1" d="M321.906 247.136C368.031 247.136 405.423 239.878 405.423 230.926C405.423 221.973 368.031 214.716 321.906 214.716C275.781 214.716 238.389 221.973 238.389 230.926C238.389 239.878 275.781 247.136 321.906 247.136Z" fill="#7F43D7"/>
<g opacity="0.5">
<path opacity="0.5" d="M250.37 40.8644C249.244 41.184 247.865 42.0166 247.185 44.2934C245.853 48.7563 248.947 51.7907 247.928 56.443C247.645 57.6771 247.106 58.8384 246.347 59.8523C245.103 61.5372 243.751 62.3343 242.439 63.5142C240.775 65.0215 239.583 66.9769 239.005 69.1451C238.373 71.5382 238.32 74.0473 238.851 76.4648C239.318 78.4852 240.112 79.957 240.807 81.5946C241.672 83.6833 242.348 85.8451 242.827 88.0541C243.089 89.1299 243.238 90.2303 243.269 91.3372C243.249 92.8077 243.117 94.2746 242.874 95.7251L240.981 108.912C240.694 110.637 240.521 112.378 240.464 114.125C240.488 115.876 240.691 117.62 241.068 119.33C241.732 122.818 242.447 126.433 243.968 128.279C245.49 130.126 248.082 129.463 249.674 125.726C251.188 122.151 251.223 117.381 252.559 113.561C254.665 107.543 258.85 106.734 261.173 100.993C263.402 95.4686 262.718 88.7289 263.848 82.4469C264.638 77.9446 266.381 73.8408 267.404 69.3937C268.874 62.9894 268.728 56.3404 267.554 51.4159C266.662 47.3696 264.731 43.6246 261.951 40.5487C260.967 39.4635 259.912 38.4968 258.676 38.3981C257.36 38.2955 256.21 39.9489 254.91 40.4461C253.408 41.034 251.899 40.4303 250.37 40.8644Z" fill="#7F43D7"/>
<path opacity="0.5" d="M257.494 38.7335C257.494 38.7335 255.266 95.6895 245.893 129.274" stroke="#535461" stroke-width="2" stroke-miterlimit="10"/>
<path opacity="0.5" d="M247.13 44.5616C247.13 44.5616 257.147 53.6689 255.246 70.9996" stroke="#535461" stroke-width="2" stroke-miterlimit="10"/>
<path opacity="0.5" d="M238.725 70.4789C238.725 70.4789 255.167 73.7817 253.946 83.6032" stroke="#535461" stroke-width="2" stroke-miterlimit="10"/>
<path opacity="0.5" d="M267.582 51.2975C267.582 51.2975 260.928 57.1138 255.001 73.5882" stroke="#535461" stroke-width="2" stroke-miterlimit="10"/>
<path opacity="0.5" d="M261.082 101.088C261.082 101.088 256.542 104.639 252.899 92.2052" stroke="#535461" stroke-width="2" stroke-miterlimit="10"/>
<path opacity="0.5" d="M241.491 108.352C241.491 108.352 250.749 107.145 251.603 101.356" stroke="#535461" stroke-width="2" stroke-miterlimit="10"/>
</g>
<path d="M272.751 2.66359C270.459 3.00294 267.701 4.06441 266.567 7.33561C264.342 13.7517 271.103 18.6092 269.546 25.3134C269.081 27.1584 268.103 28.8343 266.725 30.1472C264.354 32.4793 261.643 33.4973 259.075 35.0797C256.506 36.662 253.839 39.1519 252.634 42.9716C251.476 46.6453 251.978 50.7017 253.183 53.7322C254.388 56.7627 256.21 59.0238 257.838 61.5176C259.816 64.5872 261.47 67.8535 262.773 71.2641C263.43 72.8187 263.872 74.4556 264.085 76.1295C264.295 78.1814 264.03 80.3872 263.765 82.5456L261.414 101.778C261.102 104.335 260.786 106.932 260.964 109.394C261.165 112.231 262.007 114.709 262.836 117.128C264.623 122.345 266.535 127.782 269.906 130.655C273.276 133.527 278.563 132.912 281.412 127.569C284.123 122.483 283.625 115.463 285.936 109.998C289.58 101.384 298.146 100.685 302.268 92.5092C306.219 84.6646 304.01 74.63 305.599 65.5149C306.737 58.9843 309.819 53.1443 311.399 46.7163C313.679 37.4551 312.585 27.6494 309.574 20.2784C306.563 12.9073 301.801 7.65129 296.692 3.61457C294.527 1.89807 292.231 0.34731 289.659 0.0632011C286.924 -0.240638 284.739 2.05591 282.111 2.63597C279.053 3.27127 275.86 2.20191 272.751 2.66359Z" fill="#BB0A21"/>
<path d="M287.244 0.367065C287.244 0.367065 289.402 83.9781 273.983 132.328" stroke="#535461" stroke-width="2" stroke-miterlimit="10"/>
<path d="M266.48 7.73804C266.48 7.73804 288.292 22.3381 286.423 47.6554" stroke="#535461" stroke-width="2" stroke-miterlimit="10"/>
<path d="M252.164 44.8972C252.164 44.8972 286.588 51.7079 285.229 66.0239" stroke="#535461" stroke-width="2" stroke-miterlimit="10"/>
<path d="M309.613 20.0652C309.613 20.0652 296.53 27.8427 286.225 51.4001" stroke="#535461" stroke-width="2" stroke-miterlimit="10"/>
<path d="M302.062 92.6197C302.062 92.6197 293.092 97.3548 284.071 78.5681" stroke="#535461" stroke-width="2" stroke-miterlimit="10"/>
<path d="M262.378 100.989C262.378 100.989 281.396 100.306 282.479 91.8817" stroke="#535461" stroke-width="2" stroke-miterlimit="10"/>
<path d="M26.5733 228.309C26.5733 228.309 29.8846 232.65 25.0441 239.161C20.2036 245.672 16.2047 251.204 17.8288 255.276C17.8288 255.276 25.131 243.15 31.0739 242.981C37.0169 242.811 33.1129 235.602 26.5733 228.309Z" fill="#BB0A21"/>
<path opacity="0.1" d="M26.5733 228.309C26.8688 228.726 27.103 229.184 27.2688 229.667C33.0694 236.47 36.1555 242.819 30.584 242.981C25.3918 243.131 19.1644 252.4 17.6708 254.743C17.7201 254.924 17.7794 255.102 17.8486 255.276C17.8486 255.276 25.1508 243.15 31.0937 242.981C37.0367 242.811 33.1129 235.602 26.5733 228.309Z" fill="black"/>
<path d="M32.7296 233.822C32.7296 235.345 32.5597 236.584 32.3345 236.584C32.1092 236.584 31.9393 235.349 31.9393 233.822C31.9393 232.295 32.1527 233.033 32.3621 233.033C32.5716 233.033 32.7296 232.299 32.7296 233.822Z" fill="#FFD037"/>
<path d="M34.8436 235.637C33.5041 236.367 32.3384 236.821 32.2396 236.62C32.1409 236.418 33.1406 235.692 34.4801 234.966C35.8196 234.24 35.2901 234.769 35.3929 234.966C35.4956 235.164 36.1792 234.907 34.8436 235.637Z" fill="#FFD037"/>
<path d="M9.09218 228.309C9.09218 228.309 5.78089 232.65 10.6214 239.161C15.4619 245.672 19.4528 251.2 17.8367 255.272C17.8367 255.272 10.5344 243.146 4.59151 242.977C-1.35142 242.807 2.54468 235.602 9.09218 228.309Z" fill="#BB0A21"/>
<path opacity="0.1" d="M9.09218 228.309C8.80363 228.728 8.57612 229.185 8.41649 229.667C2.6158 236.47 -0.470252 242.819 5.10125 242.981C10.2934 243.131 16.5208 252.4 18.0145 254.743C17.9652 254.924 17.9058 255.102 17.8367 255.276C17.8367 255.276 10.5344 243.15 4.59151 242.981C-1.35142 242.811 2.54468 235.602 9.09218 228.309Z" fill="black"/>
<path d="M2.92798 233.822C2.92798 235.345 3.09789 236.584 3.32312 236.584C3.54835 236.584 3.71826 235.349 3.71826 233.822C3.71826 232.295 3.50489 233.033 3.29546 233.033C3.08604 233.033 2.92798 232.299 2.92798 233.822Z" fill="#FFD037"/>
<path d="M0.813917 235.637C2.15345 236.367 3.31911 236.821 3.4179 236.62C3.51669 236.418 2.51698 235.692 1.17745 234.966C-0.162084 234.24 0.367407 234.769 0.26467 234.966C0.161933 235.164 -0.521663 234.907 0.813917 235.637Z" fill="#FFD037"/>
<path d="M3.98303 254.708C3.98303 254.708 13.2412 254.424 16.0309 252.439C18.8206 250.454 30.256 248.098 30.9633 251.255C31.6706 254.412 44.8763 267.082 34.4248 267.165C23.9733 267.248 10.1393 265.54 7.35359 263.847C4.56784 262.154 3.98303 254.708 3.98303 254.708Z" fill="#A8A8A8"/>
<path opacity="0.2" d="M34.6105 266.068C24.159 266.151 10.3251 264.443 7.53931 262.75C5.4174 261.459 4.57179 256.831 4.29124 254.696H3.98303C3.98303 254.696 4.56784 262.154 7.35359 263.847C10.1393 265.54 23.9733 267.252 34.4248 267.165C37.4436 267.142 38.4829 266.068 38.4275 264.482C38.0087 265.453 36.8588 266.053 34.6105 266.068Z" fill="black"/>
<path d="M388.172 226.514C388.896 225.924 389.424 225.129 389.685 224.233C389.883 223.326 389.495 222.241 388.626 221.909C387.654 221.538 386.615 222.209 385.828 222.892C385.042 223.574 384.137 224.348 383.106 224.202C383.636 223.722 384.032 223.113 384.257 222.435C384.481 221.756 384.526 221.031 384.386 220.331C384.342 220.04 384.219 219.767 384.03 219.541C383.489 218.965 382.513 219.214 381.865 219.668C379.81 221.112 379.237 223.898 379.226 226.407C379.02 225.504 379.194 224.561 379.186 223.645C379.178 222.73 378.925 221.672 378.143 221.191C377.658 220.931 377.113 220.801 376.562 220.816C375.638 220.781 374.61 220.875 373.978 221.55C373.188 222.387 373.397 223.795 374.081 224.707C374.764 225.618 375.8 226.206 376.756 226.845C377.522 227.3 378.176 227.922 378.668 228.665C378.726 228.768 378.774 228.876 378.811 228.988H384.599C385.897 228.328 387.098 227.496 388.172 226.514Z" fill="#BB0A21"/>
<path opacity="0.1" d="M57.9792 189.533C70.5526 205.498 65.6686 228.822 57.6789 247.499C55.0038 253.753 51.977 260.37 53.1071 267.075C54.4861 275.274 61.8002 281.28 69.5134 284.437C83.5409 290.23 100.334 288.848 113.22 280.842C124.359 273.921 132.337 262.667 143.666 256.061C162.632 245.013 186.76 249.184 207.347 256.795C221.912 262.182 237.836 269.19 252.31 263.559C262.493 259.613 269.534 249.957 273.371 239.737C275.224 234.801 276.568 229.477 280.088 225.532C282.191 223.207 284.933 221.554 287.746 220.165C313.43 207.455 345.832 214.246 370.758 200.167C387.595 190.649 398.374 172.691 403.159 153.968C407.944 135.244 407.375 115.609 406.162 96.3289C405.301 82.6246 403.756 67.9969 394.988 57.4177C385.714 46.2309 369.793 42.068 355.406 44.1948C341.019 46.3217 327.972 53.9374 316.513 62.8632C302.173 74.0184 288.876 87.9122 271.269 92.4342C259.28 95.5121 246.667 93.8271 234.299 93.2471C213.626 92.2724 192.948 94.4309 172.389 96.7985C152.707 99.0713 132.874 101.573 114.133 107.966C100.864 112.492 90.2267 120.703 77.6968 126.441C69.5292 130.181 60.6227 131.215 52.8937 135.978C43.3668 141.846 34.6382 152.054 37.088 163.994C39.3878 175.363 51.3013 181.061 57.9792 189.533Z" fill="#7F43D7"/>
<path opacity="0.1" d="M218.257 189.525C311.587 189.525 387.247 182.267 387.247 173.314C387.247 164.362 311.587 157.104 218.257 157.104C124.926 157.104 49.2662 164.362 49.2662 173.314C49.2662 182.267 124.926 189.525 218.257 189.525Z" fill="#7F43D7"/>
<path opacity="0.1" d="M88.3774 283.044C134.503 283.044 171.895 275.786 171.895 266.834C171.895 257.881 134.503 250.624 88.3774 250.624C42.2521 250.624 4.86023 257.881 4.86023 266.834C4.86023 275.786 42.2521 283.044 88.3774 283.044Z" fill="#7F43D7"/>
<path d="M173.752 168.26L172.428 170.181C172.428 170.181 173.87 172.103 174.009 172.344C174.147 172.585 178.217 172.225 178.217 172.225L178.576 170.785L177.976 169.104L173.752 168.26Z" fill="#E6E6F0"/>
<path d="M129.247 167.179L126.599 167.656L128.283 170.904L130.089 171.863L131.772 173.062L132.254 171.744L131.049 169.219L129.247 167.179Z" fill="#FDC2CC"/>
<path d="M172.551 135.946C172.551 135.946 186.625 139.308 189.269 143.049C189.269 143.049 191.675 145.093 189.269 148.814C186.863 152.535 183.496 160.948 183.496 160.948C183.496 160.948 181.09 169.116 180.129 169.716C179.169 170.316 173.633 170.797 173.151 168.532C173.151 168.532 176.277 163.607 176.277 161.323C176.277 159.038 181.449 148.23 181.449 148.23C181.449 148.23 169.662 146.908 165.932 147.749C162.202 148.589 167.619 134.624 172.551 135.946Z" fill="#565171"/>
<path opacity="0.1" d="M172.551 135.946C172.551 135.946 186.625 139.308 189.269 143.049C189.269 143.049 191.675 145.093 189.269 148.814C186.863 152.535 183.496 160.948 183.496 160.948C183.496 160.948 181.09 169.116 180.129 169.716C179.169 170.316 173.633 170.797 173.151 168.532C173.151 168.532 176.277 163.607 176.277 161.323C176.277 159.038 181.449 148.23 181.449 148.23C181.449 148.23 169.662 146.908 165.932 147.749C162.202 148.589 167.619 134.624 172.551 135.946Z" fill="black"/>
<path d="M169.662 139.19C169.634 139.888 169.559 140.674 169.453 141.518C168.682 147.634 166.173 156.73 166.173 156.73C166.173 156.73 163.648 162.136 162.925 165.62C162.202 169.104 157.27 169.96 157.27 169.96C157.27 169.96 143.796 171.539 141.03 170.923C138.264 170.308 133.917 172.727 131.768 172.364C129.618 172.001 128.279 166.958 128.279 166.958C132.01 166.979 135.702 166.202 139.106 164.677C144.638 162.155 152.58 163.355 152.58 163.355C153.172 163.183 153.723 162.892 154.199 162.5C154.675 162.108 155.065 161.623 155.346 161.074C156.188 159.271 156.188 148.341 155.947 147.618C154.366 142.883 154.496 139.845 154.951 138.073C155.103 137.299 155.445 136.575 155.947 135.966L169.662 139.19Z" fill="#565171"/>
<path opacity="0.1" d="M169.662 139.19C169.634 139.888 169.559 140.674 169.453 141.518C168.243 141.613 164.853 141.703 162.34 140.153C159.969 138.701 156.52 138.207 154.967 138.053C155.119 137.28 155.461 136.556 155.962 135.946L169.662 139.19Z" fill="black"/>
<path d="M171.326 137.687C170.764 139.265 169.903 141.116 169.903 141.116C169.903 141.116 165.454 141.715 162.324 139.794C159.195 137.872 154.145 137.631 154.145 137.631C154.963 137.13 155.516 135.607 155.86 134.273C156.052 133.519 156.202 132.755 156.31 131.985C156.31 131.985 171.104 134.988 171.721 135.469C171.95 135.658 171.705 136.613 171.326 137.687Z" fill="#E6E6F0"/>
<path d="M197.689 87.0558L179.746 97.8716L177.964 98.9449V93.6613L179.201 93.0694L194.323 85.8522C194.323 85.8522 195.046 72.7595 196.97 74.8036C198.895 76.8476 197.689 87.0558 197.689 87.0558Z" fill="#FDC2CC"/>
<path opacity="0.1" d="M179.746 97.8718L177.964 98.9451V93.6615L179.201 93.0696C179.283 94.6801 179.465 96.2839 179.746 97.8718Z" fill="black"/>
<path d="M165.936 99.8052L178.806 92.3591C178.806 92.3591 179.047 99.5684 180.489 100.646C180.489 100.646 175.198 102.224 173.151 105.57L165.936 99.8052Z" fill="#B45181"/>
<path opacity="0.1" d="M165.936 99.8052L178.806 92.3591C178.806 92.3591 179.047 99.5684 180.489 100.646C180.489 100.646 175.198 102.224 173.151 105.57L165.936 99.8052Z" fill="black"/>
<path d="M197.575 106.154C197.575 106.154 191.454 108.818 187.4 109.796C186.488 110.071 185.534 110.181 184.583 110.12C181.817 109.639 185.306 106.174 185.306 106.174L186.76 105.949L194.568 104.734C194.568 104.734 195.41 92.7222 196.852 93.6851C198.294 94.6479 197.575 106.154 197.575 106.154Z" fill="#FDC2CC"/>
<path d="M171.709 95.3424C171.709 95.3424 166.536 99.1857 168.461 103.992C170.385 108.798 158.476 101.107 158.476 101.107C158.476 101.107 162.324 95.3424 163.166 91.0176C164.008 86.6928 171.709 95.3424 171.709 95.3424Z" fill="#FDC2CC"/>
<path opacity="0.1" d="M171.326 137.687C169.089 136.845 166.75 136.301 164.371 136.069C160.894 135.674 157.709 135.007 155.864 134.273C156.056 133.519 156.206 132.755 156.314 131.985C156.314 131.985 171.108 134.987 171.725 135.469C171.95 135.658 171.705 136.613 171.326 137.687Z" fill="black"/>
<path opacity="0.1" d="M187.396 109.796C186.484 110.071 185.53 110.181 184.579 110.12C181.813 109.639 185.302 106.174 185.302 106.174L186.756 105.949C187.364 106.884 187.985 108.344 187.396 109.796Z" fill="black"/>
<path d="M163.288 97.5047C163.288 97.5047 158.598 97.3863 156.915 99.308C155.231 101.23 155.591 106.411 155.591 106.411C155.591 106.411 155.239 116.785 157.875 122.589C157.962 122.777 157.972 122.99 157.903 123.185C157.875 123.256 157.875 123.213 157.875 123.213C157.875 123.213 156.192 130.781 154.508 132.103C152.825 133.425 158.116 134.987 164.387 135.706C170.658 136.424 173.167 138.227 173.167 138.227C173.167 138.227 174.25 137.043 174.352 134.384C174.455 131.724 172.681 112.401 172.681 112.401C172.681 112.401 179.296 114.082 183.267 112.042C183.267 112.042 185.073 113.004 186.756 110.361C188.439 107.717 185.57 104.836 185.57 104.836C185.57 104.836 182.923 107.48 175.585 103.996C168.247 100.512 165.568 97.3863 163.288 97.5047Z" fill="#B45181"/>
<path d="M127.323 167.419H125.88V169.463L127.323 172.707C127.323 172.707 129.247 173.066 129.369 173.066C129.492 173.066 131.053 172.707 131.053 172.707L131.535 171.866C131.535 171.866 126.24 169.818 127.323 167.419Z" fill="#E6E6F0"/>
<path d="M172.551 169.341L170.385 174.147L179.529 178.488L186.748 178.728C186.748 178.728 187.349 177.047 184.942 176.207L183.018 175.848C183.018 175.848 180.493 171.282 180.252 169.14C180.252 169.14 177.845 169.621 177.486 171.42C177.482 171.381 174.115 173.062 172.551 169.341Z" fill="#B45181"/>
<path d="M126.24 166.938L125.505 167.538L122.273 170.181L129.729 180.046C129.729 180.046 133.937 181.85 135.866 180.046C135.866 180.046 137.051 178.863 134.423 177.884C134.423 177.884 132.376 178.243 132.376 176.203C132.376 174.163 132.859 172.001 133.562 171.519C133.562 171.519 131.756 170.919 131.278 171.401C130.91 171.806 130.587 172.249 130.314 172.723C130.314 172.723 125.999 171.022 126.24 166.938Z" fill="#B45181"/>
<path opacity="0.1" d="M162.929 91.2583C162.807 91.8677 162.646 92.4687 162.447 93.0577C163.072 94.5586 164.258 95.7573 165.753 96.399C167.249 97.0408 168.936 97.075 170.456 96.4946C170.773 96.1679 171.113 95.8633 171.472 95.5831C171.472 95.5831 163.771 86.9335 162.929 91.2583Z" fill="black"/>
<path opacity="0.1" d="M162.265 107.303C162.265 107.303 165.995 112.227 171.409 112.35L162.265 107.303Z" fill="black"/>
<g opacity="0.1">
<path opacity="0.1" d="M184.559 112.124C184.483 112.103 184.409 112.076 184.338 112.042C184.222 112.102 184.103 112.159 183.982 112.211C184.177 112.208 184.371 112.178 184.559 112.124Z" fill="black"/>
<path opacity="0.1" d="M185.839 105.33C185.708 105.162 185.568 105.001 185.42 104.848C185.42 104.848 184.63 105.637 182.678 105.787C183.753 105.894 184.838 105.737 185.839 105.33Z" fill="black"/>
<path opacity="0.1" d="M173.752 112.401L173.775 112.657C175.362 112.951 176.975 113.083 178.588 113.052C176.959 112.992 175.339 112.774 173.752 112.401Z" fill="black"/>
<path opacity="0.1" d="M165.454 135.713C159.199 134.991 153.908 133.433 155.575 132.111C157.243 130.789 158.942 123.221 158.942 123.221C158.942 123.221 158.942 123.264 158.969 123.193C159.039 122.998 159.029 122.784 158.942 122.597C156.306 116.777 156.658 106.419 156.658 106.419C156.658 106.419 156.298 101.253 157.982 99.3159C159.234 97.8835 162.154 97.5876 163.565 97.5284C163.433 97.5182 163.301 97.5182 163.17 97.5284C163.17 97.5284 158.48 97.41 156.796 99.3317C155.113 101.253 155.472 106.434 155.472 106.434C155.472 106.434 155.121 116.808 157.756 122.613C157.843 122.8 157.853 123.014 157.784 123.209C157.756 123.28 157.756 123.236 157.756 123.236C157.756 123.236 156.085 130.781 154.386 132.103C152.687 133.425 157.993 134.987 164.264 135.706C170.535 136.424 173.044 138.227 173.044 138.227C173.17 138.076 173.281 137.914 173.376 137.742C172.155 137.154 169.642 136.187 165.454 135.713Z" fill="black"/>
</g>
<path d="M168.461 96.6642C171.915 96.6642 174.716 93.8676 174.716 90.4177C174.716 86.9679 171.915 84.1713 168.461 84.1713C165.006 84.1713 162.206 86.9679 162.206 90.4177C162.206 93.8676 165.006 96.6642 168.461 96.6642Z" fill="#FDC2CC"/>
<path opacity="0.1" d="M177.363 87.624C176.846 88.9183 175.301 89.4076 173.945 89.743C172.009 90.2165 169.923 90.6821 168.07 89.9482C167.83 89.8136 167.553 89.7596 167.279 89.7943C167.059 89.8824 166.875 90.0424 166.758 90.2481C164.715 93.1523 165.047 97.0233 164.517 100.535C164.351 101.628 164.071 102.757 163.332 103.574C161.894 105.152 159.179 105.093 157.855 106.77C156.982 107.875 156.974 109.41 156.982 110.818C156.982 112.32 156.969 113.824 156.942 115.329C156.919 116.315 156.871 117.337 156.425 118.213C155.666 119.697 153.975 120.403 152.414 120.975C151.442 121.338 150.438 121.705 149.395 121.607C148.352 121.508 147.309 120.817 147.175 119.776C146.989 118.363 148.447 117.377 149.451 116.359C151.055 114.737 151.715 112.377 151.774 110.096C151.83 109.175 151.696 108.252 151.379 107.385C151.011 106.49 150.355 105.736 149.96 104.852C148.743 102.129 150.245 98.9805 152.043 96.5971C153.841 94.2138 156.049 91.8896 156.433 88.9341C156.466 88.2945 156.557 87.6592 156.705 87.0361C156.982 86.1758 157.638 83.8004 158.361 83.2558C159.519 82.385 160.878 81.8203 162.312 81.6143C163.423 81.4525 164.557 81.5117 165.659 81.2986C166.947 81.05 168.145 80.4384 169.433 80.2095C172.219 79.7163 175.241 82.948 176.462 85.4971C176.798 86.2784 177.68 86.8309 177.363 87.624Z" fill="black"/>
<path d="M177.363 87.3833C176.846 88.6775 175.301 89.1668 173.945 89.5022C172.009 89.9758 169.923 90.4414 168.07 89.7074C167.83 89.5729 167.553 89.5189 167.279 89.5535C167.059 89.6417 166.875 89.8016 166.758 90.0073C164.715 92.9116 165.047 96.7825 164.517 100.294C164.351 101.387 164.071 102.516 163.332 103.333C161.894 104.911 159.179 104.852 157.855 106.529C156.982 107.634 156.974 109.169 156.982 110.578C156.982 112.08 156.969 113.583 156.942 115.088C156.919 116.074 156.871 117.096 156.425 117.972C155.666 119.456 153.975 120.162 152.414 120.735C151.442 121.098 150.438 121.465 149.395 121.366C148.352 121.267 147.309 120.577 147.175 119.535C146.989 118.122 148.447 117.136 149.451 116.118C151.055 114.496 151.715 112.136 151.774 109.856C151.83 108.934 151.696 108.012 151.379 107.145C151.011 106.249 150.355 105.495 149.96 104.611C148.743 101.889 150.245 98.7397 152.043 96.3564C153.841 93.973 156.049 91.6488 156.433 88.6933C156.466 88.0537 156.557 87.4185 156.705 86.7953C156.982 85.9351 157.638 83.5596 158.361 83.0151C159.519 82.1442 160.878 81.5796 162.312 81.3736C163.423 81.2118 164.557 81.271 165.659 81.0579C166.947 80.8093 168.145 80.1977 169.433 79.9688C172.219 79.4756 175.241 82.7073 176.462 85.2564C176.798 86.0377 177.68 86.5901 177.363 87.3833Z" fill="#F569BC"/>
<path d="M197.575 75.3757H301.564V179.214H197.575V75.3757Z" fill="#F7DF1E"/>
<path d="M224.923 162.151L232.881 157.341C234.418 160.06 235.813 162.361 239.164 162.361C242.376 162.361 244.399 161.106 244.399 156.229V123.047H254.171V156.363C254.171 166.468 248.244 171.069 239.582 171.069C231.766 171.069 227.23 167.025 224.927 162.148L224.923 162.151ZM259.478 161.102L267.432 156.501C269.526 159.918 272.249 162.42 277.066 162.42C281.116 162.42 283.696 160.399 283.696 157.61C283.696 154.263 281.045 153.08 276.583 151.126L274.141 150.081C267.092 147.086 262.414 143.321 262.414 135.374C262.414 128.054 267.997 122.479 276.722 122.479C282.933 122.479 287.391 124.641 290.611 130.284L283.005 135.165C281.329 132.166 279.515 130.982 276.722 130.982C273.861 130.982 272.043 132.794 272.043 135.165C272.043 138.093 273.857 139.277 278.045 141.084L280.487 142.13C288.785 145.681 293.472 149.307 293.472 157.464C293.472 166.247 286.561 171.058 277.271 171.058C268.183 171.058 262.335 166.717 259.49 161.09" fill="black"/>
<path d="M347.18 236.841C347.18 236.841 343.121 237.125 340.616 232.784C340.127 231.91 339.548 231.089 338.889 230.334C338.081 229.009 337.66 227.485 337.676 225.934C337.815 222.718 334.456 205.103 334.456 205.103C334.456 205.103 334.875 198.395 331.516 194.201C329.303 191.438 326.122 183.546 324.206 178.448C324.335 178.563 324.489 178.644 324.656 178.685L324.577 178.247H324.656L323.665 172.806C322.221 171.148 321.004 169.306 320.045 167.329L320.27 167.281L323.242 166.658C323.242 166.658 328.07 159.804 328.379 156.434H328.774H329.331C333.801 156.409 338.268 156.643 342.71 157.132C342.71 157.112 342.679 157.026 342.639 156.888C342.451 156.209 342.306 155.52 342.205 154.824H342.481L345.247 154.642C345.247 154.642 354.766 144.02 351.265 142.063C347.764 140.105 344.125 150.87 344.125 150.87L342.94 151.083L342.62 151.142C342.651 151.095 342.683 151.051 342.718 151.008C342.754 150.965 327.181 150.314 324.783 146.533C324.783 146.533 317.923 141.08 317.643 137.458C317.592 136.706 317.335 135.983 316.9 135.368C316.465 134.752 315.869 134.269 315.177 133.969C314.33 133.565 313.391 133.39 312.454 133.46L309.242 133.681L309.467 134.076H309.376C309.175 133.615 309.006 133.14 308.871 132.655H308.938C308.914 132.557 308.894 132.458 308.874 132.359C309.859 132.128 310.787 131.701 311.603 131.104C312.42 130.508 313.108 129.754 313.627 128.887C314.146 128.02 314.486 127.058 314.626 126.057C314.766 125.057 314.703 124.039 314.442 123.063C314.756 123.103 315.075 123.094 315.386 123.035C316.572 122.794 317.406 121.595 317.437 120.395C317.437 120.316 317.437 120.237 317.437 120.163C317.437 120.163 317.437 120.131 317.437 120.115C317.425 119.512 317.279 118.92 317.009 118.381C316.739 117.841 316.352 117.369 315.876 116.998C315.236 116.465 314.47 116.086 313.901 115.494C313.209 114.788 312.83 113.841 312.292 113.008C311.392 111.631 310.057 110.594 308.499 110.061C307.341 109.666 305.919 109.627 305.03 110.455C304.571 110.886 304.307 111.509 303.793 111.872C303.054 112.401 302.05 112.243 301.146 112.35C300.326 112.475 299.55 112.801 298.887 113.297C298.223 113.793 297.692 114.445 297.34 115.195C296.897 116.133 296.683 117.164 296.716 118.201C296.706 118.913 296.791 119.623 296.969 120.312C297.143 120.999 297.4 121.662 297.589 122.349C297.984 123.769 298.075 125.265 298.53 126.665C298.835 127.705 299.445 128.63 300.28 129.321L300.146 129.897C300.059 129.897 297.878 130.383 296.372 133.67C295.187 136.262 291.152 138.937 289.378 140.019C289.047 140.221 288.76 140.487 288.534 140.801C288.307 141.116 288.145 141.472 288.058 141.85C287.888 142.612 287.812 143.393 287.833 144.174C287.802 145.859 288.153 148.191 289.509 151.146C292.587 157.854 294.827 160.79 294.827 160.79C294.827 160.79 294.997 162.846 295.009 165.012C295.009 166.626 294.89 168.232 294.547 169.037C294.254 169.716 294.151 171.448 294.175 173.429C294.175 177.225 294.547 182.177 294.547 182.177C294.547 182.177 295.617 182.382 297.273 182.623L298.304 200.743C298.434 202.937 297.728 205.1 296.329 206.796C295.605 207.688 294.77 208.484 293.843 209.164C290.903 211.259 284.605 233.348 284.605 233.348C284.605 233.348 284.913 233.348 285.419 233.408L283.483 238.802C283.483 238.802 291.22 244.721 295.926 243.103C296.435 242.937 296.971 242.862 297.506 242.882C298.435 242.882 300.422 242.148 299.316 241.181C297.18 239.216 295.165 237.124 293.282 234.915C293.434 234.989 293.579 235.075 293.717 235.171V235.128L293.784 235.171C293.784 235.171 293.784 234.954 293.835 234.599L293.768 234.576C293.91 233.124 294.361 229.446 295.254 229.02C296.372 228.459 304.635 212.103 304.635 212.103L312.893 190.854C312.893 190.854 319.472 202.179 325.071 204.133V208.868C325.071 208.868 328.15 222.848 329.272 224.383C330.394 225.918 329.272 232.07 329.272 232.07C329.493 232.323 329.747 232.546 330.026 232.733L329.129 237.8C329.129 237.8 335.57 237.519 346.488 240.873C346.48 240.893 350.68 239.078 347.18 236.841ZM321.424 163.73L320.061 164.069L319.792 164.136C319.765 163.967 319.745 163.868 319.745 163.868C319.432 164.009 319.096 164.091 318.753 164.109C318.27 162.58 317.991 160.995 317.923 159.393C317.465 157.477 317.185 155.522 317.09 153.553C317.09 152.535 317.259 151.647 317.643 151.146L318.097 151.182L318.413 151.482L318.437 151.501L318.599 151.647L318.769 151.797L318.797 151.821L318.978 151.983L319.01 152.01L319.196 152.168L319.405 152.342L319.452 152.381L319.674 152.559L319.891 152.732L319.942 152.772L320.183 152.953L320.235 152.989L320.464 153.159L320.504 153.186L320.764 153.372L320.828 153.415L321.104 153.605H321.128L321.397 153.782L321.46 153.826L321.748 154.011L321.811 154.05L322.08 154.216L322.131 154.248L322.44 154.429L322.515 154.473L322.835 154.65H322.859L323.171 154.816L323.246 154.855L323.578 155.021L323.645 155.053L323.953 155.195L324.012 155.222L324.36 155.372L324.443 155.408L324.803 155.554C322.57 158.008 321.424 163.73 321.424 163.73Z" fill="url(#paint0_linear)"/>
<path d="M286.897 230.085L284.301 237.318C284.301 237.318 291.413 242.764 296.036 241.635C296.733 241.462 297.443 241.347 298.158 241.292C299.114 241.221 300.762 240.522 299.739 239.638C296.459 236.774 292.085 231.451 292.085 231.451L286.897 230.085Z" fill="#4F4D59"/>
<path d="M330.082 229.403L328.853 236.363C328.853 236.363 335.139 236.091 345.8 239.366C345.8 239.366 349.902 237.59 346.484 235.42C346.484 235.42 342.533 235.692 340.063 231.474C337.593 227.256 336.112 227.789 336.112 227.789L330.082 229.403Z" fill="#4F4D59"/>
<path d="M297.546 178.91L298.731 200.092C298.861 202.349 298.112 204.569 296.641 206.287C295.976 207.076 295.219 207.782 294.385 208.39C291.516 210.438 285.364 231.999 285.364 231.999C285.364 231.999 292.334 232.394 294.246 233.775C294.246 233.775 294.641 228.317 295.748 227.769C296.854 227.22 304.903 211.255 304.903 211.255L312.968 190.511C312.968 190.511 319.389 201.56 324.858 203.477V208.118C324.858 208.118 327.865 221.767 328.96 223.267C330.054 224.766 328.96 230.764 328.96 230.764C328.96 230.764 332.121 234.71 339.344 230.492C339.344 230.492 337.02 227.899 337.159 224.758C337.297 221.617 333.998 204.425 333.998 204.425C333.998 204.425 334.393 197.874 331.129 193.77C327.865 189.667 322.44 173.989 322.44 173.989L318.678 165.908L297.546 178.91Z" fill="#C48C96"/>
<g opacity="0.1">
<path opacity="0.1" d="M286.691 231.995C286.691 231.995 292.84 210.434 295.712 208.386C296.593 207.741 297.39 206.988 298.083 206.145C299.486 204.45 300.192 202.287 300.059 200.092L298.854 178.906L319.006 166.5L318.733 165.912L297.625 178.91L298.83 200.096C298.963 202.29 298.257 204.454 296.854 206.149C296.161 206.992 295.365 207.745 294.483 208.39C291.619 210.434 285.462 231.995 285.462 231.995C285.462 231.995 292.433 232.39 294.345 233.771C294.345 233.771 294.345 233.558 294.396 233.214C291.706 232.291 286.691 231.995 286.691 231.995Z" fill="black"/>
<path opacity="0.1" d="M330.287 230.768C330.287 230.768 331.382 224.762 330.287 223.27C329.193 221.779 326.186 208.122 326.186 208.122V203.474C320.721 201.564 314.296 190.507 314.296 190.507L313.822 191.746C315.675 194.682 320.618 201.966 324.961 203.481V208.122C324.961 208.122 327.968 221.771 329.062 223.27C330.157 224.77 329.062 230.768 329.062 230.768C329.062 230.768 330.587 232.686 333.954 232.425C331.437 232.216 330.287 230.768 330.287 230.768Z" fill="black"/>
</g>
<path d="M344.568 155.163L341.885 155.341L340.47 155.435V152.022L342.327 151.687L343.477 151.478C343.477 151.478 347.033 140.97 350.447 142.879C353.861 144.789 344.568 155.163 344.568 155.163Z" fill="#714B4F"/>
<path d="M301.521 127.032C301.521 127.032 299.743 133.855 299.197 138.081C298.652 142.307 311.905 138.902 311.905 138.902C311.905 138.902 306.847 132.762 309.72 129.487L301.521 127.032Z" fill="#714B4F"/>
<path d="M315.868 155.443L316.141 158.036L311.905 157.763L307.669 154.078L303.433 142.201L300.707 137.967L298.656 135.374L299.478 132.217C299.478 132.217 299.853 132.545 300.486 133.026C302.568 134.605 307.448 137.923 311.016 137.008C311.181 136.966 311.343 136.915 311.502 136.854L316.833 145.997L315.868 155.443Z" fill="#E6E6F0"/>
<path opacity="0.1" d="M300.565 131.416C300.565 131.416 298.379 131.811 296.874 135.102C295.72 137.619 291.816 140.232 290.074 141.285C289.741 141.488 289.453 141.755 289.225 142.071C288.998 142.387 288.836 142.745 288.75 143.124C288.398 144.679 288.264 147.579 290.176 151.75C293.183 158.3 295.368 161.165 295.368 161.165C295.368 161.165 295.914 167.715 295.096 169.625C294.278 171.535 295.096 182.043 295.096 182.043C295.096 182.043 309.443 184.774 314.229 182.043C319.014 179.312 318.33 168.804 318.33 168.804C318.33 168.804 322.839 178.357 324.479 178.63L323.522 173.307C323.522 173.307 318.192 167.573 317.919 160.206C317.919 160.206 316.279 153.518 317.647 151.746C317.647 151.746 340.743 153.656 342.11 152.018C342.11 152.018 326.94 151.336 324.617 147.65C324.617 147.65 317.919 142.327 317.647 138.779C317.607 138.113 317.398 137.469 317.039 136.906C316.68 136.343 316.183 135.881 315.596 135.564C314.666 135.035 313.6 134.798 312.533 134.881L309.447 135.094C309.447 135.094 314.778 144.509 314.505 145.748C314.233 146.987 314.778 156.939 314.778 156.939C314.778 156.939 308.61 143.7 305.895 142.201C303.18 140.701 300.015 134.53 300.015 134.53L300.561 131.412" fill="black"/>
<path opacity="0.1" d="M315.868 155.443L316.141 158.036L311.905 157.763L307.669 154.078L303.433 142.201L300.707 137.967L298.656 135.374L299.478 132.217C299.478 132.217 299.853 132.545 300.486 133.026L300.296 134.103C300.296 134.103 303.457 140.267 306.172 141.77C308.886 143.274 315.054 156.509 315.054 156.509C315.054 156.509 314.509 146.545 314.782 145.318C314.967 144.485 312.573 139.884 311.016 137.008C311.181 136.966 311.343 136.915 311.502 136.854L316.833 145.997L315.868 155.443Z" fill="black"/>
<path opacity="0.1" d="M341.885 155.341L340.47 155.435V152.022L342.327 151.687C341.679 152.543 341.703 154.058 341.885 155.341Z" fill="black"/>
<path d="M300.565 131.01C300.565 131.01 298.379 131.404 296.874 134.695C295.72 137.213 291.816 139.825 290.074 140.879C289.741 141.081 289.453 141.349 289.225 141.664C288.998 141.98 288.836 142.338 288.75 142.718C288.398 144.272 288.264 147.173 290.176 151.343C293.183 157.894 295.368 160.759 295.368 160.759C295.368 160.759 295.914 167.309 295.096 169.219C294.278 171.128 295.096 181.637 295.096 181.637C295.096 181.637 309.443 184.367 314.229 181.637C319.014 178.906 318.33 168.398 318.33 168.398C318.33 168.398 322.835 177.935 324.479 178.227L323.522 172.904C323.522 172.904 318.192 167.171 317.919 159.804C317.919 159.804 316.279 153.115 317.647 151.343C317.647 151.343 322.977 157.077 328.991 156.939C333.374 156.912 337.754 157.14 342.11 157.621C342.11 157.621 340.743 153.253 342.11 151.616C342.11 151.616 326.94 150.933 324.617 147.248C324.617 147.248 317.919 141.924 317.647 138.377C317.607 137.711 317.398 137.066 317.039 136.503C316.68 135.941 316.183 135.479 315.596 135.161C314.666 134.633 313.6 134.395 312.533 134.478L309.447 134.691C309.447 134.691 314.778 144.107 314.505 145.346C314.233 146.585 314.778 156.536 314.778 156.536C314.778 156.536 308.61 143.29 305.895 141.79C303.18 140.291 300.015 134.135 300.015 134.135L300.561 131.018" fill="#C48C96"/>
<path opacity="0.1" d="M297.546 145.338C297.546 145.338 300.825 156.386 302.738 157.756C304.65 159.125 316.268 166.082 319.686 164.444C319.686 164.444 320.507 168.54 319.29 169.495C319.29 169.495 306.547 168.998 306.444 168.95C306.444 168.95 298.107 167.857 296.74 163.765C295.373 159.673 293.733 152.717 293.733 152.717L297.546 145.338Z" fill="black"/>
<path d="M315.051 157.827C315.315 157.827 315.529 157.521 315.529 157.144C315.529 156.767 315.315 156.461 315.051 156.461C314.786 156.461 314.572 156.767 314.572 157.144C314.572 157.521 314.786 157.827 315.051 157.827Z" fill="#BA7855"/>
<path d="M316.414 162.601C316.678 162.601 316.892 162.296 316.892 161.919C316.892 161.542 316.678 161.236 316.414 161.236C316.15 161.236 315.936 161.542 315.936 161.919C315.936 162.296 316.15 162.601 316.414 162.601Z" fill="#BA7855"/>
<g opacity="0.1">
<path opacity="0.1" d="M296.056 181.487C296.056 181.487 295.234 170.979 296.056 169.069C296.878 167.159 296.329 160.609 296.329 160.609C296.329 160.609 294.144 157.744 291.136 151.194C289.22 147.023 289.358 144.122 289.71 142.568C289.796 142.188 289.958 141.83 290.186 141.514C290.413 141.199 290.701 140.931 291.034 140.729C292.776 139.663 296.676 137.063 297.834 134.545C298.684 132.699 299.747 131.764 300.513 131.298L300.565 130.998C300.565 130.998 298.379 131.393 296.874 134.684C295.72 137.201 291.816 139.813 290.074 140.867C289.741 141.07 289.453 141.337 289.225 141.653C288.998 141.968 288.836 142.326 288.75 142.706C288.398 144.26 288.264 147.161 290.176 151.332C293.183 157.882 295.368 160.747 295.368 160.747C295.368 160.747 295.914 167.297 295.096 169.207C294.278 171.117 295.096 181.625 295.096 181.625C295.096 181.625 305.346 183.574 311.407 182.528C305.287 183.258 296.056 181.487 296.056 181.487Z" fill="black"/>
<path opacity="0.1" d="M314.501 145.338C314.315 146.178 314.501 151.123 314.655 154.153C315.315 155.499 315.73 156.394 315.73 156.394C315.73 156.394 315.185 146.431 315.457 145.204C315.718 144.02 310.917 135.473 310.439 134.628L309.443 134.696C309.443 134.696 314.778 144.111 314.501 145.338Z" fill="black"/>
<path opacity="0.1" d="M329.947 156.801C323.933 156.939 318.603 151.205 318.603 151.205C318.443 151.428 318.326 151.678 318.259 151.943C319.84 153.411 324.186 157.045 328.991 156.935C333.374 156.909 337.754 157.136 342.11 157.618C342.11 157.618 342.082 157.527 342.039 157.373C338.022 156.958 333.985 156.767 329.947 156.801Z" fill="black"/>
<path opacity="0.1" d="M319.279 168.264C319.279 168.264 319.334 169.116 319.302 170.395C320.725 173.212 323.313 178.03 324.471 178.223L324.269 177.103C322.282 174.609 319.279 168.264 319.279 168.264Z" fill="black"/>
</g>
<path d="M323.111 166.887L320.207 167.498L317.915 167.98L319.144 164.566L320.002 164.353L321.333 164.022C321.333 164.022 323.246 154.469 327.075 155.151C330.904 155.834 323.111 166.887 323.111 166.887Z" fill="#714B4F"/>
<path opacity="0.1" d="M320.211 167.51L317.919 167.991L319.148 164.578L320.006 164.365C320.196 165.402 320.265 166.457 320.211 167.51Z" fill="black"/>
<path d="M297.546 145.065C297.546 145.065 300.825 156.114 302.738 157.483C304.65 158.853 316.268 165.809 319.686 164.172C319.686 164.172 320.507 168.268 319.29 169.223C319.29 169.223 306.547 168.725 306.444 168.678C306.444 168.678 298.107 167.585 296.74 163.493C295.373 159.401 293.733 152.444 293.733 152.444L297.546 145.065Z" fill="#C48C96"/>
<path opacity="0.1" d="M301.655 127.324C301.655 127.324 301.379 128.394 301.007 129.948C301.764 131.38 302.971 132.523 304.443 133.2C305.915 133.878 307.57 134.052 309.151 133.697C308.823 132.296 308.894 130.88 309.854 129.783L301.655 127.324Z" fill="black"/>
<path d="M307.397 133.602C311.473 133.602 314.778 130.302 314.778 126.231C314.778 122.16 311.473 118.86 307.397 118.86C303.32 118.86 300.015 122.16 300.015 126.231C300.015 130.302 303.32 133.602 307.397 133.602Z" fill="#714B4F"/>
<path opacity="0.1" d="M313.806 124.203C314.34 124.352 314.901 124.387 315.45 124.306C316.018 124.152 316.521 123.817 316.882 123.352C317.243 122.887 317.442 122.317 317.449 121.729C317.439 121.141 317.297 120.562 317.033 120.036C316.77 119.509 316.392 119.048 315.928 118.687C315.303 118.166 314.557 117.799 313.984 117.219C313.308 116.528 312.936 115.605 312.403 114.792C311.524 113.448 310.221 112.435 308.701 111.915C307.57 111.521 306.184 111.489 305.314 112.31C304.868 112.732 304.607 113.336 304.109 113.695C303.386 114.208 302.406 114.058 301.525 114.161C300.726 114.282 299.97 114.597 299.322 115.079C298.675 115.56 298.156 116.194 297.81 116.923C297.136 118.41 297.007 120.086 297.447 121.658C297.617 122.329 297.87 122.976 298.052 123.631C298.447 125.02 298.526 126.476 298.968 127.845C299.411 129.214 300.324 130.556 301.707 130.966C301.598 129.43 301.902 127.892 302.588 126.511C302.701 126.21 302.924 125.962 303.212 125.817C303.458 125.754 303.717 125.754 303.963 125.817C305.696 126.073 307.464 125.716 308.961 124.807C309.487 124.491 310.305 123.402 310.862 123.295C311.581 123.173 313.055 124.037 313.806 124.203Z" fill="black"/>
<path d="M313.806 123.931C314.34 124.08 314.901 124.115 315.45 124.033C316.018 123.88 316.521 123.545 316.882 123.08C317.243 122.615 317.442 122.045 317.449 121.457C317.439 120.868 317.297 120.29 317.033 119.763C316.77 119.237 316.392 118.776 315.928 118.414C315.303 117.894 314.557 117.527 313.984 116.946C313.308 116.256 312.936 115.333 312.403 114.52C311.524 113.176 310.221 112.163 308.701 111.643C307.57 111.249 306.184 111.217 305.314 112.038C304.868 112.46 304.607 113.064 304.109 113.423C303.386 113.936 302.406 113.786 301.525 113.888C300.726 114.01 299.97 114.325 299.322 114.807C298.675 115.288 298.156 115.921 297.81 116.651C297.136 118.137 297.007 119.814 297.447 121.386C297.617 122.057 297.87 122.704 298.052 123.359C298.447 124.748 298.526 126.204 298.968 127.573C299.411 128.942 300.324 130.284 301.707 130.694C301.601 129.158 301.908 127.621 302.596 126.243C302.709 125.941 302.932 125.693 303.22 125.549C303.466 125.486 303.724 125.486 303.971 125.549C305.704 125.805 307.472 125.447 308.969 124.539C309.495 124.223 310.313 123.134 310.87 123.027C311.581 122.901 313.055 123.765 313.806 123.931Z" fill="#503F43"/>
<path d="M387.44 99.604L381.419 166.962L354.351 174.459L327.359 166.962L321.345 99.604H387.44Z" fill="#E44D26"/>
<path d="M354.391 168.729L376.262 162.676L381.399 105.113H354.391V168.729Z" fill="#F16529"/>
<path d="M342.687 121.638H354.391V113.375H333.646L333.843 115.593L335.878 138.361H354.395V130.098H343.445L342.687 121.638ZM344.568 142.493H336.27L337.427 155.467L354.355 160.178H354.395V151.556H354.359L345.145 149.071L344.568 142.493Z" fill="#EBEBEB"/>
<path d="M327.497 81.2947H331.702V85.4419H335.546V81.2947H339.751V93.8586H335.546V89.6522H331.702V93.8586H327.497V81.2947ZM345.279 85.4616H341.576V81.2947H353.186V85.4616H349.483V93.8586H345.283V85.4616H345.279ZM355.031 81.2947H359.417L362.116 85.7102L364.811 81.2947H369.197V93.8586H365.008V87.6319L362.116 92.0987H362.045L359.148 87.6319V93.8586H355.031V81.2947ZM371.287 81.2947H375.491V89.7035H381.418V93.8547H371.299V81.2947H371.287Z" fill="black"/>
<path d="M354.363 138.361H364.55L363.59 149.078L354.363 151.564V160.178L371.327 155.483L371.449 154.086L373.393 132.332L373.595 130.114H354.363V138.377V138.361ZM354.363 121.619V121.638H374.349L374.515 119.78L374.911 115.589L375.108 113.371H354.363V121.615V121.619Z" fill="white"/>
<path d="M144.91 149.331C144.14 147.078 143.029 144.201 142.144 143.546C142.091 143.504 142.033 143.468 141.97 143.44H141.86V140.658L139.781 140.989C139.448 139.984 139.195 138.953 139.027 137.907C139.227 138.108 139.482 138.244 139.76 138.299C140.038 138.355 140.326 138.327 140.587 138.219C140.552 138.164 140.524 138.105 140.493 138.046L140.587 138.006C140.26 137.43 140.087 136.779 140.086 136.116C140.103 135.511 140.2 134.912 140.374 134.332C140.745 133.05 141.374 131.85 141.725 130.564C141.95 129.733 142.057 128.875 142.042 128.015C142.052 126.557 141.719 125.118 141.07 123.812C140.908 123.437 140.656 123.107 140.335 122.854C140.042 122.692 139.741 122.546 139.434 122.416C138.918 122.069 138.474 121.627 138.126 121.113C136.65 119.319 134.674 118.002 132.448 117.329C131.868 117.114 131.24 117.065 130.634 117.187C129.239 117.582 128.729 119.29 127.599 120.194C126.599 120.983 125.228 121.074 123.98 121.342C122.698 121.56 121.518 122.177 120.609 123.106C120.018 123.781 119.696 124.649 119.704 125.545C119.67 125.963 119.744 126.383 119.919 126.764C120.094 127.146 120.364 127.476 120.704 127.723C121.09 127.977 121.528 128.142 121.986 128.207C122.443 128.271 122.91 128.234 123.351 128.098C123.006 129.288 122.911 130.536 123.072 131.765C123.233 132.994 123.647 134.176 124.287 135.237C124.927 136.299 125.779 137.217 126.791 137.934C127.803 138.65 128.953 139.151 130.168 139.403L130.413 139.837C131.16 141.229 131.727 142.71 132.1 144.245C130.187 145.33 128.097 146.344 126.837 146.439C126.786 146.931 126.695 147.418 126.564 147.895C126.269 149.092 125.703 150.206 124.908 151.15C123.193 153.076 115.476 167.636 115.476 167.636C115.476 167.636 115.231 168.216 114.836 169.215C110.043 169.803 102.223 170.651 100.038 170.213L91.4634 162.076C91.4634 162.076 88.6974 164.188 88.9345 166.752L87.3895 165.285C87.3895 165.285 79.2417 171.492 92.1075 175.544L111.683 177.813C109.818 183.432 108.079 189.97 108.617 193.53H108.779C109.153 193.529 109.527 193.5 109.897 193.443L109.861 194.074L107.976 227.785C107.976 227.785 107.546 233.992 113.335 236.777C113.335 236.777 120.412 257.545 117.622 259.901C117.622 259.901 117.954 260.074 118.511 260.319L112.69 265.449C112.69 265.449 108.403 266.518 106.044 266.305C105.63 266.249 105.209 266.347 104.862 266.58C104.515 266.814 104.266 267.167 104.163 267.572C104.163 267.615 104.163 267.659 104.14 267.706V267.761C104.14 267.805 104.14 267.852 104.14 267.899C104.14 267.947 104.14 267.935 104.14 267.951C104.14 267.966 104.14 268.029 104.14 268.069V268.12C104.14 268.168 104.14 268.211 104.167 268.258V268.31C104.18 268.36 104.196 268.408 104.215 268.456V268.503C104.234 268.55 104.258 268.598 104.282 268.645V268.677C104.309 268.724 104.337 268.771 104.369 268.819L104.396 268.858C104.431 268.908 104.469 268.958 104.511 269.008L104.543 269.048C104.586 269.099 104.633 269.146 104.685 269.198H104.709L104.867 269.332L104.902 269.359L105.096 269.497L105.143 269.529L105.368 269.659H105.404L105.645 269.778H105.681L105.961 269.892L106.02 269.916L106.333 270.018H106.384L106.72 270.105H106.748L107.143 270.18H107.218L107.613 270.239H107.688L108.142 270.283C109.024 270.35 110.213 270.373 111.588 270.369C111.588 270.369 111.588 270.405 111.588 270.421C111.588 270.437 111.588 270.5 111.588 270.539V270.59C111.588 270.638 111.588 270.681 111.616 270.729V270.78C111.629 270.83 111.645 270.878 111.663 270.926V270.973C111.683 271.021 111.707 271.068 111.73 271.115V271.147C111.758 271.194 111.786 271.242 111.817 271.289L111.845 271.328C111.879 271.378 111.917 271.428 111.959 271.478L111.991 271.518C112.034 271.569 112.082 271.616 112.133 271.668H112.153L112.311 271.802L112.347 271.829L112.54 271.968L112.588 271.999L112.809 272.129H112.845L113.086 272.248H113.121L113.402 272.362L113.461 272.386L113.773 272.488H113.824L114.16 272.575H114.188L114.583 272.65H114.658L115.053 272.709H115.128L115.583 272.753C121.158 273.183 138.952 271.897 138.952 271.897V271.845V271.782C139.129 270.953 139.983 266.135 136.948 262.572C137.039 262.478 137.126 262.379 137.209 262.276C137.209 262.276 134.838 258.208 136.138 256.926C137.438 255.643 129.859 233.573 129.859 233.573C129.859 233.573 125.785 227.149 128.144 219.869C130.503 212.589 127.931 204.669 127.931 204.669C127.931 204.669 133.562 203.004 133.665 196.087C133.665 195.878 133.665 195.661 133.665 195.444C133.782 195.461 133.901 195.469 134.02 195.467C134.099 195.473 134.178 195.473 134.257 195.467C134.257 195.467 133.186 191.612 134.471 188.83C135.755 186.048 138.545 188.617 141.117 177.268C142.978 169.057 144.614 159.614 145.381 155.017C145.695 153.112 145.534 151.159 144.91 149.331ZM95.9838 173.401L94.0279 171.547C94.6759 171.815 95.3951 172.076 96.1972 172.336L103.567 173.2C100.279 173.496 97.2088 173.662 95.9838 173.413V173.401Z" fill="url(#paint1_linear)"/>
<path d="M114.646 172.32C114.646 172.32 99.4809 174.423 96.3198 173.792L87.8954 165.797C87.8954 165.797 79.8898 171.898 92.5304 175.895L116.12 178.63L114.646 172.32Z" fill="#FDC2CC"/>
<path opacity="0.05" d="M114.646 172.32C114.646 172.32 99.4809 174.423 96.3198 173.792L87.8954 165.797C87.8954 165.797 79.8898 171.898 92.5304 175.895L116.12 178.63L114.646 172.32Z" fill="black"/>
<path d="M84.9594 177.627L52.1864 168.552L44.8842 86.752H125.133L117.823 168.54L84.9594 177.627Z" fill="#264DE4"/>
<path d="M111.564 163.335L117.812 93.4443H85.0148V170.671L111.564 163.335Z" fill="#2965F1"/>
<path d="M61.646 123.769L62.547 133.8H85.0305V123.769H61.646ZM59.8363 103.463L60.7491 113.494H85.0266V103.463H59.8165H59.8363ZM85.0266 149.824H84.9831L73.7927 146.806L73.0775 138.803H62.9737L64.3804 154.555L84.9594 160.273H85.0068L85.0266 149.824Z" fill="#EBEBEB"/>
<path d="M63.772 64.5125H75.9384V69.5949H68.8574V74.6773H75.9384V79.7597H63.772V64.5125ZM78.3922 64.5125H90.5586V68.9319H83.4619V69.8158H90.5428V79.9806H78.3725V75.3402H85.4534V74.4563H78.3725V64.5125H78.3922ZM93.0125 64.5125H105.179V68.9319H98.0624V69.8158H105.143V79.9806H92.9729V75.3402H100.054V74.4563H92.9729V64.5125H93.0125Z" fill="black"/>
<path d="M108.328 123.769L110.142 103.463H84.9595V113.494H99.1174L98.2046 123.753H84.9595V133.784H97.3314L96.1459 146.806L84.9595 149.832V160.269L105.554 154.567L105.704 152.871L108.075 126.456L108.32 123.761L108.328 123.769Z" fill="white"/>
<path d="M120.127 257.719L112.754 264.237C112.754 264.237 108.541 265.291 106.226 265.078C103.91 264.865 102.855 268.653 108.332 269.075C113.809 269.497 131.29 268.235 131.29 268.235C131.29 268.235 132.973 261.503 127.919 257.719H120.127Z" fill="#47465A"/>
<path opacity="0.05" d="M120.127 257.719L112.754 264.237C112.754 264.237 108.541 265.291 106.226 265.078C103.91 264.865 102.855 268.653 108.332 269.075C113.809 269.497 131.29 268.235 131.29 268.235C131.29 268.235 132.973 261.503 127.919 257.719H120.127Z" fill="black"/>
<path opacity="0.3" d="M131.551 265.327C131.538 266.094 131.449 266.858 131.286 267.607C131.286 267.607 113.805 268.87 108.328 268.448C105.692 268.247 104.574 267.264 104.377 266.325C104.136 267.406 105.092 268.831 108.328 269.087C113.805 269.509 131.286 268.247 131.286 268.247C131.492 267.287 131.581 266.307 131.551 265.327Z" fill="white"/>
<path d="M128.757 138.476C128.757 138.476 133.392 144.994 131.705 149.414C130.017 153.833 140.552 144.785 140.552 144.785C140.552 144.785 137.181 138.87 138.869 132.557L128.757 138.476Z" fill="#FDC2CC"/>
<path d="M127.493 260.244L120.127 266.763C120.127 266.763 115.915 267.816 113.599 267.603C111.284 267.39 110.229 271.178 115.705 271.601C121.182 272.023 138.663 270.76 138.663 270.76C138.663 270.76 140.346 264.028 135.293 260.244H127.493Z" fill="#47465A"/>
<path d="M129.61 258.772C128.512 260.126 126.963 260.647 125.343 260.726C121.66 260.899 117.606 258.772 117.606 258.772C120.344 256.46 113.394 236.055 113.394 236.055C107.708 233.321 108.127 227.22 108.127 227.22L109.968 194.114L110.434 185.796L116.334 182.221L120.98 185.772L125.39 189.15C125.678 190.224 125.863 191.323 125.943 192.433C126.457 200.163 120.336 201.982 120.336 201.982C120.336 201.982 122.865 209.763 120.546 216.917C118.226 224.071 122.229 230.381 122.229 230.381C122.229 230.381 129.812 252.257 128.551 253.52C127.291 254.783 129.61 258.772 129.61 258.772Z" fill="#565171"/>
<path opacity="0.05" d="M129.61 258.772C128.512 260.126 126.963 260.647 125.343 260.726C121.66 260.899 117.606 258.772 117.606 258.772C120.344 256.46 113.394 236.055 113.394 236.055C107.708 233.321 108.127 227.22 108.127 227.22L109.968 194.114L110.434 185.796L116.334 182.221L120.98 185.772L125.39 189.15C125.678 190.224 125.863 191.323 125.943 192.433C126.457 200.163 120.336 201.982 120.336 201.982C120.336 201.982 122.865 209.763 120.546 216.917C118.226 224.071 122.229 230.381 122.229 230.381C122.229 230.381 129.812 252.257 128.551 253.52C127.291 254.783 129.61 258.772 129.61 258.772Z" fill="black"/>
<path d="M136.972 261.294C133.392 265.709 124.968 261.294 124.968 261.294C125.137 261.138 125.264 260.941 125.335 260.722C126.88 256.527 120.123 236.474 120.123 236.474C114.437 233.739 113.801 227.22 113.801 227.22L112.311 193.514L112.118 189.15L120.981 185.772L123.703 184.734L132.772 191.675C133.161 193.113 133.352 194.597 133.341 196.087C133.226 202.878 127.706 204.519 127.706 204.519C127.706 204.519 130.235 212.301 127.915 219.455C125.596 226.609 129.61 232.899 129.61 232.899C129.61 232.899 137.193 254.775 135.933 256.038C134.672 257.3 136.972 261.294 136.972 261.294Z" fill="#565171"/>
<path opacity="0.1" d="M133.341 196.087C131.519 195.826 127.832 193.636 125.94 192.448C125.217 191.995 124.754 191.691 124.754 191.691C124.754 191.691 122.858 186.431 117.804 190.428C116.16 191.762 114.303 192.81 112.311 193.53C111.55 193.799 110.766 193.996 109.968 194.118L110.434 185.8L116.334 182.224L120.981 185.776L123.703 184.738L132.772 191.675C133.161 193.113 133.352 194.597 133.341 196.087Z" fill="black"/>
<path d="M144.74 155.724C143.99 160.238 142.37 169.534 140.552 177.58C138.023 188.728 135.285 186.202 134.024 188.937C132.764 191.671 133.815 195.455 133.815 195.455C131.709 195.665 124.758 191.04 124.758 191.04C124.758 191.04 122.861 185.78 117.808 189.777C112.754 193.774 108.751 193.561 108.751 193.561C107.696 186.62 115.492 168.11 115.492 168.11C115.492 168.11 123.075 153.806 124.758 151.931C125.539 151.005 126.096 149.911 126.386 148.735C126.515 148.267 126.605 147.79 126.655 147.307C129.393 147.098 136.138 142.469 136.138 142.469L141.405 141.629V144.363C141.468 144.391 141.526 144.427 141.579 144.47C142.445 145.129 143.555 147.938 144.294 150.152C144.899 151.944 145.052 153.858 144.74 155.724Z" fill="#E1A0A7"/>
<path d="M120.127 175.477L117.405 175.161L96.5371 172.742C83.8926 168.745 91.9021 162.645 91.9021 162.645L100.327 170.639C102.757 171.125 112.291 169.992 116.563 169.456C117.843 169.29 118.653 169.179 118.653 169.179L120.127 175.477Z" fill="#FDC2CC"/>
<path opacity="0.1" d="M140.552 147.082C140.552 147.082 135.075 142.666 126.844 156.966C118.614 171.267 116.733 168.954 116.733 168.954C116.733 168.954 118.416 175.268 117.574 176.527C117.574 176.527 123.261 176.104 125.367 176.527C127.473 176.949 140.532 160.542 140.532 160.542C140.532 160.542 147.293 151.288 140.552 147.082Z" fill="black"/>
<path opacity="0.1" d="M140.343 146.241C140.343 146.241 134.866 141.826 126.651 156.126C118.436 170.426 116.539 168.114 116.539 168.114C116.539 168.114 123.067 175.264 125.173 175.686C127.279 176.108 140.339 159.701 140.339 159.701C140.339 159.701 147.084 150.448 140.343 146.241Z" fill="black"/>
<path opacity="0.1" d="M117.401 175.173C117.488 173.614 116.899 170.876 116.559 169.455C117.839 169.29 118.649 169.179 118.649 169.179L120.123 175.493L117.401 175.173Z" fill="black"/>
<path d="M140.552 146.66C140.552 146.66 135.075 142.244 126.844 156.548C118.614 170.852 116.733 168.536 116.733 168.536C116.733 168.536 118.416 174.85 117.574 176.108C117.574 176.108 123.261 175.686 125.367 176.108C127.473 176.531 140.532 160.123 140.532 160.123C140.532 160.123 147.293 150.866 140.552 146.66Z" fill="#E1A0A7"/>
<path opacity="0.1" d="M139.094 132.987L128.966 138.87C129.395 139.491 129.791 140.134 130.152 140.796C130.735 140.914 131.328 140.974 131.922 140.973C134.621 140.973 135.874 138.144 137.505 136.238C137.387 134.723 138.628 134.684 139.094 132.987Z" fill="black"/>
<path d="M131.705 140.563C136.591 140.563 140.552 136.608 140.552 131.728C140.552 126.849 136.591 122.893 131.705 122.893C126.818 122.893 122.857 126.849 122.857 131.728C122.857 136.608 126.818 140.563 131.705 140.563Z" fill="#FDC2CC"/>
<path opacity="0.1" d="M120.522 124.582C121.414 123.668 122.574 123.06 123.833 122.846C125.062 122.581 126.41 122.502 127.39 121.717C128.5 120.829 128.998 119.14 130.369 118.762C130.965 118.643 131.582 118.692 132.151 118.904C134.338 119.564 136.28 120.858 137.731 122.621C138.074 123.127 138.511 123.562 139.019 123.903C139.321 124.031 139.617 124.174 139.904 124.333C140.218 124.583 140.466 124.907 140.623 125.276C141.61 127.268 141.838 129.55 141.263 131.696C140.919 132.963 140.303 134.139 139.935 135.402C139.568 136.664 139.477 138.093 140.145 139.221C139.497 139.553 138.679 139.135 138.272 138.531C137.865 137.927 137.742 137.185 137.529 136.487C137.109 135.116 136.319 133.887 135.245 132.936C134.581 132.352 133.396 131.957 132.934 132.711C132.756 133.003 132.768 133.377 132.613 133.681C132.313 134.277 131.428 134.396 130.863 134.076C130.307 133.692 129.916 133.113 129.768 132.454C128.903 129.522 127.421 127.68 124.284 128.93C123.098 129.396 121.735 129.72 120.609 128.93C119.167 127.873 119.455 125.778 120.522 124.582Z" fill="black"/>
<path d="M120.522 124.369C121.414 123.455 122.574 122.847 123.833 122.633C125.062 122.368 126.41 122.289 127.39 121.504C128.5 120.616 128.998 118.927 130.369 118.548C130.965 118.43 131.582 118.479 132.151 118.691C134.338 119.351 136.28 120.644 137.731 122.408C138.074 122.914 138.511 123.349 139.019 123.69C139.321 123.818 139.617 123.961 139.904 124.12C140.218 124.37 140.466 124.694 140.623 125.063C141.61 127.055 141.838 129.337 141.263 131.483C140.919 132.75 140.303 133.926 139.935 135.189C139.568 136.451 139.477 137.88 140.145 139.008C139.497 139.34 138.679 138.921 138.272 138.318C137.865 137.714 137.742 136.972 137.529 136.274C137.109 134.903 136.319 133.674 135.245 132.722C134.581 132.138 133.396 131.744 132.934 132.497C132.756 132.789 132.768 133.164 132.613 133.468C132.313 134.064 131.428 134.182 130.863 133.863C130.307 133.479 129.916 132.9 129.768 132.241C128.903 129.309 127.421 127.466 124.284 128.717C123.098 129.183 121.735 129.506 120.609 128.717C119.167 127.664 119.455 125.568 120.522 124.369Z" fill="#8F5A6A"/>
<path opacity="0.05" d="M141.568 144.454H137.288C137.288 144.454 128.864 148.66 128.654 148.451C128.512 148.309 127.208 148.554 126.382 148.723C126.512 148.256 126.601 147.778 126.651 147.295C129.389 147.086 136.134 142.457 136.134 142.457L141.402 141.617V144.351C141.461 144.378 141.517 144.413 141.568 144.454Z" fill="black"/>
<path opacity="0.3" d="M138.92 267.848C138.907 268.615 138.819 269.379 138.655 270.129C138.655 270.129 121.174 271.391 115.697 270.969C113.062 270.768 111.944 269.785 111.746 268.846C111.505 269.927 112.461 271.352 115.697 271.608C121.174 272.031 138.655 270.768 138.655 270.768C138.861 269.809 138.95 268.828 138.92 267.848Z" fill="white"/>
<g opacity="0.05">
<path opacity="0.05" d="M115.804 189.568C112.963 191.817 110.45 192.725 108.798 193.119C108.798 193.277 108.83 193.431 108.854 193.581C108.854 193.581 112.856 193.79 117.91 189.797C118.693 189.127 119.619 188.644 120.617 188.384C119.515 187.844 117.942 187.879 115.804 189.568Z" fill="black"/>
<path opacity="0.05" d="M144.389 150.132C143.634 147.918 142.539 145.113 141.674 144.45C141.621 144.407 141.563 144.371 141.5 144.343C141.5 144.343 139.758 144.402 139.817 144.45C140.682 145.109 141.528 147.709 142.283 149.919C142.894 151.715 143.052 153.635 142.741 155.506C141.99 160.021 140.37 169.317 138.552 177.363C136.024 188.51 133.285 185.985 132.025 188.72C130.989 190.961 131.507 193.905 131.732 194.895C132.414 195.235 133.16 195.425 133.921 195.451C133.921 195.451 132.866 191.667 134.131 188.933C135.395 186.198 138.134 188.723 140.659 177.576C142.488 169.511 144.096 160.214 144.847 155.719C145.158 153.848 145 151.928 144.389 150.132Z" fill="black"/>
</g>
<path d="M168.868 189.422C169.592 188.832 170.12 188.037 170.381 187.141C170.579 186.234 170.192 185.148 169.322 184.817C168.35 184.446 167.311 185.117 166.525 185.8C165.738 186.482 164.833 187.256 163.802 187.11C164.332 186.63 164.729 186.021 164.953 185.343C165.177 184.664 165.222 183.939 165.082 183.239C165.038 182.948 164.915 182.675 164.727 182.449C164.185 181.873 163.209 182.122 162.561 182.576C160.507 184.02 159.934 186.806 159.922 189.315C159.716 188.412 159.89 187.469 159.882 186.553C159.874 185.638 159.622 184.58 158.839 184.099C158.354 183.839 157.809 183.709 157.259 183.724C156.334 183.688 155.307 183.783 154.674 184.458C153.884 185.294 154.093 186.703 154.777 187.615C155.461 188.526 156.496 189.114 157.452 189.753C158.219 190.208 158.872 190.83 159.365 191.573C159.423 191.675 159.47 191.784 159.507 191.896H165.296C166.593 191.236 167.794 190.404 168.868 189.422Z" fill="#BB0A21"/>
<path d="M179.501 263.515C180.422 262.659 181.287 261.649 181.556 260.422C181.824 259.194 181.299 257.719 180.121 257.265C178.806 256.76 177.395 257.659 176.328 258.595C175.261 259.53 174.036 260.568 172.641 260.37C173.36 259.72 173.897 258.894 174.201 257.975C174.505 257.055 174.565 256.072 174.376 255.122C174.315 254.73 174.148 254.362 173.894 254.057C173.163 253.268 171.835 253.611 170.962 254.226C168.196 256.199 167.406 259.96 167.386 263.361C167.105 262.134 167.343 260.856 167.335 259.597C167.327 258.338 166.983 256.945 165.92 256.267C165.258 255.911 164.514 255.737 163.763 255.761C162.51 255.714 161.115 255.84 160.262 256.756C159.199 257.892 159.471 259.798 160.4 261.049C161.328 262.3 162.731 263.085 164.023 263.949C165.061 264.567 165.945 265.41 166.612 266.416C166.69 266.556 166.755 266.704 166.805 266.857H174.657C176.415 265.967 178.044 264.842 179.501 263.515Z" fill="#BB0A21"/>
</g>
<defs>
<linearGradient id="paint0_linear" x1="317.749" y1="243.379" x2="317.749" y2="109.789" gradientUnits="userSpaceOnUse">
<stop stop-color="#808080" stop-opacity="0.25"/>
<stop offset="0.54" stop-color="#808080" stop-opacity="0.12"/>
<stop offset="1" stop-color="#808080" stop-opacity="0.1"/>
</linearGradient>
<linearGradient id="paint1_linear" x1="22937.2" y1="121120" x2="22937.2" y2="59578.5" gradientUnits="userSpaceOnUse">
<stop stop-color="#808080" stop-opacity="0.25"/>
<stop offset="0.54" stop-color="#808080" stop-opacity="0.12"/>
<stop offset="1" stop-color="#808080" stop-opacity="0.1"/>
</linearGradient>
<clipPath id="clip0">
<rect width="407" height="288" fill="white"/>
</clipPath>
</defs>
</svg>
