<svg width="110" height="110" viewBox="0 0 110 110" fill="none" xmlns="http://www.w3.org/2000/svg">
<path d="M45.8333 59.5832C47.8016 62.2146 50.3128 64.392 53.1966 65.9675C56.0804 67.5431 59.2693 68.48 62.5471 68.7148C65.8248 68.9495 69.1147 68.4766 72.1936 67.3281C75.2725 66.1795 78.0684 64.3823 80.3916 62.0582L94.1416 48.3082C98.316 43.9861 100.626 38.1973 100.574 32.1886C100.521 26.1799 98.1114 20.4321 93.8624 16.1832C89.6135 11.9343 83.8657 9.52415 77.857 9.47194C71.8484 9.41972 66.0596 11.7296 61.7374 15.904L53.8541 23.7416" stroke="white" stroke-width="2" stroke-linecap="round" stroke-linejoin="round"/>
<path d="M64.1666 50.4166C62.1983 47.7852 59.6871 45.6079 56.8033 44.0323C53.9194 42.4568 50.7305 41.5199 47.4528 41.2851C44.1751 41.0504 40.8852 41.5233 37.8063 42.6718C34.7274 43.8203 31.9315 45.6176 29.6083 47.9416L15.8583 61.6916C11.6838 66.0138 9.37395 71.8026 9.42616 77.8113C9.47837 83.8199 11.8885 89.5677 16.1374 93.8167C20.3864 98.0656 26.1342 100.476 32.1428 100.528C38.1515 100.58 43.9403 98.2703 48.2624 94.0958L56.0999 86.2583" stroke="white" stroke-width="2" stroke-linecap="round" stroke-linejoin="round"/>
</svg>
