<svg width="383" height="356" viewBox="0 0 383 356" fill="none" xmlns="http://www.w3.org/2000/svg">
<path d="M371.075 287.622C371.075 309.684 357.99 317.388 341.849 317.388C341.473 317.388 341.099 317.384 340.728 317.374C339.98 317.357 339.239 317.325 338.507 317.272C323.939 316.24 312.621 308.139 312.621 287.622C312.621 266.391 339.686 239.6 341.727 237.611L341.731 237.609C341.808 237.531 341.849 237.493 341.849 237.493C341.849 237.493 371.075 265.559 371.075 287.622Z" fill="#3F3D56"/>
<path d="M340.783 314.012L351.474 299.042L340.756 315.655L340.728 317.374C339.981 317.357 339.239 317.325 338.508 317.272L339.66 295.2L339.651 295.029L339.672 294.996L339.779 292.912L329.036 276.255L339.812 291.348L339.838 291.79L340.71 275.113L331.512 257.903L340.821 272.184L341.727 237.611L341.732 237.493V237.609L341.581 264.872L350.736 254.063L341.543 267.22L341.301 282.152L349.851 267.823L341.264 284.35L341.13 292.651L353.542 272.705L341.084 295.548L340.783 314.012Z" fill="#F2F2F2"/>
<path d="M67.4289 311.339C67.4289 324.558 59.588 329.174 49.9166 329.174C49.6914 329.174 49.4675 329.172 49.2447 329.166C48.7968 329.156 48.3526 329.136 47.9144 329.105C39.185 328.486 32.4031 323.632 32.4031 311.339C32.4031 298.617 48.6203 282.564 49.8435 281.372L49.846 281.371C49.8922 281.324 49.9166 281.301 49.9166 281.301C49.9166 281.301 67.4289 298.118 67.4289 311.339Z" fill="#3F3D56"/>
<path d="M49.2775 327.152L55.6833 318.181L49.2617 328.136L49.2447 329.166C48.7967 329.156 48.3525 329.136 47.9143 329.105L48.6044 315.879L48.5996 315.777L48.6117 315.757L48.6762 314.508L42.2388 304.528L48.6957 313.571L48.7115 313.836L49.2337 303.843L43.7225 293.531L49.3006 302.088L49.8435 281.372L49.8459 281.301V281.371L49.7558 297.707L55.2415 291.23L49.7327 299.114L49.5879 308.061L54.7108 299.475L49.566 309.378L49.4856 314.352L56.9224 302.4L49.4576 316.088L49.2775 327.152Z" fill="#F2F2F2"/>
<g opacity="0.7">
<g opacity="0.1">
<path opacity="0.1" d="M293.085 275.555V284.6V287.615V327.814V330.829V339.371H281.052H277.042V330.829V327.814V287.615V284.6V275.555H281.052H293.085Z" fill="url(#paint0_linear)"/>
</g>
<g opacity="0.1">
<path opacity="0.1" d="M276.04 275.555V284.6V287.615V327.814V330.829V339.371H264.007H259.997V330.829V327.814V287.615V284.6V275.555H264.007H276.04Z" fill="url(#paint1_linear)"/>
</g>
</g>
<path d="M62.6204 322.115H34.3805C30.5386 322.115 27.4241 325.237 27.4241 329.087V333.121C27.4241 336.972 30.5386 340.093 34.3805 340.093H62.6204C66.4623 340.093 69.5768 336.972 69.5768 333.121V329.087C69.5768 325.237 66.4623 322.115 62.6204 322.115Z" fill="#BB0A21"/>
<g opacity="0.7">
<g opacity="0.1">
<path opacity="0.1" d="M106.473 276.043V285.088V288.103V328.302V331.317V339.859H118.506H122.516V331.317V328.302V288.103V285.088V276.043H118.506H106.473Z" fill="url(#paint2_linear)"/>
</g>
<g opacity="0.1">
<path opacity="0.1" d="M123.519 276.043V285.088V288.103V328.302V331.317V339.859H135.551H139.562V331.317V328.302V288.103V285.088V276.043H135.551H123.519Z" fill="url(#paint3_linear)"/>
</g>
<g opacity="0.1">
<path opacity="0.1" d="M171.559 335.705L158.252 285.696L157.477 282.784L155.151 274.044L139.65 278.188L141.976 286.927L142.593 289.247L153.087 328.682L153.862 331.595L156.058 339.848L171.559 335.705Z" fill="url(#paint4_linear)"/>
</g>
</g>
<path d="M123.349 277.603H108.116V338.199H123.349V277.603Z" fill="#535461"/>
<path d="M123.349 286.191H108.116V289.054H123.349V286.191Z" fill="#F5F5F5" fill-opacity="0.6"/>
<path d="M123.349 327.225H108.116V330.088H123.349V327.225Z" fill="#F5F5F5" fill-opacity="0.6"/>
<path opacity="0.1" d="M123.349 277.603H119.541V338.199H123.349V277.603Z" fill="black"/>
<path d="M139.534 277.603H124.301V338.199H139.534V277.603Z" fill="#535461"/>
<path d="M139.534 286.191H124.301V289.054H139.534V286.191Z" fill="#F5F5F5" fill-opacity="0.6"/>
<path d="M139.534 327.225H124.301V330.088H139.534V327.225Z" fill="#F5F5F5" fill-opacity="0.6"/>
<path opacity="0.1" d="M139.534 277.603H135.726V338.199H139.534V277.603Z" fill="black"/>
<path d="M154.337 275.704L139.618 279.639L155.198 338.188L169.917 334.254L154.337 275.704Z" fill="#535461"/>
<path d="M156.545 284.003L141.827 287.938L142.563 290.704L157.282 286.769L156.545 284.003Z" fill="#F5F5F5" fill-opacity="0.6"/>
<path d="M167.096 323.65L152.377 327.585L153.113 330.351L167.832 326.416L167.096 323.65Z" fill="#F5F5F5" fill-opacity="0.6"/>
<path opacity="0.1" d="M154.337 275.704L150.657 276.688L166.237 335.237L169.917 334.254L154.337 275.704Z" fill="black"/>
<path d="M275.809 338.199H291.043V277.603H275.809V338.199Z" fill="#535461"/>
<path d="M275.809 289.054H291.043V286.191H275.809V289.054Z" fill="#F5F5F5" fill-opacity="0.6"/>
<path d="M275.809 330.088H291.043V327.225H275.809V330.088Z" fill="#F5F5F5" fill-opacity="0.6"/>
<path opacity="0.1" d="M275.809 338.199H279.618V277.603H275.809V338.199Z" fill="black"/>
<path d="M259.624 338.199H274.858V277.603H259.624V338.199Z" fill="#535461"/>
<path d="M259.624 289.054H274.858V286.191H259.624V289.054Z" fill="#F5F5F5" fill-opacity="0.6"/>
<path d="M259.624 330.088H274.858V327.225H259.624V330.088Z" fill="#F5F5F5" fill-opacity="0.6"/>
<path opacity="0.1" d="M259.624 338.199H263.433V277.603H259.624V338.199Z" fill="black"/>
<path d="M312.484 309.263H367.713C367.713 309.263 378.609 323.196 361.702 343.908H318.119C318.119 343.908 302.339 329.598 312.484 309.263Z" fill="#FF1F1F"/>
<g opacity="0.1">
<path opacity="0.1" d="M367.713 309.263H312.484C312.358 309.515 312.239 309.766 312.121 310.016H365.835C365.835 310.016 376.463 323.613 360.425 343.908H361.702C378.609 323.196 367.713 309.263 367.713 309.263Z" fill="#BB0A21"/>
</g>
<path d="M383 337.664H0V350.677H383V337.664Z" fill="#535461"/>
<path d="M366.771 350.677H16.2288V356H366.771V350.677Z" fill="#E0E0E0"/>
<path opacity="0.1" d="M366.771 350.677H16.2288V352.451H366.771V350.677Z" fill="black"/>
<path d="M101.858 176.056C101.858 175.183 101.402 174.375 100.653 173.943L80.6389 162.356C80.3011 162.153 79.9176 162.052 79.5341 162.034C79.4976 162.034 79.3515 162.034 79.3241 162.034C78.9406 162.052 78.5663 162.153 78.2193 162.356L58.2144 173.943C57.4657 174.375 57 175.183 57 176.056L57.0457 207.262C57.0457 207.694 57.2739 208.098 57.6483 208.31C58.0226 208.53 58.4791 208.53 58.8535 208.31L70.7414 201.455C71.4901 201.004 71.9467 200.214 71.9467 199.341V184.758C71.9467 183.895 72.4032 183.086 73.1519 182.654L78.2193 179.723C78.5937 179.502 79.0046 179.401 79.4337 179.401C79.8446 179.401 80.2646 179.511 80.6389 179.723L85.6972 182.654C86.4459 183.086 86.9024 183.895 86.9024 184.758V199.341C86.9024 200.214 87.3681 201.004 88.1168 201.455L100.005 208.31C100.379 208.53 100.845 208.53 101.21 208.31C101.575 208.098 101.813 207.694 101.813 207.262L101.849 176.056H101.858ZM208.704 133.153C208.329 132.942 207.873 132.951 207.507 133.171C207.142 133.392 206.914 133.787 206.914 134.219V165.121C206.914 165.425 206.75 165.71 206.494 165.857C206.238 166.004 205.91 166.013 205.645 165.857L200.632 162.953C199.883 162.521 198.961 162.521 198.213 162.953L178.199 174.577C177.45 175.009 176.984 175.817 176.984 176.681V199.939C176.984 200.812 177.441 201.611 178.189 202.043L198.203 213.676C198.952 214.108 199.874 214.108 200.623 213.676L220.646 202.043C221.395 201.602 221.852 200.802 221.852 199.939V141.965C221.852 141.083 221.377 140.274 220.61 139.843L208.694 133.153H208.704ZM206.85 192.302C206.85 192.523 206.74 192.725 206.549 192.826L199.673 196.814C199.491 196.925 199.253 196.925 199.071 196.814L192.196 192.826C192.004 192.716 191.894 192.514 191.894 192.302V184.317C191.894 184.097 192.013 183.895 192.196 183.793L199.071 179.796C199.253 179.686 199.491 179.686 199.673 179.796L206.549 183.793C206.731 183.904 206.85 184.106 206.85 184.317V192.302ZM280.323 184.106C281.063 183.674 281.529 182.875 281.529 182.002V176.369C281.529 175.496 281.072 174.706 280.323 174.264L260.437 162.64C259.688 162.199 258.766 162.199 258.017 162.64L238.003 174.264C237.255 174.696 236.798 175.505 236.798 176.369V199.617C236.798 200.49 237.264 201.299 238.022 201.73L257.908 213.134C258.638 213.557 259.542 213.557 260.282 213.143L272.307 206.417C272.681 206.205 272.919 205.801 272.928 205.36C272.937 204.919 272.699 204.515 272.325 204.294L252.183 192.661C251.809 192.45 251.58 192.045 251.58 191.604V184.317C251.58 183.885 251.809 183.481 252.183 183.261L258.456 179.631C258.83 179.42 259.287 179.42 259.661 179.631L265.934 183.261C266.308 183.481 266.536 183.876 266.536 184.317V190.051C266.536 190.483 266.765 190.887 267.139 191.108C267.513 191.328 267.979 191.319 268.353 191.108L280.332 184.097L280.323 184.106ZM138.262 162.521C139.01 162.089 139.933 162.089 140.681 162.521L160.695 174.145C161.444 174.577 161.901 175.376 161.901 176.249V199.516C161.901 200.389 161.435 201.188 160.695 201.62L140.681 213.253C139.933 213.685 139.01 213.685 138.262 213.253L118.248 201.62C117.499 201.188 117.042 200.38 117.042 199.516V176.249C117.042 175.376 117.499 174.577 118.248 174.145L138.262 162.521ZM319.183 213.584C318.498 213.584 317.804 213.4 317.202 213.051L310.901 209.302C309.961 208.769 310.427 208.585 310.728 208.475C311.979 208.034 312.235 207.933 313.577 207.17C313.714 207.088 313.905 207.124 314.052 207.207L318.891 210.102C319.064 210.203 319.311 210.203 319.475 210.102L338.348 199.139C338.521 199.038 338.631 198.836 338.631 198.625V176.7C338.631 176.488 338.521 176.286 338.339 176.176L319.475 165.223C319.302 165.121 319.064 165.121 318.891 165.223L300.027 176.176C299.844 176.277 299.726 176.488 299.726 176.7V198.625C299.726 198.836 299.844 199.029 300.018 199.13L305.186 202.135C307.989 203.55 309.705 201.887 309.705 200.214V178.574C309.705 178.271 309.952 178.032 310.253 178.032H312.645C312.947 178.032 313.193 178.271 313.193 178.574V200.214C313.193 203.982 311.157 206.141 307.605 206.141C306.519 206.141 305.651 206.141 303.259 204.956L298.31 202.089C297.087 201.381 296.329 200.049 296.329 198.625V176.7C296.329 175.275 297.087 173.943 298.31 173.235L317.183 162.264C318.379 161.584 319.968 161.584 321.146 162.264L340.019 173.235C341.242 173.943 342 175.275 342 176.7V198.625C342 200.049 341.242 201.372 340.019 202.089L321.146 213.051C320.543 213.4 319.858 213.584 319.155 213.584H319.183ZM325.017 198.487C316.754 198.487 315.028 194.673 315.028 191.466C315.028 191.163 315.266 190.924 315.576 190.924H318.014C318.288 190.924 318.516 191.126 318.553 191.393C318.918 193.892 320.014 195.16 325.017 195.16C328.989 195.16 330.687 194.251 330.687 192.137C330.687 190.915 330.212 190.005 324.031 189.399C318.872 188.884 315.677 187.736 315.677 183.582C315.677 179.75 318.891 177.462 324.269 177.462C330.313 177.462 333.308 179.576 333.682 184.106C333.7 184.262 333.646 184.409 333.536 184.529C333.426 184.648 333.289 184.703 333.134 184.703H330.687C330.432 184.703 330.212 184.519 330.158 184.271C329.573 181.643 328.14 180.798 324.269 180.798C319.932 180.798 319.42 182.323 319.42 183.463C319.42 184.85 320.014 185.245 325.876 186.026C331.673 186.798 334.431 187.892 334.431 191.99C334.431 196.125 331.007 198.496 325.026 198.496L325.017 198.487ZM258.921 183.022C259.068 182.939 259.241 182.939 259.387 183.022L263.231 185.255C263.377 185.337 263.468 185.493 263.468 185.659V190.125C263.468 190.29 263.377 190.446 263.231 190.529L259.387 192.762C259.241 192.845 259.068 192.845 258.921 192.762L255.087 190.529C254.941 190.446 254.858 190.29 254.858 190.125V185.659C254.858 185.493 254.95 185.337 255.087 185.255L258.921 183.022Z" fill="#444444"/>
<defs>
<linearGradient id="paint0_linear" x1="-7050.03" y1="50068.3" x2="-7050.03" y2="41717.4" gradientUnits="userSpaceOnUse">
<stop stop-color="#808080" stop-opacity="0.25"/>
<stop offset="0.53514" stop-color="#808080" stop-opacity="0.12"/>
<stop offset="1" stop-color="#808080" stop-opacity="0.1"/>
</linearGradient>
<linearGradient id="paint1_linear" x1="-7594.99" y1="50068.3" x2="-7594.99" y2="41717.4" gradientUnits="userSpaceOnUse">
<stop stop-color="#808080" stop-opacity="0.25"/>
<stop offset="0.53514" stop-color="#808080" stop-opacity="0.12"/>
<stop offset="1" stop-color="#808080" stop-opacity="0.1"/>
</linearGradient>
<linearGradient id="paint2_linear" x1="3881.71" y1="44749.7" x2="3881.71" y2="36398.7" gradientUnits="userSpaceOnUse">
<stop stop-color="#808080" stop-opacity="0.25"/>
<stop offset="0.53514" stop-color="#808080" stop-opacity="0.12"/>
<stop offset="1" stop-color="#808080" stop-opacity="0.1"/>
</linearGradient>
<linearGradient id="paint3_linear" x1="4460.67" y1="44749.7" x2="4460.67" y2="36398.7" gradientUnits="userSpaceOnUse">
<stop stop-color="#808080" stop-opacity="0.25"/>
<stop offset="0.53514" stop-color="#808080" stop-opacity="0.12"/>
<stop offset="1" stop-color="#808080" stop-opacity="0.1"/>
</linearGradient>
<linearGradient id="paint4_linear" x1="10344.5" y1="46131.8" x2="10344.5" y2="37252.4" gradientUnits="userSpaceOnUse">
<stop stop-color="#808080" stop-opacity="0.25"/>
<stop offset="0.53514" stop-color="#808080" stop-opacity="0.12"/>
<stop offset="1" stop-color="#808080" stop-opacity="0.1"/>
</linearGradient>
</defs>
</svg>
