<svg width="391" height="258" viewBox="0 0 391 258" fill="none" xmlns="http://www.w3.org/2000/svg">
<g clip-path="url(#clip0)">
<path d="M270.905 116.721L273.337 115.768C273.569 115.676 273.799 115.577 274.042 115.482C269.543 113.826 265.741 110.687 263.262 106.583C260.782 102.48 259.774 97.6543 260.401 92.901C261.028 88.1478 263.255 83.7495 266.714 80.4293C270.173 77.1091 274.659 75.0647 279.434 74.6322L277.741 83.1712L284.17 74.731H284.227C289.777 75.4939 294.797 78.4298 298.182 82.893C301.568 87.3562 303.042 92.9812 302.28 98.531C302.227 98.9297 302.143 99.3178 302.069 99.7095C304.048 98.1464 305.905 96.4209 307.295 94.4167C310.118 90.3447 311.074 85.3272 312.048 79.184C313.979 67.0176 315.718 54.7171 317.285 42.4236C312.474 40.9722 308.338 37.8524 305.622 33.625C302.905 29.3976 301.785 24.3399 302.464 19.3611C302.552 18.7189 302.676 18.0943 302.817 17.4768C302.852 17.3216 302.887 17.1663 302.926 17.0146C303.078 16.4183 303.247 15.8325 303.445 15.2503C303.477 15.155 303.519 15.0668 303.551 14.9751C303.727 14.4917 303.904 14.0153 304.133 13.5637C304.211 13.3872 304.288 13.2108 304.369 13.045C304.613 12.5404 304.871 12.0464 305.153 11.5665C305.248 11.4077 305.351 11.256 305.446 11.0972C305.665 10.7444 305.894 10.3915 306.13 10.0633C306.257 9.88692 306.381 9.71049 306.512 9.53759L306.607 9.39998C309.603 5.47862 313.879 2.73118 318.691 1.63527C323.503 0.539371 328.547 1.16431 332.946 3.40146L330.744 14.5128L337.096 6.17136C340.513 9.0657 342.915 12.9764 343.951 17.3325C344.987 21.6886 344.603 26.2618 342.855 30.3842H342.88C342.82 30.5254 342.746 30.6594 342.686 30.8006C342.57 31.0617 342.45 31.3193 342.333 31.5769C342.171 31.905 341.98 32.2261 341.821 32.5437C341.687 32.7836 341.557 33.0236 341.412 33.2494C341.204 33.6023 340.978 33.9198 340.752 34.248C340.618 34.4385 340.495 34.6361 340.357 34.8231C340.004 35.3136 339.609 35.7829 339.207 36.2346C339.065 36.3933 338.914 36.538 338.765 36.6933C338.48 36.9967 338.194 37.2966 337.89 37.5825C337.703 37.7589 337.506 37.9353 337.312 38.0976C337.033 38.3446 336.747 38.5846 336.454 38.8033C336.246 38.9692 336.034 39.128 335.822 39.2832C335.515 39.5055 335.205 39.7137 334.891 39.9219C334.679 40.0595 334.467 40.1971 334.252 40.3277C333.899 40.5429 333.529 40.7405 333.158 40.9346C332.971 41.0298 332.805 41.1357 332.597 41.2274C332.039 41.4991 331.468 41.7497 330.885 41.972C330.776 42.0143 330.66 42.0461 330.55 42.0849C330.063 42.2613 329.573 42.4377 329.075 42.5612C328.86 42.6212 328.641 42.6706 328.422 42.7235C328.017 42.8223 327.607 42.9141 327.194 42.9917C326.959 43.034 326.716 43.0729 326.464 43.1082C326.058 43.1681 325.649 43.214 325.236 43.2493C324.992 43.2705 324.752 43.2916 324.505 43.3057C324.061 43.3269 323.612 43.3304 323.164 43.3269C323.135 43.3251 323.105 43.3251 323.076 43.3269C322.413 48.5021 321.716 53.6773 320.987 58.8525C322.698 56.5423 324.864 54.6061 327.35 53.1625C329.836 51.7189 332.592 50.7984 335.446 50.4574C338.301 50.1165 341.196 50.3622 343.952 51.1796C346.709 51.9971 349.269 53.3689 351.477 55.2111L345.943 64.5899L354.84 58.7361C358.203 63.1875 359.663 68.7916 358.898 74.3181C358.637 76.2585 358.102 78.1521 357.31 79.9426C355.612 83.8193 352.787 87.0962 349.203 89.3479C345.619 91.5997 341.441 92.7223 337.211 92.5701C332.981 92.418 328.895 90.9981 325.482 88.4947C322.069 85.9912 319.487 82.5199 318.072 78.5312C317.991 79.0534 317.913 79.5898 317.832 80.1049C316.971 85.5212 315.902 92.2643 312.105 97.7476C309.532 101.474 305.989 104.226 302.545 106.647C300.305 108.223 298.014 109.725 295.671 111.153C293.211 113.433 290.244 115.095 287.014 116.001C283.25 117.927 279.405 119.669 275.479 121.227L273.026 122.186C270.82 123.047 268.562 123.929 266.321 124.868C266.674 124.9 267.027 124.928 267.38 124.974C271.82 125.584 275.952 127.589 279.178 130.7C282.404 133.811 284.557 137.867 285.328 142.281L270.397 150.436L285.282 149.769C284.686 153.069 283.304 156.177 281.252 158.83C277.886 163.187 272.953 166.057 267.502 166.831C262.051 167.605 256.513 166.22 252.068 162.973L252.809 164.352C253.303 165.263 253.79 166.17 254.263 167.069C260.731 179.328 261.201 189.913 255.586 196.882L250.999 193.195C256.465 186.413 252.128 175.633 249.058 169.811C248.592 168.929 248.112 168.047 247.646 167.143C243.493 159.441 238.782 150.711 240.67 141.42C243.493 127.412 258.685 121.484 270.905 116.721Z" fill="#F2F2F2"/>
<path d="M95.1387 183.135L93.2402 182.39C93.0567 182.32 92.8873 182.239 92.6967 182.168C96.2096 180.873 99.1773 178.421 101.112 175.216C103.047 172.011 103.834 168.243 103.344 164.532C102.854 160.82 101.116 157.386 98.415 154.793C95.7144 152.2 92.212 150.602 88.4833 150.263L89.8066 156.932L84.7885 150.341H84.7427C82.595 150.634 80.5261 151.347 78.6542 152.44C76.7824 153.533 75.1442 154.984 73.8334 156.711C72.5225 158.437 71.5647 160.404 71.0146 162.501C70.4644 164.597 70.3328 166.782 70.6271 168.929C70.6695 169.243 70.7365 169.543 70.793 169.85C69.2361 168.68 67.8613 167.285 66.7136 165.711C64.5151 162.535 63.7599 158.612 62.9977 153.816C61.505 144.314 60.1499 134.709 58.9324 125.119C62.6884 123.983 65.9163 121.546 68.036 118.244C70.1556 114.942 71.0281 110.993 70.4966 107.105C70.426 106.604 70.3307 106.117 70.2178 105.634L70.1331 105.281C70.0131 104.815 69.8825 104.357 69.7273 103.912C69.7026 103.838 69.6708 103.767 69.6426 103.697C69.5049 103.319 69.3532 102.949 69.1909 102.585C69.1274 102.451 69.0674 102.314 69.0038 102.18C68.8133 101.788 68.6121 101.403 68.3933 101.029C68.3192 100.902 68.2381 100.782 68.164 100.676C67.9911 100.401 67.8111 100.13 67.6276 99.8684C67.5288 99.7308 67.4335 99.5897 67.3312 99.4556L67.257 99.3497C64.917 96.2876 61.5788 94.1412 57.8216 93.2827C54.0644 92.4242 50.1251 92.9078 46.6872 94.6497L48.4093 103.33L43.4442 96.8162C40.7761 99.0768 38.9005 102.131 38.0911 105.533C37.2817 108.934 37.5808 112.506 38.9448 115.726H38.9272C38.9731 115.835 39.0295 115.941 39.0789 116.05C39.1707 116.255 39.2624 116.456 39.3612 116.657C39.4883 116.911 39.6224 117.162 39.7635 117.409C39.8659 117.599 39.9682 117.786 40.0811 117.97C40.2435 118.234 40.434 118.492 40.5963 118.75C40.7022 118.898 40.7975 119.053 40.9069 119.198C41.1892 119.579 41.4892 119.946 41.8032 120.302C41.9126 120.426 42.0326 120.539 42.1561 120.655C42.3784 120.891 42.6043 121.124 42.8407 121.361C42.9854 121.502 43.1407 121.632 43.2924 121.763C43.5112 121.958 43.7335 122.145 43.9594 122.324C44.1217 122.451 44.2876 122.575 44.4534 122.698C44.6934 122.871 44.9369 123.051 45.1804 123.196C45.3462 123.305 45.5121 123.411 45.6815 123.513C45.9602 123.683 46.2461 123.834 46.5355 123.986C46.6837 124.064 46.8248 124.145 46.973 124.219C47.4106 124.431 47.8553 124.625 48.3105 124.798C48.3952 124.833 48.4869 124.854 48.5716 124.886C48.9492 125.023 49.3339 125.15 49.7256 125.26C49.8914 125.306 50.0785 125.345 50.2337 125.383C50.5513 125.461 50.8689 125.535 51.1936 125.595L51.7617 125.687C52.0793 125.733 52.4005 125.768 52.7216 125.796C52.9121 125.814 53.0992 125.828 53.2933 125.839C53.6462 125.856 53.999 125.86 54.3519 125.856H54.419C54.9365 129.907 55.48 133.954 56.0493 137.998C54.7152 136.191 53.0258 134.676 51.085 133.546C49.1441 132.415 46.9926 131.693 44.7627 131.424C42.5327 131.155 40.2713 131.345 38.1172 131.981C35.9632 132.618 33.962 133.688 32.2364 135.126L36.5205 142.409L29.5757 137.839C28.273 139.56 27.322 141.52 26.7771 143.608C26.2322 145.696 26.1039 147.871 26.3997 150.009C26.6045 151.526 27.024 153.006 27.6454 154.406C28.9719 157.433 31.1777 159.992 33.9766 161.75C36.7756 163.509 40.0384 164.386 43.3419 164.267C46.6453 164.148 49.8368 163.04 52.5024 161.085C55.1679 159.13 57.1844 156.42 58.2902 153.305C58.3537 153.71 58.4137 154.123 58.4772 154.533C59.1477 158.767 59.984 164.031 62.9483 168.322C64.9597 171.23 67.7264 173.379 70.4154 175.27C72.1657 176.503 73.9549 177.679 75.7828 178.798C77.7047 180.579 80.0221 181.878 82.5442 182.588C85.4802 184.091 88.4868 185.46 91.5569 186.667L93.4696 187.419C95.1917 188.089 96.9561 188.777 98.6958 189.511C98.4206 189.536 98.1418 189.557 97.863 189.596C94.3969 190.071 91.1714 191.635 88.652 194.062C86.1326 196.489 84.4498 199.654 83.8463 203.099L95.4916 209.451L83.8675 208.932C84.3792 211.674 85.5775 214.241 87.3503 216.395C89.1231 218.548 91.4128 220.217 94.0055 221.246C96.5982 222.275 99.4093 222.63 102.176 222.279C104.944 221.927 107.577 220.88 109.829 219.235C109.635 219.588 109.445 219.941 109.251 220.312C108.866 221.017 108.485 221.723 108.114 222.429C103.065 232.002 102.698 240.273 107.084 245.717L110.659 242.838C106.389 237.545 109.777 229.122 112.176 224.574C112.529 223.886 112.914 223.191 113.291 222.492C116.534 216.494 120.211 209.659 118.747 202.401C116.556 191.484 104.681 186.868 95.1387 183.135Z" fill="#F2F2F2"/>
<path d="M195.5 258C303.472 258 391 254.288 391 249.708C391 245.128 303.472 241.416 195.5 241.416C87.5283 241.416 0 245.128 0 249.708C0 254.288 87.5283 258 195.5 258Z" fill="#3F3D56"/>
<path opacity="0.1" d="M195.5 258C303.472 258 391 254.288 391 249.708C391 245.128 303.472 241.416 195.5 241.416C87.5283 241.416 0 245.128 0 249.708C0 254.288 87.5283 258 195.5 258Z" fill="black"/>
<path d="M195.5 253.413C303.472 253.413 391 249.7 391 245.121C391 240.541 303.472 236.829 195.5 236.829C87.5283 236.829 0 240.541 0 245.121C0 249.7 87.5283 253.413 195.5 253.413Z" fill="#3F3D56"/>
<path d="M29.9953 242.171C28.9367 240.227 30.1365 237.845 31.5057 236.109C32.8749 234.373 34.544 232.58 34.5088 230.361C34.4594 227.185 31.0857 225.312 28.3932 223.628C26.3954 222.378 24.5523 220.897 22.9023 219.214C22.2126 218.566 21.6417 217.801 21.2155 216.956C20.6579 215.714 20.6755 214.303 20.7108 212.941C20.8285 208.41 21.052 203.884 21.3813 199.363" stroke="#3F3D56" stroke-width="4" stroke-miterlimit="10"/>
<path d="M16.2715 199.112C16.3096 198.283 16.5559 197.477 16.9876 196.769C17.4193 196.06 18.0226 195.472 18.7417 195.058L19.8498 197.249L19.818 194.596C20.3465 194.438 20.8977 194.371 21.4484 194.398C22.4234 194.446 23.3625 194.781 24.147 195.362C24.9316 195.943 25.5264 196.743 25.8565 197.662C26.1866 198.58 26.2371 199.576 26.0016 200.524C25.7662 201.471 25.2553 202.327 24.5336 202.984C23.8118 203.642 22.9115 204.07 21.9462 204.216C20.981 204.362 19.9942 204.219 19.1102 203.805C18.2263 203.391 17.4849 202.724 16.9797 201.889C16.4745 201.053 16.228 200.087 16.2715 199.112Z" fill="#BB0A21"/>
<path d="M25.1046 232.633C25.5968 233.613 26.4007 234.401 27.3899 234.873C28.3791 235.346 29.4973 235.476 30.5685 235.243C31.6397 235.01 32.6031 234.428 33.3069 233.587C34.0107 232.747 34.415 231.696 34.4561 230.601C34.4914 229.917 34.382 229.232 34.135 228.593C33.78 227.647 33.1436 226.833 32.3115 226.26C31.4794 225.687 30.4917 225.383 29.4814 225.389C28.4711 225.395 27.4869 225.71 26.6614 226.292C25.8359 226.875 25.2088 227.696 24.8646 228.646L27.9595 231.162L24.5576 230.372C24.5557 231.158 24.7433 231.934 25.1046 232.633Z" fill="#BB0A21"/>
<path d="M27.55 223.018C28.7841 223.111 30.0083 222.738 30.9804 221.972C31.9525 221.206 32.6017 220.104 32.7996 218.882C32.9974 217.66 32.7295 216.409 32.0488 215.375C31.3682 214.342 30.3244 213.601 29.1239 213.3L29.1486 215.344L28.0264 213.124C26.7137 213.063 25.4305 213.525 24.459 214.41C23.4875 215.295 22.9073 216.529 22.846 217.842C22.7847 219.154 23.2473 220.437 24.1321 221.409C25.017 222.38 26.2515 222.96 27.5641 223.022L27.55 223.018Z" fill="#BB0A21"/>
<path d="M15.5269 215.019C16.1757 215.049 16.8242 214.952 17.4353 214.732C18.0464 214.512 18.6082 214.174 19.0886 213.737C19.5689 213.299 19.9585 212.772 20.2351 212.184C20.5116 211.597 20.6697 210.96 20.7003 210.312C20.7309 209.663 20.6334 209.015 20.4133 208.403C20.1933 207.792 19.8551 207.231 19.4179 206.75C18.9808 206.27 18.4533 205.881 17.8656 205.604C17.2779 205.327 16.6415 205.169 15.9927 205.139C15.0665 205.093 14.1463 205.311 13.339 205.767L14.2142 208.166L12.4109 206.437C11.4465 207.321 10.8716 208.55 10.8123 209.856C10.7884 210.313 10.8312 210.771 10.9394 211.215C11.1857 212.262 11.767 213.2 12.595 213.886C13.423 214.573 14.4524 214.97 15.5269 215.019Z" fill="#BB0A21"/>
<path opacity="0.1" d="M16.9388 200.432C18.0821 200.559 19.1937 200.915 20.3406 200.986C21.4875 201.056 22.7473 200.781 23.4743 199.892C23.866 199.408 24.0601 198.802 24.3882 198.279C24.7026 197.792 25.1314 197.388 25.6375 197.104C25.9363 197.729 26.1005 198.409 26.1194 199.101C26.1382 199.794 26.0114 200.482 25.7471 201.122C25.4828 201.762 25.0869 202.339 24.5851 202.816C24.0833 203.293 23.4868 203.66 22.8343 203.891C22.1818 204.123 21.4879 204.215 20.7975 204.161C20.1072 204.108 19.4358 203.909 18.827 203.58C18.2182 203.25 17.6856 202.796 17.2636 202.247C16.8417 201.698 16.5398 201.066 16.3777 200.393C16.5647 200.4 16.7517 200.414 16.9388 200.432Z" fill="black"/>
<path opacity="0.1" d="M15.5272 215.019C16.3813 215.062 17.2321 214.883 17.9963 214.499C18.7604 214.115 19.4118 213.539 19.8866 212.828C20.3614 212.116 20.6435 211.294 20.7051 210.441C20.7667 209.588 20.6059 208.734 20.2382 207.962C19.8451 208.227 19.5071 208.566 19.2431 208.96C18.8902 209.493 18.6749 210.107 18.262 210.597C17.4892 211.504 16.1729 211.801 14.9767 211.744C13.7804 211.688 12.6264 211.353 11.4478 211.243C11.2819 211.243 11.1161 211.215 10.9502 211.211C11.1953 212.257 11.7748 213.195 12.6007 213.882C13.4266 214.569 14.454 214.968 15.5272 215.019Z" fill="black"/>
<path opacity="0.1" d="M27.55 223.018C28.3965 223.062 29.24 222.886 29.9993 222.51C30.7586 222.133 31.4082 221.567 31.8856 220.867C32.363 220.167 32.6522 219.355 32.7254 218.511C32.7986 217.667 32.6532 216.818 32.3034 216.046C31.8919 216.313 31.5331 216.654 31.2447 217.051C30.8601 217.595 30.6201 218.219 30.1861 218.72C29.3532 219.652 27.9488 219.98 26.6819 219.948C25.415 219.916 24.2752 219.62 23.0542 219.528C23.3522 220.503 23.9442 221.361 24.749 221.986C25.5539 222.61 26.5322 222.971 27.55 223.018Z" fill="black"/>
<path opacity="0.1" d="M25.1045 232.633C25.5966 233.613 26.4006 234.401 27.3898 234.873C28.379 235.346 29.4972 235.476 30.5684 235.243C31.6396 235.01 32.603 234.428 33.3068 233.587C34.0106 232.747 34.4149 231.696 34.456 230.601C34.4913 229.917 34.3818 229.232 34.1349 228.593C33.7269 228.86 33.3606 229.186 33.048 229.56C32.5751 230.135 32.2681 230.784 31.7211 231.324C30.7084 232.319 29.0745 232.736 27.6206 232.767C26.78 232.771 25.9399 232.726 25.1045 232.633Z" fill="black"/>
<path d="M37.4732 239.934C37.4732 239.934 33.5632 239.814 32.388 238.974C31.2129 238.134 26.3889 237.132 26.0819 238.48C25.7749 239.828 20.2063 245.184 24.621 245.206C29.0356 245.227 34.8759 244.5 36.051 243.794C37.2261 243.088 37.4732 239.934 37.4732 239.934Z" fill="#656380"/>
<path opacity="0.2" d="M24.5397 244.736C28.9544 244.772 34.7947 244.031 35.9733 243.325C36.8661 242.781 37.2225 240.823 37.3425 239.92H37.4731C37.4731 239.92 37.2261 243.071 36.0615 243.801C34.897 244.532 29.0426 245.241 24.6315 245.213C23.3576 245.213 22.9165 244.75 22.9412 244.076C23.107 244.475 23.594 244.736 24.5397 244.736Z" fill="black"/>
<path d="M372.297 245.347C371.238 243.402 372.438 241.021 373.807 239.285C375.177 237.549 376.846 235.756 376.811 233.537C376.761 230.361 373.388 228.487 370.695 226.804C368.697 225.554 366.854 224.072 365.204 222.39C364.514 221.741 363.943 220.977 363.517 220.132C362.96 218.89 362.977 217.478 363.013 216.116C363.128 211.586 363.351 207.06 363.683 202.538" stroke="#3F3D56" stroke-width="4" stroke-miterlimit="10"/>
<path d="M358.573 202.288C358.611 201.459 358.858 200.653 359.289 199.945C359.721 199.236 360.324 198.648 361.043 198.234L362.151 200.425L362.12 197.771C362.648 197.614 363.199 197.547 363.75 197.574C364.725 197.622 365.664 197.958 366.448 198.539C367.232 199.121 367.826 199.921 368.156 200.84C368.485 201.758 368.535 202.754 368.299 203.701C368.063 204.648 367.552 205.504 366.83 206.161C366.109 206.818 365.208 207.246 364.243 207.392C363.278 207.538 362.291 207.395 361.408 206.98C360.524 206.566 359.783 205.899 359.278 205.064C358.773 204.229 358.526 203.263 358.57 202.288H358.573Z" fill="#BB0A21"/>
<path d="M367.406 235.809C367.898 236.788 368.702 237.576 369.691 238.049C370.68 238.521 371.799 238.651 372.87 238.419C373.941 238.186 374.904 237.603 375.608 236.763C376.312 235.922 376.716 234.872 376.757 233.777C376.793 233.092 376.683 232.408 376.436 231.769C376.081 230.823 375.445 230.009 374.613 229.436C373.781 228.863 372.793 228.559 371.783 228.565C370.772 228.57 369.788 228.886 368.963 229.468C368.137 230.051 367.51 230.872 367.166 231.822L370.261 234.338L366.859 233.547C366.857 234.334 367.045 235.11 367.406 235.809Z" fill="#BB0A21"/>
<path d="M369.851 226.194C371.086 226.287 372.31 225.914 373.282 225.148C374.254 224.382 374.903 223.279 375.101 222.058C375.299 220.836 375.031 219.585 374.35 218.551C373.67 217.517 372.626 216.777 371.425 216.476L371.45 218.519L370.328 216.3C369.015 216.238 367.732 216.701 366.761 217.586C365.789 218.47 365.209 219.705 365.147 221.017C365.086 222.33 365.549 223.613 366.434 224.584C367.318 225.556 368.553 226.136 369.866 226.197L369.851 226.194Z" fill="#BB0A21"/>
<path d="M357.828 218.194C359.139 218.256 360.42 217.795 361.39 216.912C362.36 216.029 362.94 214.798 363.002 213.487C363.064 212.177 362.602 210.896 361.719 209.926C360.837 208.956 359.605 208.376 358.294 208.315C357.368 208.268 356.448 208.486 355.641 208.943L356.516 211.342L354.712 209.613C353.748 210.496 353.173 211.726 353.114 213.032C353.09 213.489 353.133 213.946 353.241 214.391C353.487 215.438 354.068 216.376 354.896 217.062C355.724 217.749 356.754 218.146 357.828 218.194Z" fill="#BB0A21"/>
<path opacity="0.1" d="M359.24 203.607C360.383 203.734 361.495 204.091 362.642 204.161C363.789 204.232 365.049 203.957 365.776 203.068C366.167 202.584 366.361 201.977 366.69 201.455C367.004 200.967 367.433 200.564 367.939 200.28C368.238 200.905 368.402 201.585 368.421 202.277C368.44 202.969 368.313 203.658 368.049 204.298C367.784 204.937 367.388 205.515 366.886 205.992C366.385 206.469 365.788 206.835 365.136 207.067C364.483 207.299 363.789 207.391 363.099 207.337C362.409 207.283 361.737 207.085 361.128 206.755C360.52 206.425 359.987 205.971 359.565 205.422C359.143 204.873 358.841 204.242 358.679 203.569C358.866 203.576 359.053 203.59 359.24 203.607Z" fill="black"/>
<path opacity="0.1" d="M357.828 218.195C358.683 218.238 359.533 218.059 360.298 217.675C361.062 217.291 361.713 216.715 362.188 216.003C362.663 215.292 362.945 214.47 363.006 213.617C363.068 212.764 362.907 211.91 362.539 211.137C362.146 211.403 361.808 211.742 361.544 212.136C361.191 212.669 360.976 213.283 360.563 213.773C359.79 214.68 358.474 214.976 357.278 214.92C356.082 214.864 354.928 214.528 353.749 214.419C353.583 214.419 353.417 214.391 353.251 214.387C353.497 215.433 354.076 216.371 354.902 217.058C355.728 217.745 356.755 218.144 357.828 218.195Z" fill="black"/>
<path opacity="0.1" d="M369.851 226.194C370.698 226.237 371.541 226.062 372.301 225.685C373.06 225.309 373.709 224.743 374.187 224.043C374.664 223.342 374.954 222.531 375.027 221.687C375.1 220.842 374.955 219.993 374.605 219.221C374.193 219.489 373.834 219.83 373.546 220.227C373.161 220.77 372.921 221.395 372.487 221.896C371.655 222.827 370.25 223.156 368.983 223.124C367.716 223.092 366.576 222.796 365.355 222.704C365.653 223.678 366.246 224.536 367.05 225.161C367.855 225.786 368.833 226.147 369.851 226.194Z" fill="black"/>
<path opacity="0.1" d="M367.406 235.809C367.898 236.788 368.702 237.576 369.691 238.049C370.68 238.521 371.798 238.651 372.87 238.418C373.941 238.186 374.904 237.603 375.608 236.763C376.312 235.922 376.716 234.872 376.757 233.777C376.793 233.092 376.683 232.408 376.436 231.769C376.028 232.036 375.662 232.361 375.349 232.736C374.876 233.311 374.569 233.96 374.022 234.5C373.01 235.495 371.376 235.911 369.922 235.943C369.081 235.946 368.241 235.902 367.406 235.809Z" fill="black"/>
<path d="M379.775 243.11C379.775 243.11 375.865 242.99 374.69 242.15C373.514 241.31 368.69 240.308 368.383 241.656C368.076 243.004 362.508 248.36 366.922 248.381C371.337 248.402 377.177 247.675 378.352 246.97C379.528 246.264 379.775 243.11 379.775 243.11Z" fill="#656380"/>
<path opacity="0.2" d="M366.841 247.912C371.256 247.947 377.096 247.206 378.275 246.5C379.168 245.957 379.524 243.999 379.644 243.095H379.775C379.775 243.095 379.528 246.246 378.363 246.977C377.198 247.707 371.344 248.416 366.933 248.388C365.659 248.388 365.218 247.926 365.243 247.252C365.409 247.651 365.896 247.912 366.841 247.912Z" fill="black"/>
<path d="M263.103 116.848C260.769 116.048 258.417 115.307 256.045 114.625C256.436 113.027 256.799 111.422 257.136 109.808C262.478 83.8699 258.985 62.9739 247.054 56.0968C235.613 49.4984 216.903 56.3791 198.002 72.8185C196.139 74.4464 194.319 76.1166 192.543 77.8291C191.35 76.6882 190.139 75.5696 188.908 74.4734C169.108 56.8907 149.272 49.4843 137.337 56.3826C125.907 62.9986 122.516 82.642 127.333 107.225C127.803 109.66 128.343 112.081 128.953 114.487C126.147 115.285 123.433 116.135 120.836 117.042C97.6196 125.119 82.7913 137.821 82.7913 150.979C82.7913 164.568 98.71 178.198 122.893 186.462C124.856 187.128 126.832 187.747 128.822 188.318C128.177 190.906 127.603 193.515 127.1 196.145C122.512 220.301 126.098 239.482 137.496 246.056C149.272 252.852 169.034 245.865 188.273 229.048C189.794 227.718 191.318 226.307 192.861 224.832C194.785 226.688 196.76 228.49 198.786 230.237C217.425 246.275 235.839 252.753 247.223 246.158C258.985 239.352 262.807 218.745 257.845 193.678C257.468 191.763 257.03 189.81 256.529 187.817C257.919 187.408 259.279 186.983 260.608 186.543C285.748 178.216 302.108 164.751 302.108 150.979C302.108 137.772 286.799 125.002 263.114 116.848H263.103Z" fill="#53C1DE"/>
<path d="M257.651 177.652C256.451 178.05 255.223 178.431 253.967 178.805C250.902 169.303 247.191 160.022 242.861 151.025C247.026 142.149 250.592 133.003 253.536 123.651C255.777 124.3 257.958 124.985 260.054 125.708C280.349 132.691 292.728 143.019 292.728 150.979C292.728 159.448 279.357 170.46 257.651 177.652ZM248.645 195.499C250.84 206.582 251.151 216.603 249.704 224.433C248.398 231.472 245.773 236.165 242.526 238.046C235.613 242.044 220.834 236.846 204.894 223.131C203.066 221.557 201.228 219.881 199.378 218.103C206.024 210.746 212.165 202.949 217.76 194.765C227.755 193.918 237.679 192.386 247.463 190.178C247.91 191.984 248.306 193.749 248.652 195.471L248.645 195.499ZM157.558 237.362C150.803 239.747 145.425 239.814 142.175 237.94C135.259 233.949 132.383 218.533 136.307 197.891C136.777 195.452 137.31 193.025 137.905 190.612C147.649 192.704 157.523 194.134 167.46 194.892C173.218 203.047 179.508 210.815 186.286 218.145C184.924 219.465 183.531 220.748 182.108 221.995C173.6 229.433 165.071 234.697 157.558 237.362ZM125.925 177.599C115.229 173.943 106.399 169.194 100.344 164.014C94.9059 159.356 92.1604 154.73 92.1604 150.979C92.1604 142.994 104.067 132.807 123.92 125.888C126.414 125.02 128.93 124.228 131.469 123.513C134.418 132.969 137.988 142.22 142.158 151.205C137.936 160.319 134.322 169.702 131.338 179.292C129.517 178.772 127.713 178.208 125.925 177.599ZM136.529 105.426C132.407 84.3639 135.142 68.4749 142.031 64.4947C149.367 60.2605 165.589 66.3013 182.69 81.4846C183.784 82.455 184.882 83.4712 185.979 84.5192C179.249 91.8043 173.009 99.5276 167.301 107.638C157.458 108.521 147.682 110.04 138.036 112.186C137.474 109.947 136.971 107.695 136.529 105.429V105.426ZM231.142 128.781C228.999 125.079 226.777 121.423 224.476 117.815C231.474 118.7 238.175 119.872 244.47 121.311C242.45 127.719 240.108 134.021 237.451 140.193C235.426 136.346 233.323 132.543 231.142 128.781ZM192.55 91.2128C197.111 96.1845 201.418 101.383 205.455 106.788C196.819 106.381 188.179 106.381 179.535 106.788C183.795 101.17 188.16 95.9481 192.55 91.2164V91.2128ZM153.732 128.845C151.58 132.578 149.515 136.358 147.539 140.185C144.811 133.718 142.479 127.356 140.573 121.213C146.83 119.801 153.503 118.668 160.455 117.797C158.121 121.429 155.878 125.112 153.725 128.845H153.732ZM160.652 184.825C153.867 184.089 147.124 183.004 140.45 181.575C142.387 175.326 144.772 168.827 147.56 162.218C149.544 166.05 151.615 169.832 153.775 173.565C155.972 177.374 158.262 181.127 160.645 184.825H160.652ZM192.815 211.406C188.368 206.628 183.94 201.335 179.62 195.615C183.82 195.782 188.097 195.866 192.451 195.866C196.921 195.866 201.333 195.767 205.688 195.569C201.668 201.065 197.369 206.351 192.808 211.406H192.815ZM237.522 161.882C240.316 168.179 242.78 174.617 244.904 181.169C238.148 182.69 231.316 183.855 224.437 184.659C226.754 180.982 228.999 177.262 231.17 173.498C233.377 169.674 235.494 165.802 237.522 161.882ZM223.054 168.82C219.732 174.588 216.225 180.245 212.534 185.792C206.027 186.258 199.304 186.498 192.451 186.498C185.598 186.498 178.989 186.286 172.594 185.87C168.809 180.341 165.234 174.676 161.87 168.873C158.506 163.069 155.387 157.179 152.515 151.202C155.401 145.196 158.51 139.303 161.842 133.524C165.168 127.746 168.712 122.101 172.474 116.587C178.999 116.093 185.683 115.835 192.444 115.835C199.205 115.835 205.932 116.096 212.449 116.59C216.169 122.088 219.698 127.711 223.036 133.46C226.374 139.209 229.526 145.075 232.49 151.057C229.561 157.084 226.419 163 223.064 168.805L223.054 168.82ZM242.381 64.2124C249.725 68.4467 252.58 85.5248 247.968 107.92C247.664 109.377 247.335 110.829 246.979 112.278C237.319 110.088 227.523 108.541 217.658 107.645C212.005 99.5273 205.812 91.7989 199.121 84.5121C200.768 82.9266 202.449 81.3847 204.164 79.8862C220.354 65.7967 235.486 60.2358 242.381 64.2124Z" fill="white"/>
<path d="M192.444 131.396C196.318 131.396 200.104 132.545 203.325 134.696C206.546 136.848 209.056 139.907 210.538 143.485C212.021 147.064 212.409 151.001 211.653 154.8C210.897 158.599 209.032 162.088 206.293 164.827C203.554 167.566 200.064 169.431 196.265 170.187C192.466 170.942 188.528 170.554 184.949 169.072C181.37 167.59 178.311 165.08 176.159 161.859C174.007 158.639 172.859 154.853 172.859 150.979C172.858 148.408 173.364 145.861 174.349 143.485C175.333 141.108 176.775 138.949 178.594 137.131C180.413 135.312 182.572 133.87 184.948 132.886C187.325 131.902 189.872 131.396 192.444 131.396Z" fill="#53C1DE"/>
<path d="M197.356 7.19827C197.356 8.35675 197.013 9.48921 196.369 10.4525C195.725 11.4157 194.81 12.1665 193.74 12.6098C192.67 13.0531 191.492 13.1691 190.355 12.9431C189.219 12.7171 188.175 12.1592 187.356 11.3401C186.537 10.5209 185.979 9.47721 185.753 8.34099C185.527 7.20477 185.643 6.02704 186.086 4.95675C186.53 3.88645 187.281 2.97165 188.244 2.32804C189.207 1.68442 190.34 1.34089 191.498 1.34089C192.269 1.33715 193.032 1.4861 193.744 1.77914C194.457 2.07218 195.104 2.50349 195.649 3.04814C196.194 3.59279 196.625 4.23999 196.918 4.95233C197.211 5.66467 197.36 6.42802 197.356 7.19827Z" fill="#3F3D56"/>
<path d="M186.819 8.67667C186.355 7.83764 186.103 6.89755 186.087 5.93876C186.07 4.97997 186.289 4.03173 186.724 3.17713C187.159 2.32252 187.797 1.58761 188.582 1.03678C189.367 0.485955 190.275 0.136018 191.227 0.0176268C190.42 -0.0106338 189.615 0.128262 188.865 0.425593C188.114 0.722924 187.432 1.17227 186.864 1.7454C186.295 2.31854 185.851 3.00309 185.559 3.75607C185.267 4.50905 185.134 5.31419 185.169 6.12093C185.203 6.92767 185.404 7.71859 185.759 8.44402C186.114 9.16944 186.614 9.8137 187.23 10.3363C187.846 10.859 188.563 11.2487 189.336 11.4811C190.109 11.7134 190.922 11.7834 191.724 11.6865C190.717 11.6493 189.736 11.3527 188.876 10.8254C188.017 10.2982 187.308 9.55803 186.819 8.67667Z" fill="#3F3D56"/>
<path d="M199.869 15.3562H184.176V39.8337H199.869V15.3562Z" fill="#3F3D56"/>
<path opacity="0.1" d="M199.869 15.3562H184.176V39.8337H199.869V15.3562Z" fill="black"/>
<path d="M159.385 104.163C159.385 104.163 157.709 108.767 153.739 109.395C149.769 110.024 147.461 111.068 147.461 111.068L156.876 117.134L161.898 116.505C161.898 116.505 162.526 110.02 164.619 108.556C166.711 107.091 159.385 104.163 159.385 104.163Z" fill="#A0616A"/>
<path d="M227.38 104.163C227.38 104.163 229.056 108.767 233.026 109.395C236.996 110.024 239.304 111.068 239.304 111.068L229.889 117.134L224.867 116.505C224.867 116.505 224.239 110.02 222.146 108.556C220.054 107.091 227.38 104.163 227.38 104.163Z" fill="#A0616A"/>
<path d="M181.561 63.5773C181.561 63.5773 179.052 64.8334 178.216 67.3458C178.216 67.3458 173.628 68.8101 171.101 72.7832C171.101 72.7832 167.961 76.1318 167.544 77.8044C167.128 79.4769 162.329 89.5191 162.329 89.5191C162.329 89.5191 157.515 105.211 155.006 106.883C155.006 106.883 162.957 105.211 164.421 113.16C164.421 113.16 166.302 113.16 168.395 105.839C170.487 98.5169 175.509 89.5191 175.509 89.5191C175.509 89.5191 177.182 83.2454 178.646 82.1974C180.111 81.1494 182.411 76.34 184.504 77.6103C186.597 78.8806 200.405 77.3986 200.405 77.3986C200.405 77.3986 208.557 81.1529 208.762 83.6617C208.966 86.1705 210.434 86.3822 210.642 88.4747C210.851 90.5671 218.593 107.091 218.593 107.091C218.593 107.091 220.058 111.678 220.477 112.737C220.477 112.737 225.065 101.65 231.149 107.928C231.149 107.928 230.937 103.743 229.056 101.223C227.175 98.7039 219.013 79.0499 219.013 79.0499C219.013 79.0499 218.177 76.1212 217.34 75.285C216.504 74.4487 210.014 67.7515 207.713 67.7515C207.713 67.7515 206.461 64.6147 204.996 64.1948L181.561 63.5773Z" fill="#3F3D56"/>
<path d="M162.731 115.041C161.097 115.697 159.32 115.919 157.575 115.684C155.83 115.45 154.175 114.768 152.772 113.704C151.409 112.657 149.915 111.791 148.329 111.128C146.11 110.232 143.456 109.568 142.648 111.068C141.183 113.788 160.43 120.482 160.43 120.482C160.43 120.482 162.942 119.018 162.731 115.041Z" fill="#3F3D56"/>
<path d="M224.034 115.041C225.668 115.697 227.445 115.919 229.19 115.684C230.935 115.45 232.59 114.768 233.993 113.704C235.356 112.657 236.85 111.791 238.436 111.128C240.655 110.232 243.309 109.568 244.117 111.068C245.582 113.788 226.335 120.482 226.335 120.482C226.335 120.482 223.823 119.018 224.034 115.041Z" fill="#3F3D56"/>
<path d="M188.4 29.1706C188.322 29.8975 188.082 30.6843 187.461 31.0689C186.953 31.3865 186.311 31.3618 185.725 31.4818C185.11 31.6358 184.54 31.9322 184.06 32.3472C183.581 32.7621 183.206 33.284 182.965 33.8706C182.496 35.0545 182.403 36.3547 182.701 37.5932C182.839 38.1997 183.018 38.7962 183.237 39.3786C183.851 41.1147 184.592 42.8366 185.739 44.2798C186.718 45.4271 187.818 46.4647 189.021 47.3743C189.766 47.9812 190.535 48.5987 191.452 48.8845C192.075 49.0488 192.715 49.1341 193.358 49.1386C194.152 49.1739 194.999 49.1986 195.687 48.8034C196.746 48.193 197.06 46.8451 197.635 45.7618C198.122 44.8444 198.849 44.0646 199.304 43.1295C199.628 42.3925 199.865 41.6205 200.01 40.8289L200.987 36.4888C201.34 34.9115 201.665 33.1331 200.779 31.7817C200.715 31.6717 200.625 31.5786 200.518 31.51C200.348 31.4428 200.162 31.4245 199.982 31.4571C198.857 31.5302 197.735 31.2739 196.753 30.7196C196.599 30.64 196.461 30.5323 196.347 30.402C196.206 30.176 196.121 29.9195 196.1 29.654C196.005 29.1163 195.853 28.59 195.648 28.0838C195.591 27.9013 195.484 27.7379 195.341 27.611C195.191 27.5168 195.02 27.4599 194.844 27.4451C193.333 27.2 191.81 27.041 190.281 26.9688C189.78 26.9441 189.025 26.7429 188.679 27.1875C188.333 27.6321 188.442 28.6413 188.4 29.1706Z" fill="#A0616A"/>
<path opacity="0.1" d="M188.4 29.1706C188.322 29.8975 188.082 30.6843 187.461 31.0689C186.953 31.3865 186.311 31.3618 185.725 31.4818C185.11 31.6358 184.54 31.9322 184.06 32.3472C183.581 32.7621 183.206 33.284 182.965 33.8706C182.496 35.0545 182.403 36.3547 182.701 37.5932C182.839 38.1997 183.018 38.7962 183.237 39.3786C183.851 41.1147 184.592 42.8366 185.739 44.2798C186.718 45.4271 187.818 46.4647 189.021 47.3743C189.766 47.9812 190.535 48.5987 191.452 48.8845C192.075 49.0488 192.715 49.1341 193.358 49.1386C194.152 49.1739 194.999 49.1986 195.687 48.8034C196.746 48.193 197.06 46.8451 197.635 45.7618C198.122 44.8444 198.849 44.0646 199.304 43.1295C199.628 42.3925 199.865 41.6205 200.01 40.8289L200.987 36.4888C201.34 34.9115 201.665 33.1331 200.779 31.7817C200.715 31.6717 200.625 31.5786 200.518 31.51C200.348 31.4428 200.162 31.4245 199.982 31.4571C198.857 31.5302 197.735 31.2739 196.753 30.7196C196.599 30.64 196.461 30.5323 196.347 30.402C196.206 30.176 196.121 29.9195 196.1 29.654C196.005 29.1163 195.853 28.59 195.648 28.0838C195.591 27.9013 195.484 27.7379 195.341 27.611C195.191 27.5168 195.02 27.4599 194.844 27.4451C193.333 27.2 191.81 27.041 190.281 26.9688C189.78 26.9441 189.025 26.7429 188.679 27.1875C188.333 27.6321 188.442 28.6413 188.4 29.1706Z" fill="black"/>
<path d="M185.566 31.6652C184.749 31.4212 183.903 31.2882 183.05 31.27C181.032 31.2206 178.872 31.9157 177.707 33.5635C176.914 34.753 176.623 36.2079 176.899 37.6108C177.18 39.0005 177.812 40.2953 178.734 41.3722C179.267 41.9383 179.74 42.5579 180.146 43.2212C180.703 44.2797 180.721 45.5465 180.873 46.7497C181.226 49.6149 182.447 52.3072 182.93 55.1547C183.414 58.0022 182.997 61.3014 180.749 63.1116C180.372 63.415 179.913 63.7361 179.881 64.2195C179.832 64.9923 180.837 65.3204 181.61 65.3945C183.922 65.6133 186.293 65.8285 188.538 65.2322C189.466 64.9852 190.362 64.6006 191.308 64.4242C193.707 63.9761 196.121 64.897 198.524 65.3381C200.263 65.6251 202.023 65.768 203.786 65.765C204.196 65.8017 204.609 65.7475 204.996 65.6062C205.188 65.5311 205.351 65.3969 205.461 65.2231C205.571 65.0493 205.624 64.8449 205.61 64.6394C205.532 64.3734 205.389 64.131 205.194 63.9337C203.98 62.4341 203.609 60.4405 203.278 58.5386L202.166 52.1484C201.57 48.7327 201.016 45.0207 202.632 41.9544C203.793 39.7491 205.935 38.1965 207.159 36.0265C207.586 35.3706 207.779 34.5897 207.706 33.8105C207.523 32.7202 206.538 31.9404 205.529 31.4852C203.587 30.6142 201.382 30.5332 199.382 31.2594C199.417 32.7873 199.029 34.3328 198.778 35.8465L198.351 38.3165C198.134 39.7721 197.814 41.2106 197.395 42.6213C197.243 43.1857 196.983 43.7153 196.629 44.1809C196.252 44.5999 195.792 44.9352 195.278 45.1654C194.164 45.71 192.939 45.9901 191.699 45.984C191.162 45.9923 190.628 45.91 190.118 45.7405C189.298 45.3807 188.557 44.86 187.941 44.2092C187.725 44.0246 187.532 43.8149 187.366 43.5846C187.19 43.2914 187.058 42.974 186.974 42.6425C186.688 41.7794 186.463 40.8975 186.3 40.0031C186.194 39.3186 186.159 38.6235 186.11 37.9319C185.972 35.8889 185.972 33.6306 185.566 31.6652Z" fill="#BB0A21"/>
<path d="M183.445 72.1552C183.445 72.1552 182.609 83.2453 187.839 85.1261C193.069 87.0068 188.467 75.9201 188.467 75.9201L186.791 72.575L183.445 72.1552Z" fill="#A0616A"/>
<path d="M201.227 72.1552C201.227 72.1552 202.064 83.2453 196.834 85.1261C191.604 87.0068 196.206 75.9201 196.206 75.9201L197.882 72.575L201.227 72.1552Z" fill="#A0616A"/>
<path opacity="0.1" d="M178.84 35.1408L177.167 37.8613C177.167 37.8613 178.632 47.2754 178.84 48.948C179.021 50.1548 179.302 51.3446 179.68 52.5047C179.68 52.5047 179.888 57.5259 179.888 59.4101C179.888 61.2943 180.947 64.4312 180.947 64.4312C181.095 66.2096 181.45 67.9647 182.006 69.6605C182.842 71.9611 183.678 74.6816 183.678 74.6816C183.678 74.6816 184.737 71.7529 188.908 76.146C189.375 75.672 189.637 75.0331 189.637 74.3676C189.637 73.702 189.375 73.0632 188.908 72.5892C188.908 72.5892 187.655 66.9435 187.655 64.0113C187.655 61.0791 185.351 47.0743 185.351 47.0743C185.351 47.0743 183.855 31.1535 178.84 35.1408Z" fill="black"/>
<path d="M178.424 34.9184L176.751 37.6389C176.751 37.6389 178.215 47.053 178.424 48.7256C178.605 49.9327 178.887 51.1224 179.267 52.2823C179.267 52.2823 179.475 57.3035 179.475 59.1842C179.475 61.0649 180.534 64.2053 180.534 64.2053C180.681 65.9839 181.036 67.739 181.593 69.4346C182.429 71.7387 183.269 74.4557 183.269 74.4557C183.269 74.4557 184.327 71.527 188.499 75.9201C188.965 75.4462 189.226 74.8081 189.226 74.1434C189.226 73.4788 188.965 72.8407 188.499 72.3668C188.499 72.3668 187.242 66.7212 187.242 63.7889C187.242 60.8567 184.942 46.8519 184.942 46.8519C184.942 46.8519 183.445 30.9417 178.424 34.9184Z" fill="#BB0A21"/>
<path opacity="0.1" d="M206.041 33.4542L207.099 34.6998C207.099 34.6998 208.331 41.8204 205.61 50.8181L204.774 58.9761C204.774 58.9761 203.309 65.8815 203.101 67.554C202.893 69.2265 202.893 69.4347 202.473 70.0628C202.346 70.2097 202.275 70.3977 202.275 70.5921C202.275 70.7865 202.346 70.9745 202.473 71.1214L201.217 75.7085C201.217 75.7085 199.336 73.4079 195.57 76.3366C195.57 76.3366 194.512 74.664 195.359 73.1997C196.206 71.7353 196.195 71.1073 195.987 70.6874C195.779 70.2675 196.823 68.1786 196.823 67.7587C196.823 67.3388 198.298 57.7235 198.298 57.7235C198.298 57.7235 198.926 48.3093 199.555 45.1725C199.939 43.2424 199.932 38.9411 199.865 35.9136C199.798 32.7591 203.616 31.0512 205.864 33.2672C205.917 33.3236 205.981 33.3766 206.041 33.4542Z" fill="black"/>
<path d="M206.669 33.0235L207.727 34.2691C207.727 34.2691 208.959 41.3932 206.238 50.3875L205.402 58.5455C205.402 58.5455 203.937 65.4509 203.729 67.1234C203.521 68.7959 203.517 69.0076 203.101 69.6357C202.973 69.7823 202.902 69.9703 202.902 70.165C202.902 70.3596 202.973 70.5477 203.101 70.6943L201.852 75.2955C201.852 75.2955 199.971 72.9914 196.206 75.92C196.206 75.92 195.147 74.2475 195.997 72.7832C196.848 71.3188 196.834 70.6907 196.626 70.2744C196.417 69.858 197.462 67.762 197.462 67.3457C197.462 66.9293 198.926 57.3034 198.926 57.3034C198.926 57.3034 199.555 47.8893 200.183 44.7489C200.811 41.6085 200.391 32.1979 200.391 32.1979C200.391 32.1979 203.74 29.8973 206.669 33.0235Z" fill="#BB0A21"/>
<path d="M192.649 30.1092C197.272 30.1092 201.019 26.3619 201.019 21.7395C201.019 17.117 197.272 13.3698 192.649 13.3698C188.026 13.3698 184.278 17.117 184.278 21.7395C184.278 26.3619 188.026 30.1092 192.649 30.1092Z" fill="#A0616A"/>
<path opacity="0.1" d="M197.014 9.17431C196.612 10.2974 195.876 11.2708 194.905 11.9644C193.934 12.658 192.775 13.0387 191.582 13.0556C190.389 13.0724 189.22 12.7247 188.23 12.0588C187.24 11.393 186.477 10.4408 186.043 9.32956C189.31 8.01341 192.649 9.18489 192.649 9.18489C194.318 8.59915 195.765 8.65208 197.014 9.17431Z" fill="black"/>
<path d="M192.649 9.60477C192.649 9.60477 176.539 3.9591 180.516 31.3618C180.516 31.3618 184.074 33.6624 186.791 32.198C186.791 32.198 184.91 13.1615 192.232 13.9978C199.555 14.8341 198.299 31.7817 198.299 31.7817C198.299 31.7817 202.484 33.0343 203.74 30.7231C204.996 28.4119 203.32 5.85393 192.649 9.60477Z" fill="#3F3D56"/>
<path opacity="0.1" d="M192.232 12.7415C187.207 12.1699 186.515 20.9525 186.586 26.5205C186.646 20.9842 187.578 13.4649 192.232 13.9977C197.458 14.594 198.316 23.4048 198.376 28.3942C198.436 23.8141 197.935 13.3943 192.232 12.7415Z" fill="black"/>
<path opacity="0.1" d="M180.516 30.1055C180.152 27.7068 179.944 25.2871 179.892 22.8615C179.874 25.7069 180.083 28.5493 180.516 31.3617C180.516 31.3617 184.074 33.6623 186.791 32.198C186.791 32.198 186.748 31.7463 186.699 30.9877C183.992 32.3532 180.516 30.1055 180.516 30.1055Z" fill="black"/>
<path opacity="0.1" d="M203.74 29.4951C202.568 31.6405 198.859 30.6984 198.358 30.5537C198.334 31.33 198.298 31.7957 198.298 31.7957C198.298 31.7957 202.484 33.0484 203.74 30.7372C203.998 30.2644 204.132 28.927 204.093 27.1381C204.058 28.2848 203.934 29.1423 203.74 29.4951Z" fill="black"/>
<path d="M291.743 237.457C293.416 234.359 291.517 230.562 289.336 227.799C287.156 225.036 284.491 222.153 284.548 218.625C284.629 213.561 290 210.576 294.295 207.891C297.478 205.9 300.414 203.54 303.043 200.859C304.101 199.783 305.114 198.632 305.732 197.256C306.621 195.28 306.596 193.022 306.54 190.862C306.354 183.638 306.001 176.424 305.481 169.218" stroke="#3F3D56" stroke-width="4" stroke-miterlimit="10"/>
<path d="M313.626 168.837C313.566 167.516 313.173 166.231 312.485 165.101C311.797 163.971 310.835 163.033 309.688 162.373L307.923 165.866L307.976 161.632C306.371 161.157 304.657 161.205 303.08 161.768C301.504 162.331 300.148 163.381 299.207 164.765C298.267 166.149 297.79 167.797 297.847 169.47C297.904 171.142 298.492 172.754 299.524 174.071C300.557 175.388 301.982 176.343 303.592 176.798C305.203 177.252 306.917 177.183 308.486 176.6C310.055 176.017 311.398 174.951 312.321 173.555C313.245 172.159 313.7 170.505 313.622 168.834L313.626 168.837Z" fill="#BB0A21"/>
<path d="M299.553 222.256C298.725 223.866 297.368 225.142 295.711 225.87C294.054 226.599 292.196 226.735 290.45 226.257C288.704 225.779 287.176 224.714 286.121 223.243C285.067 221.771 284.551 219.982 284.659 218.175C284.767 216.368 285.494 214.654 286.717 213.319C287.94 211.984 289.584 211.11 291.375 210.844C293.166 210.578 294.994 210.935 296.552 211.857C298.11 212.778 299.304 214.207 299.934 215.904L294.993 219.916L300.417 218.657C300.42 219.908 300.124 221.142 299.553 222.256Z" fill="#BB0A21"/>
<path d="M295.653 206.931C293.722 207.013 291.828 206.384 290.33 205.162C288.832 203.941 287.834 202.213 287.526 200.305C287.218 198.397 287.62 196.442 288.657 194.811C289.693 193.18 291.293 191.986 293.151 191.455L293.109 194.709L294.894 191.18H294.916C295.956 191.124 296.996 191.274 297.978 191.622C298.96 191.97 299.863 192.508 300.635 193.207C301.408 193.905 302.034 194.749 302.479 195.691C302.924 196.633 303.178 197.653 303.227 198.693C303.275 199.733 303.118 200.773 302.763 201.752C302.408 202.731 301.863 203.63 301.159 204.397C300.455 205.165 299.606 205.785 298.661 206.223C297.716 206.661 296.694 206.908 295.653 206.949V206.931Z" fill="#BB0A21"/>
<path d="M314.815 194.183C313.594 194.24 312.377 194.013 311.258 193.519C310.14 193.026 309.152 192.28 308.371 191.339C307.591 190.399 307.039 189.29 306.76 188.101C306.481 186.911 306.482 185.672 306.763 184.483C307.044 183.294 307.597 182.186 308.38 181.247C309.162 180.308 310.151 179.563 311.27 179.072C312.389 178.58 313.607 178.355 314.828 178.414C316.048 178.473 317.239 178.815 318.305 179.412L316.893 183.234L319.762 180.482C320.911 181.535 321.722 182.905 322.093 184.419C322.464 185.932 322.379 187.522 321.848 188.987C321.317 190.453 320.364 191.728 319.109 192.652C317.855 193.577 316.354 194.11 314.797 194.183H314.815Z" fill="#BB0A21"/>
<path opacity="0.1" d="M312.567 170.94C310.743 171.141 308.971 171.709 307.143 171.822C305.315 171.935 303.307 171.498 302.154 170.058C301.529 169.292 301.218 168.326 300.693 167.489C300.193 166.713 299.511 166.071 298.706 165.619C298.197 166.62 297.907 167.717 297.856 168.839C297.805 169.96 297.994 171.08 298.41 172.123C298.826 173.165 299.46 174.107 300.269 174.886C301.078 175.664 302.043 176.261 303.101 176.636C304.16 177.012 305.286 177.157 306.404 177.063C307.523 176.969 308.609 176.637 309.589 176.09C310.57 175.543 311.422 174.793 312.09 173.89C312.757 172.988 313.224 171.953 313.46 170.855C313.16 170.887 312.864 170.908 312.567 170.94Z" fill="black"/>
<path opacity="0.1" d="M314.815 194.183C313.454 194.245 312.101 193.955 310.886 193.34C309.671 192.725 308.635 191.807 307.879 190.674C307.124 189.541 306.674 188.232 306.573 186.874C306.473 185.516 306.725 184.155 307.305 182.923C307.934 183.344 308.473 183.885 308.893 184.514C309.455 185.361 309.797 186.342 310.457 187.122C311.685 188.565 313.788 189.038 315.694 188.953C317.599 188.869 319.434 188.325 321.34 188.149C321.604 188.128 321.869 188.11 322.137 188.103C321.745 189.775 320.817 191.273 319.496 192.37C318.174 193.468 316.531 194.104 314.815 194.183Z" fill="black"/>
<path opacity="0.1" d="M295.653 206.931C294.306 206.994 292.966 206.711 291.759 206.109C290.553 205.507 289.521 204.606 288.761 203.492C288.002 202.378 287.541 201.088 287.422 199.745C287.302 198.402 287.529 197.051 288.08 195.82C288.731 196.247 289.297 196.792 289.749 197.426C290.364 198.29 290.745 199.285 291.465 200.086C292.795 201.568 295.032 202.09 297.051 202.041C299.006 201.999 300.887 201.519 302.831 201.37C302.353 202.924 301.407 204.291 300.122 205.287C298.838 206.282 297.277 206.857 295.653 206.931Z" fill="black"/>
<path opacity="0.1" d="M299.553 222.256C298.638 224.07 297.059 225.461 295.144 226.14C293.23 226.82 291.127 226.735 289.273 225.904C287.42 225.072 285.958 223.559 285.192 221.677C284.426 219.796 284.415 217.691 285.162 215.802C285.813 216.229 286.397 216.75 286.894 217.348C287.646 218.262 288.14 219.299 289.012 220.149C290.624 221.734 293.229 222.386 295.547 222.446C296.885 222.461 298.222 222.397 299.553 222.256Z" fill="black"/>
<path d="M279.84 233.89C279.84 233.89 286.069 233.699 287.957 232.362C289.845 231.024 297.541 229.429 298.007 231.571C298.473 233.713 307.369 242.235 300.336 242.291C293.303 242.347 283.994 241.197 282.12 240.054C280.246 238.911 279.84 233.89 279.84 233.89Z" fill="#656380"/>
<path opacity="0.2" d="M300.449 241.56C293.416 241.617 284.107 240.463 282.233 239.323C280.821 238.452 280.239 235.336 280.049 233.896H279.84C279.84 233.896 280.236 238.921 282.109 240.061C283.983 241.201 293.292 242.354 300.326 242.298C302.355 242.298 303.057 241.56 303.018 240.491C302.736 241.13 301.963 241.532 300.449 241.56Z" fill="black"/>
<path d="M113.983 15.1234L107.543 19.2059L111.453 12.0959C110.349 11.2138 108.983 10.7246 107.571 10.7056H107.465C107.018 10.7119 106.572 10.6788 106.131 10.6068L103.947 11.99L104.882 10.2893C103.336 9.74918 102 8.73548 101.064 7.39234L97.1572 9.86232L99.6274 5.37401C97.3407 2.63233 94.2635 0.949219 90.8722 0.949219C86.8105 0.949219 83.1934 3.36627 80.8573 7.13123C80.1663 8.25694 79.1901 9.18009 78.0276 9.80716C76.865 10.4342 75.5574 10.743 74.2371 10.7021H74.0183C69.5331 10.7021 65.9019 15.7867 65.9019 22.0605C65.9019 28.3342 69.5366 33.4153 74.0183 33.4153C75.0026 33.4125 75.9715 33.1703 76.8414 32.7096C79.7668 31.1888 83.6063 31.1606 86.6693 32.5191C87.9826 33.1097 89.4057 33.4166 90.8456 33.4196C92.2856 33.4227 93.71 33.1218 95.0257 32.5367C98.0676 31.2065 101.861 31.2347 104.769 32.7273C105.632 33.1837 106.591 33.4257 107.567 33.433C112.053 33.433 115.684 28.3484 115.684 22.0781C115.711 19.6538 115.126 17.2617 113.983 15.1234Z" fill="#F2F2F2"/>
<path opacity="0.03" d="M101.84 31.7392C99.4969 31.2937 97.0741 31.5566 94.8811 32.4943C93.5658 33.0789 92.1421 33.3795 90.7028 33.3764C89.2635 33.3734 87.841 33.0668 86.5282 32.4767C83.4616 31.1182 79.6222 31.1464 76.6968 32.6672C75.8269 33.1279 74.858 33.3701 73.8737 33.373C69.8896 33.373 66.5759 29.3575 65.8843 24.0647C66.6802 23.4849 67.3561 22.7564 67.8746 21.9193C70.2248 18.1579 73.8278 15.7338 77.8895 15.7338C81.9513 15.7338 85.526 18.1226 87.8621 21.8452C88.5593 22.9699 89.5349 23.8958 90.6947 24.5331C91.8544 25.1704 93.159 25.4976 94.4823 25.4831H94.5741C97.7501 25.4867 100.503 28.0307 101.84 31.7392Z" fill="black"/>
<path d="M282.335 23.4367L279.134 25.4727L281.086 21.9441C280.535 21.4985 279.85 21.2501 279.141 21.2384H279.092C278.869 21.2415 278.645 21.225 278.425 21.189L277.335 21.8947L277.793 21.0267C277.022 20.7581 276.355 20.2531 275.888 19.5835L273.94 20.8185L275.171 18.5814C274.653 17.9127 273.993 17.3675 273.238 16.9855C272.483 16.6034 271.652 16.3941 270.806 16.3726C268.777 16.3726 266.974 17.5793 265.809 19.4565C265.463 20.0156 264.975 20.4733 264.395 20.7831C263.815 21.093 263.163 21.244 262.506 21.2208H262.397C260.16 21.2208 258.346 23.7578 258.346 26.8664C258.346 29.9751 260.16 32.5298 262.397 32.5298C262.889 32.528 263.373 32.407 263.808 32.1769C264.57 31.807 265.402 31.6069 266.249 31.5905C267.095 31.574 267.935 31.7416 268.71 32.0816C269.366 32.3736 270.076 32.5244 270.794 32.5244C271.512 32.5244 272.222 32.3736 272.878 32.0816C273.647 31.7484 274.479 31.5845 275.318 31.6009C276.156 31.6173 276.981 31.8138 277.737 32.1769C278.172 32.4071 278.656 32.5282 279.148 32.5298C281.386 32.5298 283.2 29.9963 283.2 26.8664C283.203 25.6689 282.906 24.4896 282.335 23.4367Z" fill="#F2F2F2"/>
<path opacity="0.03" d="M276.283 31.7251C275.115 31.5045 273.908 31.6359 272.814 32.1026C272.158 32.3946 271.448 32.5454 270.73 32.5454C270.012 32.5454 269.302 32.3946 268.647 32.1026C267.871 31.7625 267.03 31.5949 266.184 31.6113C265.337 31.6278 264.503 31.8279 263.741 32.1979C263.307 32.4289 262.822 32.55 262.33 32.5507C260.34 32.5507 258.688 30.5501 258.342 27.9107C258.738 27.6241 259.076 27.2648 259.337 26.8521C260.502 24.975 262.309 23.7717 264.334 23.7717C266.36 23.7717 268.142 24.9608 269.306 26.8169C269.654 27.3783 270.141 27.8403 270.719 28.1581C271.298 28.4759 271.949 28.6387 272.61 28.6305H272.662C274.247 28.6058 275.606 29.8761 276.283 31.7251Z" fill="black"/>
<path d="M72.109 76.1671L77.2824 79.4415L74.1487 73.743C75.0373 73.0357 76.1362 72.6446 77.2718 72.6315H77.353C77.7074 72.6368 78.0617 72.6108 78.4116 72.5538L80.1584 73.6618L79.3997 72.2998C80.6372 71.8647 81.7072 71.0527 82.4592 69.978L85.5894 71.961L83.6344 68.3655C85.4659 66.1707 87.9325 64.8369 90.6462 64.8369C93.9034 64.8369 96.8006 66.7706 98.6744 69.7769C99.2266 70.6777 100.007 71.4168 100.936 71.9193C101.866 72.4218 102.912 72.6699 103.968 72.6385H104.144C107.737 72.6385 110.648 76.7105 110.648 81.7351C110.648 86.7597 107.737 90.8352 104.144 90.8352C103.353 90.8321 102.574 90.6372 101.875 90.2671C100.652 89.673 99.3148 89.3517 97.9554 89.3255C96.596 89.2993 95.2471 89.5688 94.0022 90.1154C92.9475 90.5868 91.8051 90.8305 90.6498 90.8305C89.4944 90.8305 88.3521 90.5868 87.2973 90.1154C86.0613 89.58 84.7247 89.3165 83.3779 89.3427C82.0311 89.3689 80.7057 89.6841 79.4915 90.2671C78.7992 90.6274 78.031 90.8173 77.2506 90.8211C73.6547 90.8211 70.7434 86.7492 70.7434 81.721C70.7264 79.7846 71.196 77.8749 72.109 76.1671Z" fill="#F2F2F2"/>
<path opacity="0.03" d="M81.8311 89.4803C83.7087 89.1265 85.6491 89.3377 87.4067 90.0872C88.4614 90.5586 89.6038 90.8023 90.7591 90.8023C91.9145 90.8023 93.0568 90.5586 94.1116 90.0872C95.3571 89.5406 96.7065 89.271 98.0665 89.2972C99.4264 89.3234 100.764 89.6447 101.988 90.2389C102.686 90.609 103.464 90.804 104.254 90.807C107.447 90.807 110.101 87.5925 110.655 83.3512C110.018 82.8849 109.476 82.3003 109.06 81.6293C107.186 78.6159 104.289 76.6893 101.032 76.6893C97.7745 76.6893 94.9161 78.6018 93.0423 81.587C92.4847 82.4863 91.7047 83.2266 90.7774 83.7366C89.8502 84.2465 88.8071 84.5088 87.749 84.498H87.6678C85.1058 84.4733 82.9038 86.5128 81.8311 89.4803Z" fill="black"/>
</g>
<defs>
<clipPath id="clip0">
<rect width="391" height="258" fill="white"/>
</clipPath>
</defs>
</svg>
