<svg width="413" height="238" viewBox="0 0 413 238" fill="none" xmlns="http://www.w3.org/2000/svg">
<g clip-path="url(#clip0)">
<path d="M409.23 211.877H0V212.824H409.23V211.877Z" fill="#3F3D56"/>
<path d="M52.9543 40.847C49.4405 32.601 40.4959 31.0436 40.4959 31.0436C40.4959 31.0436 31.8835 28.7585 24.6911 39.6415C17.9872 49.7854 9.342 59.2894 20.3058 63.3383L23.2018 57.2889L23.5493 64.2508C25.1435 64.581 26.7548 64.8242 28.3758 64.9793C40.5367 66.208 52.0003 68.2511 52.2126 63.88C52.4949 58.0691 56.3353 48.7814 52.9543 40.847Z" fill="#2F2E41"/>
<path d="M15.8527 106.883L15.0702 126.729C15.0702 126.729 6.85374 142.684 13.5051 142.295C20.1565 141.906 19.374 126.729 19.374 126.729L21.7216 108.05L15.8527 106.883Z" fill="#FFB8B8"/>
<path d="M60.8475 103.381L63.195 123.227C63.195 123.227 70.2377 133.734 64.7601 137.236C59.2824 140.739 59.2824 124.784 59.2824 124.784L53.4136 104.548L60.8475 103.381Z" fill="#FFB8B8"/>
<path d="M52.6309 140.349L45.5882 167.59C45.5882 167.59 42.4581 178.486 38.1543 183.934L36.5892 187.047L30.3291 186.269L34.633 168.757L37.3718 136.458L52.6309 140.349Z" fill="#FFB8B8"/>
<path opacity="0.1" d="M52.6309 140.349L45.5882 167.59C45.5882 167.59 42.4581 178.486 38.1543 183.934L36.5892 187.047L30.3291 186.269L34.633 168.757L37.3718 136.458L52.6309 140.349Z" fill="black"/>
<path d="M28.7806 181.924L39.4806 184.388L35.0707 194.728C35.0707 194.728 36.8631 200.918 35.1557 204.196C33.4484 207.474 33.6948 213.422 33.6948 213.422L31.3758 213.058C31.3758 213.058 25.7455 223.601 19.093 220.589C12.4405 217.577 19.5162 210.413 19.5162 210.413C19.5162 210.413 25.2683 199.101 25.9987 194.489C26.7292 189.876 28.7806 181.924 28.7806 181.924Z" fill="#2F2E41"/>
<path opacity="0.1" d="M28.7806 181.924L39.4806 184.388L35.0707 194.728C35.0707 194.728 36.8631 200.918 35.1557 204.196C33.4484 207.474 33.6948 213.422 33.6948 213.422L31.3758 213.058C31.3758 213.058 25.7455 223.601 19.093 220.589C12.4405 217.577 19.5162 210.413 19.5162 210.413C19.5162 210.413 25.2683 199.101 25.9987 194.489C26.7292 189.876 28.7806 181.924 28.7806 181.924Z" fill="black"/>
<path d="M19.7651 134.512L25.634 163.698C25.634 163.698 23.6777 178.097 26.0253 187.047L28.3728 195.608H36.198V164.087C36.198 164.087 36.5893 138.404 35.4155 136.458C34.2417 134.512 19.7651 134.512 19.7651 134.512Z" fill="#FFB8B8"/>
<path d="M37.7631 192.495L26.8079 193.273L29.5467 204.169C29.5467 204.169 26.8079 210.007 27.9816 213.509C29.1554 217.011 27.9816 222.848 27.9816 222.848H30.3292C30.3292 222.848 34.2418 234.134 41.2844 232.188C48.3271 230.242 42.4582 222.07 42.4582 222.07C42.4582 222.07 38.5456 210.007 38.5456 205.337C38.5456 200.667 37.7631 192.495 37.7631 192.495Z" fill="#2F2E41"/>
<path d="M40.502 57.8507C46.3363 57.8507 51.066 53.1465 51.066 47.3437C51.066 41.5409 46.3363 36.8368 40.502 36.8368C34.6676 36.8368 29.938 41.5409 29.938 47.3437C29.938 53.1465 34.6676 57.8507 40.502 57.8507Z" fill="#FFB8B8"/>
<path d="M33.2637 51.4298C33.2637 51.4298 34.0462 64.6608 31.6987 65.4391C29.3511 66.2173 43.8277 65.4391 43.8277 65.4391C43.8277 65.4391 41.8714 57.267 43.8277 54.9321C45.784 52.5973 33.2637 51.4298 33.2637 51.4298Z" fill="#FFB8B8"/>
<path d="M44.0234 63.2988C44.0234 63.2988 33.8507 62.5205 31.8944 63.2988C29.9381 64.0771 24.4604 67.9685 24.4604 67.9685L27.1993 92.4847L49.501 97.1545L53.0223 92.0956L56.5437 84.7018L54.9786 75.3623L54.5874 69.9143L44.0234 63.2988Z" fill="#BB0A21"/>
<path d="M22.504 69.525C22.504 69.525 17.4176 70.6925 17.0264 74.5839C16.6351 78.4754 16.6351 88.204 17.0264 89.7606C17.4176 91.3172 17.0264 92.0955 16.6351 92.4846C16.2438 92.8738 15.4613 92.0955 16.2438 93.2629C17.0264 94.4303 17.0264 94.4303 16.6351 95.5978C16.2438 96.7652 15.0701 95.2086 15.8526 97.1544C16.6351 99.1001 17.0264 99.4892 16.6351 99.8784C16.2438 100.268 15.0701 109.218 15.0701 109.218L21.7215 110.385L28.3729 87.4257L22.504 69.525Z" fill="#BB0A21"/>
<path d="M53.022 69.525C53.765 69.5663 54.4834 69.8045 55.1026 70.2151C55.7218 70.6257 56.2193 71.1936 56.5433 71.8599C57.7171 74.1948 60.8472 89.3714 60.4559 90.5389C60.0647 91.7063 59.2821 90.1497 60.0647 92.4846C60.8472 94.8195 60.0647 94.4303 60.4559 95.9869C60.8472 97.5435 58.8909 95.9869 60.4559 97.5435C62.021 99.1001 62.8035 99.4892 62.021 100.268C61.2384 101.046 60.0647 99.4892 61.2384 101.046C62.4122 102.602 62.4122 104.937 62.4122 104.937L53.022 106.883L50.2832 85.0909L53.022 69.525Z" fill="#BB0A21"/>
<path d="M21.2792 68.9062L23.2013 67.9503C23.3956 67.8537 23.6073 67.7963 23.8241 67.7815C24.0408 67.7666 24.2584 67.7946 24.4643 67.8639C24.6701 67.9331 24.8601 68.0422 25.0233 68.1849C25.1865 68.3276 25.3197 68.501 25.4152 68.6951L34.2417 86.6474L44.0232 92.8737L51.0659 89.7606C51.0659 89.7606 56.1522 81.9777 54.5872 78.0862C53.5261 75.4478 52.2831 71.3883 51.5925 69.0476C51.5521 68.9098 51.5552 68.763 51.6016 68.6271C51.648 68.4911 51.7353 68.3727 51.8517 68.2878C51.9681 68.203 52.1079 68.1558 52.2522 68.1528C52.3965 68.1498 52.5382 68.191 52.6582 68.2708L53.9918 69.1551C54.4186 69.4381 54.7162 69.877 54.8201 70.3767L57.7173 84.3125L53.8047 92.4846V100.267L56.5435 142.295C56.5435 142.295 46.3708 140.739 36.198 138.793C26.0253 136.847 13.1138 135.291 13.1138 135.291C13.1138 135.291 19.7652 101.046 25.2428 95.2086C25.2428 95.2086 25.2428 90.928 26.0253 90.5389C26.8078 90.1497 27.5903 87.4257 27.5903 87.4257L20.5032 71.0157C20.3375 70.632 20.3256 70.1998 20.4698 69.8077C20.6141 69.4155 20.9036 69.093 21.2792 68.9062Z" fill="#2F2E41"/>
<path d="M50.9674 37.8511L42.0035 33.181L29.6243 35.0917L27.0632 46.3424L33.4388 46.0983L35.2197 41.9651V46.0302L38.1618 45.9179L39.8692 39.3372L40.9362 46.3424L51.3943 46.1299L50.9674 37.8511Z" fill="#2F2E41"/>
<path d="M29.7424 49.3868C30.3906 49.3868 30.9162 48.4721 30.9162 47.3438C30.9162 46.2155 30.3906 45.3008 29.7424 45.3008C29.0941 45.3008 28.5686 46.2155 28.5686 47.3438C28.5686 48.4721 29.0941 49.3868 29.7424 49.3868Z" fill="#FFB8B8"/>
<path d="M344.194 0H80.0125V134.759H344.194V0Z" fill="#3F3D56"/>
<path d="M193.264 74.2373H138.491C138.409 74.2373 138.329 74.2214 138.253 74.1904C138.178 74.1594 138.11 74.114 138.052 74.0567C137.994 73.9994 137.949 73.9314 137.918 73.8565C137.886 73.7816 137.87 73.7014 137.87 73.6204V51.8297C137.87 51.7487 137.886 51.6685 137.918 51.5936C137.949 51.5187 137.994 51.4507 138.052 51.3934C138.11 51.3361 138.178 51.2907 138.253 51.2597C138.329 51.2287 138.409 51.2127 138.491 51.2128H193.264C193.345 51.2127 193.426 51.2286 193.501 51.2596C193.576 51.2906 193.645 51.3361 193.702 51.3934C193.76 51.4507 193.806 51.5187 193.837 51.5936C193.868 51.6684 193.884 51.7487 193.884 51.8297V73.6204C193.884 73.7014 193.868 73.7817 193.837 73.8565C193.806 73.9314 193.76 73.9994 193.702 74.0567C193.645 74.114 193.576 74.1595 193.501 74.1905C193.426 74.2215 193.345 74.2374 193.264 74.2373ZM139.111 73.0034H192.643V52.4466H139.111V73.0034Z" fill="white"/>
<path d="M161.769 88.5378H138.491C138.409 88.5378 138.329 88.5218 138.253 88.4908C138.178 88.4598 138.11 88.4144 138.052 88.3571C137.994 88.2998 137.949 88.2318 137.918 88.1569C137.886 88.0821 137.87 88.0018 137.87 87.9208V78.6594C137.87 78.5784 137.886 78.4982 137.918 78.4233C137.949 78.3484 137.994 78.2804 138.052 78.2231C138.11 78.1658 138.178 78.1204 138.253 78.0894C138.329 78.0584 138.409 78.0425 138.491 78.0425H161.769C161.851 78.0424 161.931 78.0584 162.007 78.0893C162.082 78.1203 162.15 78.1658 162.208 78.2231C162.266 78.2804 162.311 78.3484 162.342 78.4233C162.374 78.4981 162.39 78.5784 162.39 78.6594V87.9208C162.39 88.0019 162.374 88.0821 162.342 88.157C162.311 88.2318 162.266 88.2999 162.208 88.3572C162.15 88.4145 162.082 88.4599 162.007 88.4909C161.931 88.5219 161.851 88.5378 161.769 88.5378ZM139.111 87.3039H161.149V79.2764H139.111V87.3039Z" fill="white"/>
<path d="M193.264 88.5378H169.985C169.904 88.5378 169.823 88.5219 169.748 88.4909C169.673 88.4599 169.604 88.4145 169.547 88.3572C169.489 88.2999 169.443 88.2318 169.412 88.157C169.381 88.0821 169.365 88.0019 169.365 87.9208V78.6594C169.365 78.5784 169.381 78.4981 169.412 78.4233C169.443 78.3484 169.489 78.2804 169.547 78.2231C169.604 78.1658 169.673 78.1203 169.748 78.0893C169.823 78.0584 169.904 78.0424 169.985 78.0425H193.264C193.345 78.0424 193.426 78.0584 193.501 78.0893C193.577 78.1203 193.645 78.1658 193.703 78.2231C193.76 78.2804 193.806 78.3484 193.837 78.4233C193.868 78.4981 193.884 78.5784 193.884 78.6594V87.9208C193.884 88.0019 193.868 88.0821 193.837 88.157C193.806 88.2318 193.76 88.2999 193.703 88.3572C193.645 88.4145 193.577 88.4599 193.501 88.4909C193.426 88.5219 193.345 88.5378 193.264 88.5378ZM170.606 87.3039H192.644V79.2764H170.606V87.3039Z" fill="white"/>
<path d="M192.58 73.5565C192.502 73.5564 192.425 73.5419 192.353 73.5137L138.264 52.4039C138.189 52.3743 138.119 52.3301 138.061 52.2739C138.002 52.2177 137.955 52.1506 137.923 52.0764C137.89 52.0021 137.872 51.9222 137.871 51.8412C137.869 51.7603 137.884 51.6798 137.914 51.6044C137.943 51.529 137.988 51.4601 138.044 51.4018C138.101 51.3435 138.168 51.2968 138.243 51.2644C138.318 51.232 138.398 51.2145 138.479 51.213C138.561 51.2115 138.642 51.2259 138.718 51.2555L192.806 72.3654C192.941 72.4179 193.052 72.5155 193.122 72.6412C193.192 72.767 193.216 72.9131 193.189 73.0543C193.162 73.1955 193.086 73.3229 192.975 73.4146C192.864 73.5063 192.724 73.5565 192.58 73.5565Z" fill="white"/>
<path d="M138.491 74.2374C138.347 74.2374 138.207 74.1875 138.096 74.0963C137.985 74.005 137.909 73.878 137.882 73.7372C137.855 73.5964 137.877 73.4505 137.946 73.3246C138.016 73.1987 138.127 73.1007 138.261 73.0475L193.034 51.2568C193.187 51.1965 193.357 51.1989 193.508 51.2635C193.659 51.3281 193.778 51.4496 193.839 51.6013C193.9 51.7531 193.898 51.9227 193.833 52.0729C193.769 52.2231 193.647 52.3417 193.494 52.4027L138.722 74.1934C138.648 74.2225 138.57 74.2375 138.491 74.2374Z" fill="white"/>
<path d="M161.427 88.1974C161.35 88.1974 161.273 88.1828 161.2 88.1546L138.606 79.3017C138.453 79.2415 138.33 79.1235 138.265 78.9735C138.2 78.8235 138.197 78.6538 138.257 78.5017C138.317 78.3496 138.436 78.2275 138.586 78.1622C138.737 78.0969 138.908 78.0937 139.061 78.1534L161.655 87.0063C161.789 87.0589 161.901 87.1565 161.971 87.2823C162.04 87.4081 162.064 87.5543 162.037 87.6954C162.01 87.8366 161.934 87.964 161.823 88.0556C161.712 88.1473 161.572 88.1974 161.427 88.1974Z" fill="white"/>
<path d="M138.833 88.1974C138.687 88.1974 138.546 88.1463 138.434 88.0531C138.322 87.9599 138.247 87.8305 138.222 87.6876C138.197 87.5448 138.223 87.3976 138.296 87.272C138.369 87.1464 138.484 87.0504 138.621 87.0008L161.215 78.8293C161.292 78.8012 161.373 78.7885 161.455 78.7918C161.536 78.7951 161.616 78.8143 161.691 78.8485C161.765 78.8827 161.831 78.9311 161.886 78.9909C161.942 79.0507 161.984 79.1208 162.012 79.1971C162.04 79.2735 162.053 79.3545 162.049 79.4357C162.045 79.5168 162.026 79.5964 161.991 79.6699C161.956 79.7435 161.907 79.8095 161.847 79.8641C161.787 79.9188 161.716 79.9611 161.639 79.9885L139.045 88.16C138.977 88.1847 138.905 88.1973 138.833 88.1974Z" fill="white"/>
<path d="M192.922 88.1974C192.847 88.1973 192.773 88.184 192.704 88.1582L170.795 79.9867C170.64 79.9292 170.516 79.8131 170.448 79.6641C170.38 79.5151 170.374 79.3452 170.432 79.192C170.49 79.0388 170.606 78.9147 170.756 78.847C170.906 78.7793 171.077 78.7736 171.231 78.8311L193.14 87.0026C193.276 87.0534 193.39 87.1501 193.461 87.2758C193.533 87.4015 193.558 87.5483 193.532 87.6905C193.506 87.8328 193.431 87.9614 193.319 88.0541C193.208 88.1467 193.067 88.1974 192.922 88.1974Z" fill="white"/>
<path d="M171.013 87.5166C170.866 87.5166 170.724 87.4648 170.612 87.3705C170.5 87.2762 170.425 87.1454 170.401 87.0015C170.377 86.8575 170.405 86.7097 170.48 86.5843C170.555 86.4589 170.672 86.364 170.811 86.3165L192.72 78.8258C192.797 78.799 192.879 78.7877 192.96 78.7924C193.042 78.7971 193.122 78.8178 193.195 78.8533C193.268 78.8888 193.334 78.9383 193.388 78.9991C193.442 79.0599 193.484 79.1307 193.511 79.2075C193.537 79.2843 193.548 79.3656 193.543 79.4466C193.538 79.5277 193.517 79.607 193.481 79.6799C193.445 79.7528 193.395 79.8179 193.333 79.8715C193.272 79.9251 193.201 79.9661 193.123 79.9922L171.214 87.4829C171.149 87.5052 171.081 87.5166 171.013 87.5166Z" fill="white"/>
<path d="M104.685 39.4776C102.845 39.4776 101.046 38.9348 99.5155 37.918C97.9854 36.9011 96.7929 35.4558 96.0886 33.7648C95.3844 32.0738 95.2001 30.2131 95.5592 28.418C95.9182 26.6229 96.8043 24.9739 98.1056 23.6797C99.4068 22.3855 101.065 21.5041 102.87 21.1471C104.674 20.79 106.545 20.9733 108.245 21.6737C109.946 22.3741 111.399 23.5602 112.421 25.0821C113.444 26.6039 113.989 28.3931 113.989 30.2234C113.986 32.6769 113.005 35.0292 111.261 36.7641C109.517 38.499 107.152 39.4748 104.685 39.4776ZM104.685 22.2031C103.09 22.2031 101.531 22.6735 100.205 23.5548C98.8787 24.4361 97.8451 25.6887 97.2348 27.1542C96.6244 28.6197 96.4648 30.2323 96.7759 31.7881C97.087 33.3439 97.8551 34.7729 98.9828 35.8946C100.111 37.0163 101.547 37.7801 103.112 38.0896C104.676 38.399 106.297 38.2402 107.771 37.6332C109.244 37.0261 110.504 35.9982 111.39 34.6792C112.276 33.3603 112.749 31.8097 112.749 30.2234C112.746 28.097 111.896 26.0585 110.384 24.5549C108.872 23.0513 106.823 22.2055 104.685 22.2031Z" fill="white"/>
<path d="M166.094 39.4776C164.254 39.4776 162.455 38.9348 160.925 37.918C159.395 36.9011 158.202 35.4558 157.498 33.7648C156.794 32.0738 156.609 30.2131 156.968 28.418C157.327 26.6229 158.214 24.9739 159.515 23.6797C160.816 22.3855 162.474 21.5041 164.279 21.1471C166.084 20.79 167.954 20.9733 169.655 21.6737C171.355 22.3741 172.808 23.5602 173.83 25.0821C174.853 26.6039 175.398 28.3931 175.398 30.2234C175.396 32.6769 174.415 35.0292 172.67 36.7641C170.926 38.499 168.561 39.4749 166.094 39.4776ZM166.094 22.2031C164.499 22.2031 162.94 22.6735 161.614 23.5548C160.288 24.4361 159.254 25.6887 158.644 27.1542C158.034 28.6197 157.874 30.2323 158.185 31.7881C158.496 33.3439 159.264 34.7729 160.392 35.8946C161.52 37.0163 162.957 37.7801 164.521 38.0896C166.085 38.399 167.706 38.2402 169.18 37.6332C170.653 37.0261 171.913 35.9982 172.799 34.6792C173.685 33.3603 174.158 31.8097 174.158 30.2234C174.155 28.0971 173.305 26.0585 171.793 24.5549C170.282 23.0514 168.232 22.2056 166.094 22.2031Z" fill="white"/>
<path d="M242.39 39.4776C240.55 39.4776 238.751 38.9348 237.221 37.918C235.691 36.9011 234.498 35.4558 233.794 33.7648C233.089 32.0738 232.905 30.2131 233.264 28.418C233.623 26.6229 234.509 24.9739 235.811 23.6797C237.112 22.3855 238.77 21.5041 240.575 21.1471C242.38 20.79 244.25 20.9733 245.951 21.6737C247.651 22.3741 249.104 23.5602 250.126 25.0821C251.149 26.6039 251.694 28.3931 251.694 30.2234C251.692 32.6769 250.71 35.0292 248.966 36.7641C247.222 38.499 244.857 39.4749 242.39 39.4776ZM242.39 22.2031C240.795 22.2031 239.236 22.6735 237.91 23.5548C236.584 24.4361 235.55 25.6887 234.94 27.1542C234.33 28.6197 234.17 30.2323 234.481 31.7881C234.792 33.3439 235.56 34.7729 236.688 35.8946C237.816 37.0163 239.252 37.7801 240.817 38.0896C242.381 38.399 244.002 38.2402 245.476 37.6332C246.949 37.0261 248.209 35.9982 249.095 34.6792C249.981 33.3603 250.454 31.8097 250.454 30.2234C250.451 28.0971 249.601 26.0585 248.089 24.5549C246.577 23.0514 244.528 22.2056 242.39 22.2031Z" fill="white"/>
<path d="M322.325 39.4776C320.485 39.4776 318.686 38.9348 317.156 37.918C315.626 36.9011 314.433 35.4558 313.729 33.7648C313.025 32.0738 312.84 30.2131 313.199 28.418C313.558 26.6229 314.444 24.9739 315.746 23.6797C317.047 22.3855 318.705 21.5041 320.51 21.1471C322.315 20.79 324.185 20.9733 325.886 21.6737C327.586 22.3741 329.039 23.5602 330.061 25.0821C331.084 26.6039 331.629 28.3931 331.629 30.2234C331.627 32.6769 330.646 35.0292 328.901 36.7641C327.157 38.499 324.792 39.4749 322.325 39.4776ZM322.325 22.2031C320.73 22.2031 319.171 22.6735 317.845 23.5548C316.519 24.4361 315.485 25.6887 314.875 27.1542C314.265 28.6197 314.105 30.2323 314.416 31.7881C314.727 33.3439 315.495 34.7729 316.623 35.8946C317.751 37.0163 319.188 37.7801 320.752 38.0896C322.316 38.399 323.937 38.2402 325.411 37.6332C326.884 37.0261 328.144 35.9982 329.03 34.6792C329.916 33.3603 330.389 31.8097 330.389 30.2234C330.386 28.0971 329.536 26.0585 328.024 24.5549C326.512 23.0514 324.463 22.2056 322.325 22.2031Z" fill="white"/>
<path d="M164.448 33.0798V32.6129L165.047 32.0339C166.49 30.6687 167.142 29.9421 167.15 29.0956C167.166 28.9462 167.147 28.7953 167.096 28.654C167.045 28.5127 166.963 28.3846 166.855 28.2793C166.747 28.1739 166.617 28.094 166.474 28.0454C166.332 27.9968 166.18 27.9807 166.03 27.9984C165.587 28.0147 165.163 28.1823 164.83 28.4732L164.587 27.9376C165.036 27.5661 165.602 27.364 166.186 27.367C166.411 27.3472 166.637 27.3751 166.85 27.449C167.063 27.5229 167.258 27.641 167.421 27.7955C167.585 27.95 167.713 28.1373 167.798 28.3451C167.883 28.5528 167.923 28.7762 167.915 29.0004C167.915 30.0373 167.159 30.8759 165.968 32.0164L165.517 32.4315V32.4484H168.054V33.0798H164.448Z" fill="white"/>
<path d="M104.479 28.1231H104.461L103.48 28.6502L103.332 28.0713L104.566 27.4146H105.217V33.0321H104.479V28.1231Z" fill="white"/>
<path d="M322.881 33.0318V31.5026H320.257V31.0014L322.777 27.4148H323.603V30.9062H324.393V31.5027H323.603V33.0318H322.881ZM322.881 30.9062V29.0313C322.881 28.7373 322.89 28.4432 322.908 28.1492H322.881C322.708 28.4782 322.569 28.7198 322.412 28.9795L321.031 30.8887V30.9062L322.881 30.9062Z" fill="white"/>
<path d="M241.435 32.1591C241.814 32.3823 242.245 32.5043 242.686 32.5134C243.668 32.5134 243.972 31.891 243.963 31.4247C243.955 30.6378 243.242 30.301 242.504 30.301H242.077V29.7305H242.504C243.06 29.7305 243.764 29.4455 243.764 28.7798C243.764 28.3303 243.477 27.9327 242.773 27.9327C242.368 27.944 241.975 28.0735 241.644 28.305L241.444 27.7519C241.883 27.4672 242.396 27.3168 242.921 27.3194C244.033 27.3194 244.537 27.9761 244.537 28.6593C244.531 28.9624 244.426 29.2554 244.238 29.4939C244.05 29.7324 243.788 29.9035 243.494 29.9811V29.9986C243.843 30.0489 244.162 30.2222 244.393 30.4871C244.625 30.752 244.753 31.0907 244.754 31.4416C244.754 32.3405 244.05 33.1273 242.695 33.1273C242.18 33.1339 241.672 33.0024 241.226 32.7465L241.435 32.1591Z" fill="white"/>
<path d="M271.421 87.9208H216.648C216.566 87.9209 216.486 87.905 216.41 87.874C216.335 87.843 216.267 87.7975 216.209 87.7402C216.152 87.6829 216.106 87.6149 216.075 87.54C216.044 87.4652 216.028 87.3849 216.028 87.3039V52.4465C216.028 52.3655 216.044 52.2853 216.075 52.2104C216.106 52.1355 216.152 52.0675 216.209 52.0102C216.267 51.9529 216.335 51.9074 216.41 51.8765C216.486 51.8455 216.566 51.8295 216.648 51.8296H271.421C271.502 51.8295 271.583 51.8455 271.658 51.8765C271.734 51.9074 271.802 51.9529 271.86 52.0102C271.917 52.0675 271.963 52.1355 271.994 52.2104C272.025 52.2853 272.041 52.3655 272.041 52.4465V87.3039C272.041 87.3849 272.025 87.4652 271.994 87.54C271.963 87.6149 271.917 87.6829 271.86 87.7402C271.802 87.7975 271.734 87.843 271.658 87.874C271.583 87.905 271.502 87.9209 271.421 87.9208ZM217.268 86.6869H270.801V53.0635H217.268V86.6869Z" fill="white"/>
<path d="M261.619 59.5414H228.123C227.959 59.5414 227.801 59.4764 227.685 59.3607C227.568 59.245 227.503 59.0881 227.503 58.9244C227.503 58.7608 227.568 58.6039 227.685 58.4882C227.801 58.3725 227.959 58.3075 228.123 58.3075H261.619C261.784 58.3075 261.941 58.3725 262.058 58.4882C262.174 58.6039 262.239 58.7608 262.239 58.9244C262.239 59.0881 262.174 59.245 262.058 59.3607C261.941 59.4764 261.784 59.5414 261.619 59.5414Z" fill="white"/>
<path d="M261.619 65.0939H228.123C228.042 65.0941 227.961 65.0783 227.886 65.0474C227.81 65.0165 227.742 64.971 227.684 64.9137C227.626 64.8564 227.58 64.7883 227.549 64.7134C227.518 64.6384 227.501 64.5581 227.501 64.4769C227.501 64.3958 227.518 64.3154 227.549 64.2405C227.58 64.1655 227.626 64.0974 227.684 64.0401C227.742 63.9828 227.81 63.9374 227.886 63.9065C227.961 63.8756 228.042 63.8598 228.123 63.86H261.619C261.784 63.86 261.942 63.925 262.058 64.0407C262.174 64.1564 262.24 64.3133 262.24 64.4769C262.24 64.6405 262.174 64.7975 262.058 64.9132C261.942 65.0289 261.784 65.0939 261.619 65.0939Z" fill="white"/>
<path d="M261.619 70.6465H228.123C227.959 70.6465 227.801 70.5815 227.685 70.4658C227.568 70.3501 227.503 70.1932 227.503 70.0295C227.503 69.8659 227.568 69.709 227.685 69.5933C227.801 69.4776 227.959 69.4126 228.123 69.4126H261.619C261.784 69.4126 261.941 69.4776 262.058 69.5933C262.174 69.709 262.239 69.8659 262.239 70.0295C262.239 70.1932 262.174 70.3501 262.058 70.4658C261.941 70.5815 261.784 70.6465 261.619 70.6465Z" fill="white"/>
<path d="M261.619 76.199H228.123C228.042 76.1992 227.961 76.1834 227.886 76.1525C227.81 76.1216 227.742 76.0762 227.684 76.0189C227.626 75.9615 227.58 75.8935 227.549 75.8185C227.518 75.7436 227.501 75.6632 227.501 75.582C227.501 75.5009 227.518 75.4205 227.549 75.3456C227.58 75.2706 227.626 75.2025 227.684 75.1452C227.742 75.0879 227.81 75.0425 227.886 75.0116C227.961 74.9807 228.042 74.9649 228.123 74.9651H261.619C261.784 74.9651 261.942 75.0301 262.058 75.1458C262.174 75.2615 262.24 75.4184 262.24 75.582C262.24 75.7457 262.174 75.9026 262.058 76.0183C261.942 76.134 261.784 76.199 261.619 76.199Z" fill="white"/>
<path d="M261.619 81.7515H228.123C227.959 81.7515 227.801 81.6865 227.685 81.5708C227.568 81.4551 227.503 81.2981 227.503 81.1345C227.503 80.9709 227.568 80.814 227.685 80.6983C227.801 80.5826 227.959 80.5176 228.123 80.5176H261.619C261.701 80.5174 261.782 80.5332 261.857 80.5641C261.932 80.595 262.001 80.6404 262.059 80.6977C262.117 80.755 262.162 80.8231 262.194 80.8981C262.225 80.973 262.241 81.0534 262.241 81.1345C262.241 81.2157 262.225 81.296 262.194 81.371C262.162 81.4459 262.117 81.514 262.059 81.5713C262.001 81.6286 261.932 81.6741 261.857 81.705C261.782 81.7359 261.701 81.7517 261.619 81.7515Z" fill="white"/>
<path d="M91.8737 53.5431C92.0388 53.5374 92.1953 53.4681 92.3101 53.3499C92.4249 53.2317 92.4891 53.0738 92.4891 52.9094C92.4891 52.7451 92.4249 52.5871 92.3101 52.4689C92.1953 52.3507 92.0388 52.2814 91.8737 52.2758C91.7085 52.2814 91.5521 52.3507 91.4373 52.4689C91.3225 52.5871 91.2583 52.7451 91.2583 52.9094C91.2583 53.0738 91.3225 53.2317 91.4373 53.3499C91.5521 53.4681 91.7085 53.5374 91.8737 53.5431Z" fill="white"/>
<path d="M91.8737 60.3294C92.0388 60.3238 92.1953 60.2545 92.3101 60.1363C92.4249 60.0181 92.4891 59.8601 92.4891 59.6958C92.4891 59.5314 92.4249 59.3735 92.3101 59.2553C92.1953 59.1371 92.0388 59.0678 91.8737 59.0621C91.7085 59.0678 91.5521 59.1371 91.4373 59.2553C91.3225 59.3735 91.2583 59.5314 91.2583 59.6958C91.2583 59.8601 91.3225 60.0181 91.4373 60.1363C91.5521 60.2545 91.7085 60.3238 91.8737 60.3294Z" fill="white"/>
<path d="M91.8737 67.1158C92.0388 67.1101 92.1953 67.0409 92.3101 66.9227C92.4249 66.8044 92.4891 66.6465 92.4891 66.4822C92.4891 66.3178 92.4249 66.1599 92.3101 66.0417C92.1953 65.9235 92.0388 65.8542 91.8737 65.8485C91.7085 65.8542 91.5521 65.9235 91.4373 66.0417C91.3225 66.1599 91.2583 66.3178 91.2583 66.4822C91.2583 66.6465 91.3225 66.8044 91.4373 66.9227C91.5521 67.0409 91.7085 67.1101 91.8737 67.1158Z" fill="white"/>
<path d="M91.8737 73.9022C92.0388 73.8965 92.1953 73.8273 92.3101 73.7091C92.4249 73.5908 92.4891 73.4329 92.4891 73.2685C92.4891 73.1042 92.4249 72.9463 92.3101 72.828C92.1953 72.7098 92.0388 72.6406 91.8737 72.6349C91.7085 72.6406 91.5521 72.7098 91.4373 72.828C91.3225 72.9463 91.2583 73.1042 91.2583 73.2685C91.2583 73.4329 91.3225 73.5908 91.4373 73.7091C91.5521 73.8273 91.7085 73.8965 91.8737 73.9022Z" fill="white"/>
<path d="M91.8737 80.6886C92.0388 80.6829 92.1953 80.6136 92.3101 80.4954C92.4249 80.3772 92.4891 80.2193 92.4891 80.0549C92.4891 79.8906 92.4249 79.7326 92.3101 79.6144C92.1953 79.4962 92.0388 79.427 91.8737 79.4213C91.7085 79.427 91.5521 79.4962 91.4373 79.6144C91.3225 79.7326 91.2583 79.8906 91.2583 80.0549C91.2583 80.2193 91.3225 80.3772 91.4373 80.4954C91.5521 80.6136 91.7085 80.6829 91.8737 80.6886Z" fill="white"/>
<path d="M91.8737 87.4749C92.0388 87.4693 92.1953 87.4 92.3101 87.2818C92.4249 87.1636 92.4891 87.0056 92.4891 86.8413C92.4891 86.6769 92.4249 86.519 92.3101 86.4008C92.1953 86.2826 92.0388 86.2133 91.8737 86.2076C91.7085 86.2133 91.5521 86.2826 91.4373 86.4008C91.3225 86.519 91.2583 86.6769 91.2583 86.8413C91.2583 87.0056 91.3225 87.1636 91.4373 87.2818C91.5521 87.4 91.7085 87.4693 91.8737 87.4749Z" fill="white"/>
<path d="M117.711 53.5262H97.8618C97.6972 53.5262 97.5395 53.4612 97.4231 53.3455C97.3068 53.2298 97.2415 53.0729 97.2415 52.9093C97.2415 52.7457 97.3068 52.5887 97.4231 52.473C97.5395 52.3573 97.6972 52.2924 97.8618 52.2924H117.711C117.876 52.2924 118.033 52.3573 118.15 52.473C118.266 52.5887 118.331 52.7457 118.331 52.9093C118.331 53.0729 118.266 53.2298 118.15 53.3455C118.033 53.4612 117.876 53.5262 117.711 53.5262H117.711Z" fill="white"/>
<path d="M117.711 60.3126H97.8614C97.7798 60.3128 97.699 60.297 97.6236 60.2661C97.5481 60.2352 97.4795 60.1898 97.4218 60.1325C97.364 60.0752 97.3182 60.0071 97.2869 59.9321C97.2556 59.8572 97.2395 59.7768 97.2395 59.6957C97.2395 59.6145 97.2556 59.5342 97.2869 59.4592C97.3182 59.3843 97.364 59.3162 97.4218 59.2589C97.4795 59.2016 97.5481 59.1561 97.6236 59.1252C97.699 59.0943 97.7798 59.0785 97.8614 59.0787H117.711C117.792 59.0785 117.873 59.0943 117.949 59.1252C118.024 59.1561 118.093 59.2016 118.151 59.2589C118.208 59.3162 118.254 59.3843 118.285 59.4592C118.317 59.5342 118.333 59.6145 118.333 59.6957C118.333 59.7768 118.317 59.8572 118.285 59.9321C118.254 60.0071 118.208 60.0752 118.151 60.1325C118.093 60.1898 118.024 60.2352 117.949 60.2661C117.873 60.297 117.792 60.3128 117.711 60.3126H117.711Z" fill="white"/>
<path d="M117.711 67.099H97.8618C97.6972 67.099 97.5395 67.034 97.4231 66.9183C97.3068 66.8026 97.2415 66.6457 97.2415 66.4821C97.2415 66.3184 97.3068 66.1615 97.4231 66.0458C97.5395 65.9301 97.6972 65.8651 97.8618 65.8651H117.711C117.793 65.8649 117.874 65.8807 117.949 65.9116C118.024 65.9425 118.093 65.9879 118.151 66.0453C118.209 66.1026 118.254 66.1706 118.286 66.2456C118.317 66.3206 118.333 66.4009 118.333 66.4821C118.333 66.5632 118.317 66.6436 118.286 66.7185C118.254 66.7935 118.209 66.8616 118.151 66.9189C118.093 66.9762 118.024 67.0216 117.949 67.0525C117.874 67.0834 117.793 67.0992 117.711 67.099H117.711Z" fill="white"/>
<path d="M117.711 73.8854H97.8618C97.6972 73.8854 97.5395 73.8204 97.4231 73.7047C97.3068 73.589 97.2415 73.432 97.2415 73.2684C97.2415 73.1048 97.3068 72.9479 97.4231 72.8322C97.5395 72.7165 97.6972 72.6515 97.8618 72.6515H117.711C117.793 72.6513 117.874 72.6671 117.949 72.698C118.024 72.7289 118.093 72.7743 118.151 72.8316C118.209 72.8889 118.254 72.957 118.286 73.032C118.317 73.1069 118.333 73.1873 118.333 73.2684C118.333 73.3496 118.317 73.4299 118.286 73.5049C118.254 73.5799 118.209 73.6479 118.151 73.7052C118.093 73.7626 118.024 73.808 117.949 73.8389C117.874 73.8698 117.793 73.8856 117.711 73.8854H117.711Z" fill="white"/>
<path d="M117.711 80.6718H97.8618C97.6972 80.6718 97.5395 80.6068 97.4231 80.4911C97.3068 80.3754 97.2415 80.2184 97.2415 80.0548C97.2415 79.8912 97.3068 79.7343 97.4231 79.6186C97.5395 79.5029 97.6972 79.4379 97.8618 79.4379H117.711C117.793 79.4377 117.874 79.4535 117.949 79.4844C118.024 79.5153 118.093 79.5607 118.151 79.618C118.209 79.6753 118.254 79.7434 118.286 79.8183C118.317 79.8933 118.333 79.9737 118.333 80.0548C118.333 80.136 118.317 80.2163 118.286 80.2913C118.254 80.3662 118.209 80.4343 118.151 80.4916C118.093 80.5489 118.024 80.5944 117.949 80.6253C117.874 80.6562 117.793 80.672 117.711 80.6718H117.711Z" fill="white"/>
<path d="M117.711 87.4581H97.8614C97.7798 87.4583 97.699 87.4425 97.6236 87.4116C97.5481 87.3807 97.4795 87.3353 97.4218 87.278C97.364 87.2207 97.3182 87.1526 97.2869 87.0777C97.2556 87.0027 97.2395 86.9223 97.2395 86.8412C97.2395 86.76 97.2556 86.6797 97.2869 86.6047C97.3182 86.5298 97.364 86.4617 97.4218 86.4044C97.4795 86.3471 97.5481 86.3017 97.6236 86.2707C97.699 86.2398 97.7798 86.224 97.8614 86.2242H117.711C117.792 86.224 117.873 86.2398 117.949 86.2707C118.024 86.3017 118.093 86.3471 118.151 86.4044C118.208 86.4617 118.254 86.5298 118.285 86.6047C118.317 86.6797 118.333 86.76 118.333 86.8412C118.333 86.9223 118.317 87.0027 118.285 87.0777C118.254 87.1526 118.208 87.2207 118.151 87.278C118.093 87.3353 118.024 87.3807 117.949 87.4116C117.873 87.4425 117.792 87.4583 117.711 87.4581H117.711Z" fill="white"/>
<path d="M329.002 90.2754H315.649C314.766 90.2745 313.919 89.9251 313.294 89.304C312.67 88.6829 312.318 87.8408 312.317 86.9623V52.7876C312.318 51.9092 312.67 51.0671 313.294 50.4461C313.919 49.8251 314.766 49.4759 315.649 49.4751H317.269C317.37 49.4751 317.47 49.4998 317.56 49.5472C317.65 49.5946 317.726 49.6631 317.783 49.7468C317.84 49.8305 317.875 49.9268 317.886 50.0272C317.897 50.1276 317.882 50.2291 317.844 50.3228C317.803 50.4237 317.787 50.5331 317.798 50.6416C317.809 50.75 317.847 50.854 317.908 50.9446C317.969 51.0351 318.051 51.1094 318.148 51.1609C318.244 51.2124 318.352 51.2395 318.462 51.2398H326.074C326.184 51.2396 326.291 51.2127 326.388 51.1614C326.484 51.1101 326.567 51.0361 326.628 50.9457C326.689 50.8553 326.727 50.7515 326.738 50.6432C326.749 50.5349 326.734 50.4255 326.693 50.3246C326.654 50.231 326.64 50.1294 326.65 50.0288C326.66 49.9282 326.695 49.8316 326.752 49.7477C326.809 49.6638 326.886 49.595 326.975 49.5475C327.065 49.4999 327.165 49.4751 327.267 49.4751H329.002C329.885 49.476 330.731 49.8252 331.356 50.4462C331.98 51.0672 332.332 51.9093 332.333 52.7876V86.9623C332.332 87.8406 331.98 88.6827 331.356 89.3038C330.732 89.9249 329.885 90.2743 329.002 90.2754ZM315.649 50.709C315.095 50.7095 314.563 50.9287 314.171 51.3183C313.779 51.708 313.559 52.2364 313.558 52.7876V86.9623C313.559 87.5136 313.779 88.0421 314.171 88.4319C314.563 88.8217 315.095 89.0409 315.649 89.0415H329.002C329.556 89.0409 330.087 88.8216 330.479 88.4318C330.871 88.042 331.092 87.5135 331.092 86.9623V52.7876C331.091 52.2364 330.871 51.7081 330.479 51.3184C330.087 50.9287 329.556 50.7096 329.002 50.709H327.977C327.943 51.1878 327.727 51.636 327.374 51.9633C327.021 52.2907 326.557 52.473 326.074 52.4737H318.462C317.979 52.473 317.515 52.2906 317.162 51.9632C316.809 51.6359 316.593 51.1878 316.559 50.709H315.649Z" fill="white"/>
<path d="M302.559 70.6464H285.191C285.026 70.6464 284.868 70.5814 284.752 70.4657C284.636 70.35 284.57 70.1931 284.57 70.0295C284.57 69.8659 284.636 69.7089 284.752 69.5932C284.868 69.4775 285.026 69.4125 285.191 69.4125H301.061L297.468 65.8386C297.352 65.7229 297.286 65.566 297.286 65.4024C297.286 65.2388 297.352 65.0819 297.468 64.9662C297.584 64.8505 297.742 64.7855 297.907 64.7855C298.071 64.7855 298.229 64.8505 298.345 64.9662L302.997 69.5933C303.084 69.6796 303.143 69.7895 303.167 69.9092C303.191 70.0288 303.179 70.1529 303.132 70.2656C303.085 70.3783 303.005 70.4747 302.903 70.5425C302.801 70.6102 302.682 70.6464 302.559 70.6464V70.6464Z" fill="white"/>
<path d="M298.217 74.965C298.094 74.965 297.974 74.9288 297.872 74.861C297.77 74.7932 297.691 74.6969 297.644 74.5842C297.597 74.4714 297.584 74.3474 297.608 74.2278C297.632 74.1081 297.691 73.9982 297.778 73.9119L302.12 69.5933C302.236 69.4776 302.394 69.4126 302.559 69.4126C302.723 69.4126 302.881 69.4776 302.997 69.5933C303.114 69.709 303.179 69.8659 303.179 70.0295C303.179 70.1931 303.114 70.35 302.997 70.4657L298.655 74.7843C298.598 74.8417 298.529 74.8872 298.454 74.9182C298.379 74.9492 298.298 74.9651 298.217 74.965Z" fill="white"/>
<path d="M333.137 122.573H312.856C311.472 114.615 311.472 106.48 312.856 98.5222H333.137C330.852 106.378 330.852 114.717 333.137 122.573Z" fill="#FF6584"/>
<path d="M220.531 118.438H240.812C242.196 110.48 242.196 102.345 240.812 94.3872H220.531C222.816 102.243 222.816 110.582 220.531 118.438Z" fill="#BB0A21"/>
<path d="M251.396 125.202H271.677C273.061 117.244 273.061 109.109 271.677 101.151H251.396C253.681 109.007 253.681 117.346 251.396 125.202Z" fill="#BB0A21"/>
<path d="M237.613 101.394H225.271C225.058 101.394 224.885 101.118 224.885 100.777C224.885 100.436 225.058 100.161 225.271 100.161H237.613C237.826 100.161 237.998 100.436 237.998 100.777C237.998 101.118 237.826 101.394 237.613 101.394Z" fill="white"/>
<path d="M237.613 107.118H225.271C225.058 107.118 224.885 106.842 224.885 106.501C224.885 106.16 225.058 105.884 225.271 105.884H237.613C237.826 105.884 237.998 106.16 237.998 106.501C237.998 106.842 237.826 107.118 237.613 107.118Z" fill="white"/>
<path d="M268.477 110.76H256.136C255.923 110.76 255.75 110.484 255.75 110.143C255.75 109.802 255.923 109.526 256.136 109.526H268.477C268.69 109.526 268.863 109.802 268.863 110.143C268.863 110.484 268.69 110.76 268.477 110.76Z" fill="white"/>
<path d="M268.477 116.483H256.136C255.923 116.483 255.75 116.207 255.75 115.866C255.75 115.525 255.923 115.249 256.136 115.249H268.477C268.69 115.249 268.863 115.525 268.863 115.866C268.863 116.207 268.69 116.483 268.477 116.483Z" fill="white"/>
<path d="M328.637 105.036H316.296C316.083 105.036 315.91 104.761 315.91 104.42C315.91 104.079 316.083 103.803 316.296 103.803H328.637C328.85 103.803 329.023 104.079 329.023 104.42C329.023 104.761 328.85 105.036 328.637 105.036Z" fill="white"/>
<path d="M328.637 110.76H316.296C316.083 110.76 315.91 110.484 315.91 110.143C315.91 109.802 316.083 109.526 316.296 109.526H328.637C328.85 109.526 329.023 109.802 329.023 110.143C329.023 110.484 328.85 110.76 328.637 110.76Z" fill="white"/>
<path d="M237.613 112.841H225.271C225.058 112.841 224.885 112.565 224.885 112.224C224.885 111.883 225.058 111.607 225.271 111.607H237.613C237.826 111.607 237.998 111.883 237.998 112.224C237.998 112.565 237.826 112.841 237.613 112.841Z" fill="white"/>
<path d="M118.521 118.958H138.802C140.186 111 140.186 102.865 138.802 94.9075H118.521C120.806 102.763 120.806 111.102 118.521 118.958Z" fill="#BB0A21"/>
<path d="M135.602 101.915H123.26C123.047 101.915 122.875 101.639 122.875 101.298C122.875 100.957 123.047 100.681 123.26 100.681H135.602C135.815 100.681 135.987 100.957 135.987 101.298C135.987 101.639 135.815 101.915 135.602 101.915Z" fill="white"/>
<path d="M135.602 107.638H123.26C123.047 107.638 122.875 107.362 122.875 107.021C122.875 106.68 123.047 106.404 123.26 106.404H135.602C135.815 106.404 135.987 106.68 135.987 107.021C135.987 107.362 135.815 107.638 135.602 107.638Z" fill="white"/>
<path d="M135.602 113.361H123.26C123.047 113.361 122.875 113.086 122.875 112.745C122.875 112.404 123.047 112.128 123.26 112.128H135.602C135.815 112.128 135.987 112.404 135.987 112.745C135.987 113.086 135.815 113.361 135.602 113.361Z" fill="white"/>
<path d="M60.3328 156.978H80.6139C81.998 149.02 81.998 140.885 80.6139 132.927H60.3328C62.6176 140.783 62.6176 149.122 60.3328 156.978Z" fill="#BB0A21"/>
<path d="M77.4141 139.934H65.0727C64.8597 139.934 64.687 139.658 64.687 139.317C64.687 138.976 64.8597 138.7 65.0727 138.7H77.4141C77.6271 138.7 77.7998 138.976 77.7998 139.317C77.7998 139.658 77.6271 139.934 77.4141 139.934Z" fill="white"/>
<path d="M77.4141 145.657H65.0727C64.8597 145.657 64.687 145.381 64.687 145.04C64.687 144.699 64.8597 144.423 65.0727 144.423H77.4141C77.6271 144.423 77.7998 144.699 77.7998 145.04C77.7998 145.381 77.6271 145.657 77.4141 145.657Z" fill="white"/>
<path d="M77.4141 151.381H65.0727C64.8597 151.381 64.687 151.105 64.687 150.764C64.687 150.423 64.8597 150.147 65.0727 150.147H77.4141C77.6271 150.147 77.7998 150.423 77.7998 150.764C77.7998 151.105 77.6271 151.381 77.4141 151.381Z" fill="white"/>
<path d="M340.905 112.235C340.905 112.235 328.445 121.973 334.675 124.186C340.905 126.399 344.911 116.219 344.911 116.219L340.905 112.235Z" fill="#A0616A"/>
<path d="M341.35 108.694L338.68 113.12C338.68 113.12 343.13 113.12 344.021 119.76L347.581 115.333L341.35 108.694Z" fill="#CFCCE0"/>
<path d="M400.539 209.613L400.984 222.891L395.644 225.99L393.419 224.662L393.864 209.613H400.539Z" fill="#A0616A"/>
<path d="M368.942 206.072L369.832 220.236L357.371 225.547L358.261 218.023C358.261 218.023 361.822 212.268 360.932 206.072H368.942Z" fill="#A0616A"/>
<path d="M388.078 99.3989C388.078 99.3989 395.199 117.989 396.534 129.497C397.869 141.006 400.094 171.547 400.094 171.547L404.544 210.94L392.084 212.711L386.743 172.875L374.727 133.481L372.057 172.875L369.832 208.727L358.261 209.17L357.371 171.989L352.476 124.629L355.146 102.055L388.078 99.3989Z" fill="#2F2E41"/>
<path d="M394.754 223.776C394.754 223.776 395.484 216.343 400.904 220.502L401.874 219.793L406.325 229.531C406.325 229.531 411.665 237.055 402.319 237.941C392.974 238.826 393.864 229.531 393.864 229.531L392.974 225.547L393.419 222.938L394.754 223.776Z" fill="#2F2E41"/>
<path d="M368.942 214.924C370.037 215.547 370.945 216.45 371.571 217.54C372.197 218.629 372.519 219.866 372.502 221.121C372.502 225.547 372.057 225.99 372.057 225.99L365.382 227.76C365.382 227.76 360.931 227.318 358.261 229.973C355.591 232.629 342.24 234.4 342.24 230.859C342.24 227.318 353.366 221.563 353.366 221.563C353.366 221.563 356.67 216.014 359.023 216.576C361.377 217.137 362.267 218.022 362.267 218.465C362.267 218.908 360.931 222.006 360.931 222.006C360.931 222.006 368.497 220.236 368.942 214.924Z" fill="#2F2E41"/>
<path d="M368.052 44.9561C374.197 44.9561 379.178 40.0018 379.178 33.8905C379.178 27.7791 374.197 22.8248 368.052 22.8248C361.907 22.8248 356.926 27.7791 356.926 33.8905C356.926 40.0018 361.907 44.9561 368.052 44.9561Z" fill="#A0616A"/>
<path d="M376.285 36.7675L381.18 47.8331L367.83 66.866C367.83 66.866 366.939 46.0626 364.269 42.5216C361.599 38.9806 376.285 36.7675 376.285 36.7675Z" fill="#A0616A"/>
<path d="M370.055 59.7838L372.28 54.0298L374.06 54.4725L376.285 52.7017L379.4 42.9641L383.851 46.0627L389.636 104.047L353.589 104.932L358.484 64.6528L362.934 53.1444L366.147 48.9209L368.274 55.3575L370.055 59.7838Z" fill="#CFCCE0"/>
<path d="M380.29 84.571L381.652 44.532C381.652 44.532 384.296 44.7347 385.186 46.0626C386.076 47.3905 400.762 50.0462 400.762 50.0462L398.091 91.2103C398.091 91.2103 409.217 123.965 405.212 125.735C401.207 127.506 394.086 127.063 394.086 127.063L380.29 84.571Z" fill="#575A89"/>
<path d="M358.706 79.4808L363.427 52.4961L352.921 59.5627L355.591 79.0382L353.366 92.3169C353.366 92.3169 344.911 129.055 347.581 130.383C350.251 131.711 353.366 130.383 353.366 130.383L358.706 93.2022V79.4808Z" fill="#575A89"/>
<path d="M356.036 58.6774L352.921 59.5626L351.586 77.2676L349.361 92.7595L338.68 111.792C338.68 111.792 344.021 108.251 346.246 118.432L358.008 98.0634L356.036 58.6774Z" fill="#575A89"/>
<path d="M390.748 108.694C390.748 108.694 378.288 118.432 384.518 120.645C390.748 122.858 394.754 112.678 394.754 112.678L390.748 108.694Z" fill="#A0616A"/>
<path d="M398.314 113.563L394.309 118.432L388.969 109.137L391.194 105.153L398.314 113.563Z" fill="#CFCCE0"/>
<path d="M397.424 51.5954L400.985 49.825C400.985 49.825 403.655 53.366 404.1 56.4643C404.545 59.5627 406.77 63.5463 406.77 65.7595C406.77 67.9726 413 88.776 413 88.776L398.759 117.547C398.759 117.547 395.644 106.924 388.969 106.038L400.094 90.5465L393.864 79.4808L397.424 51.5954Z" fill="#575A89"/>
<path d="M377.366 23.3472L379.464 22.5118C379.464 22.5118 375.077 17.7083 368.974 18.126L370.69 16.2464C370.69 16.2464 366.494 14.5756 362.68 18.9614C360.674 21.2669 358.354 23.9769 356.908 27.0296H354.661L355.599 29.0833L352.317 31.1369L355.686 30.7681C355.485 31.8927 355.454 33.0408 355.594 34.1744C355.739 35.3084 356.321 36.3422 357.217 37.0576C357.217 37.0576 359.819 31.701 359.819 30.8656V32.9541C359.819 32.9541 361.917 31.0745 361.917 29.8214L363.061 31.2833L363.633 28.986L370.69 31.2833L369.546 29.4037L373.933 30.0303L372.216 27.7329C372.216 27.7329 377.175 30.4479 377.366 32.7453C377.556 35.0426 379.008 37.2194 379.008 37.2194C379.008 37.2194 382.897 26.4799 377.366 23.3472Z" fill="#2F2E41"/>
<path d="M377.175 33.6692C377.863 33.6692 378.421 32.9756 378.421 32.12C378.421 31.2644 377.863 30.5708 377.175 30.5708C376.487 30.5708 375.929 31.2644 375.929 32.12C375.929 32.9756 376.487 33.6692 377.175 33.6692Z" fill="#A0616A"/>
</g>
<defs>
<clipPath id="clip0">
<rect width="413" height="238" fill="white"/>
</clipPath>
</defs>
</svg>
